solid OpenSCAD_Model
  facet normal 0 0 -1
    outer loop
      vertex 0 -10 0
      vertex 0 10 0
      vertex 10 0 0
    endloop
  endfacet
  facet normal 0 0 -1
    outer loop
      vertex 0 10 0
      vertex 0 -10 0
      vertex -10 0 0
    endloop
  endfacet
  facet normal 0.5773502691896257 0.5773502691896257 0.5773502691896257
    outer loop
      vertex 10 0 0
      vertex 0 10 0
      vertex 0 0 10
    endloop
  endfacet
  facet normal -0.5773502691896257 0.5773502691896257 0.5773502691896257
    outer loop
      vertex 0 10 0
      vertex -10 0 0
      vertex 0 0 10
    endloop
  endfacet
  facet normal -0.5773502691896257 -0.5773502691896257 0.5773502691896257
    outer loop
      vertex -10 0 0
      vertex 0 -10 0
      vertex 0 0 10
    endloop
  endfacet
  facet normal 0.5773502691896257 -0.5773502691896257 0.5773502691896257
    outer loop
      vertex 0 -10 0
      vertex 10 0 0
      vertex 0 0 10
    endloop
  endfacet
endsolid OpenSCAD_Model
