solid OpenSCAD_Model
  facet normal 0 0 -1
    outer loop
      vertex -7.5 -7.5 -15
      vertex -14.966814395936527 -10.874027167410754 -15
      vertex -15 -10.816548015092955 -15
    endloop
  endfacet
  facet normal 0 0 -1
    outer loop
      vertex -7.5 -7.5 -15
      vertex -12.378916217638876 -13.748179271331791 -15
      vertex -14.966814395936527 -10.874027167410754 -15
    endloop
  endfacet
  facet normal -1 0 0
    outer loop
      vertex -15 -10.816548015092955 -15
      vertex -15 -6.678430279628044 -8.065147258635674
      vertex -15 10.816548015092955 -15
    endloop
  endfacet
  facet normal 0 0 -1
    outer loop
      vertex -7.5 -7.5 -15
      vertex -15 -10.816548015092955 -15
      vertex -15 10.816548015092955 -15
    endloop
  endfacet
  facet normal -1 0 0
    outer loop
      vertex -15 -3.7190240494880187 -5
      vertex -15 6.678430279628044 -8.065147258635674
      vertex -15 -6.678430279628044 -8.065147258635674
    endloop
  endfacet
  facet normal 0 0 -1
    outer loop
      vertex 7.5 -7.5 -15
      vertex -10.655932799028905 -15 -15
      vertex -12.378916217638876 -13.748179271331791 -15
    endloop
  endfacet
  facet normal 0 0 -1
    outer loop
      vertex -7.5 -7.5 -15
      vertex 7.5 -7.5 -15
      vertex -12.378916217638876 -13.748179271331791 -15
    endloop
  endfacet
  facet normal 0 -1 0
    outer loop
      vertex 8.660254037844387 -15 -11.068360252295916
      vertex -8.660254037844387 -15 -11.068360252295916
      vertex -10.655932799028905 -15 -15
    endloop
  endfacet
  facet normal 0 -1 0
    outer loop
      vertex 8.660254037844387 -15 -11.068360252295916
      vertex -4.873795443493595 -15 -5.906444545246698
      vertex -8.660254037844387 -15 -11.068360252295916
    endloop
  endfacet
  facet normal 0 -1 0
    outer loop
      vertex -3.5730331674917855 -15 -5
      vertex -4.873795443493595 -15 -5.906444545246698
      vertex 3.5730331674917855 -15 -5
    endloop
  endfacet
  facet normal 0 0 1
    outer loop
      vertex -5 5 15
      vertex -9.292402206971156 -1.9751610627687142 15
      vertex -8.678681847604707 -3.8639981092201023 15
    endloop
  endfacet
  facet normal 0 0 1
    outer loop
      vertex -5 -5 15
      vertex -2.9356614465620003 -9.035036904803958 15
      vertex -0.993020401042708 -9.447958005998597 15
    endloop
  endfacet
  facet normal 0 0 1
    outer loop
      vertex -5 -5 15
      vertex -0.993020401042708 -9.447958005998597 15
      vertex 0.993020401042708 -9.447958005998597 15
    endloop
  endfacet
  facet normal 0 0 1
    outer loop
      vertex -5 -5 15
      vertex 0.993020401042708 -9.447958005998597 15
      vertex 2.9356614465620003 -9.035036904803958 15
    endloop
  endfacet
  facet normal 0 0 1
    outer loop
      vertex -5 -5 15
      vertex -7.685661446562001 -5.583959896778496 15
      vertex -6.356740760409153 -7.059875842035244 15
    endloop
  endfacet
  facet normal 0 0 1
    outer loop
      vertex -5 -5 15
      vertex -6.356740760409153 -7.059875842035244 15
      vertex -4.75 -8.227241335952167 15
    endloop
  endfacet
  facet normal 0 0 1
    outer loop
      vertex -5 -5 15
      vertex -4.75 -8.227241335952167 15
      vertex -2.9356614465620003 -9.035036904803958 15
    endloop
  endfacet
  facet normal 0 0 1
    outer loop
      vertex -5 5 15
      vertex -8.678681847604707 -3.8639981092201023 15
      vertex -7.685661446562001 -5.583959896778496 15
    endloop
  endfacet
  facet normal 0 0 1
    outer loop
      vertex -5 -5 15
      vertex -5 5 15
      vertex -7.685661446562001 -5.583959896778496 15
    endloop
  endfacet
  facet normal 0 0 -1
    outer loop
      vertex -7.5 -7.5 -15
      vertex -15 10.816548015092955 -15
      vertex -14.966814395936527 10.874027167410754 -15
    endloop
  endfacet
  facet normal 0 0 -1
    outer loop
      vertex -7.5 -7.5 -15
      vertex -14.966814395936527 10.874027167410754 -15
      vertex -12.378916217638878 13.748179271331793 -15
    endloop
  endfacet
  facet normal 0 0 -1
    outer loop
      vertex -7.5 -7.5 -15
      vertex -12.378916217638878 13.748179271331793 -15
      vertex -7.5 7.5 -15
    endloop
  endfacet
  facet normal -1 0 0
    outer loop
      vertex -15 -6.678430279628044 -8.065147258635674
      vertex -15 6.678430279628044 -8.065147258635674
      vertex -15 10.816548015092955 -15
    endloop
  endfacet
  facet normal -1 0 0
    outer loop
      vertex -15 -3.7190240494880187 -5
      vertex -15 3.7190240494880187 -5
      vertex -15 6.678430279628044 -8.065147258635674
    endloop
  endfacet
  facet normal 0 0 -1
    outer loop
      vertex -7.5 7.5 -15
      vertex -12.378916217638878 13.748179271331793 -15
      vertex -10.655932799028905 15 -15
    endloop
  endfacet
  facet normal 0 0 -1
    outer loop
      vertex -7.5 7.5 -15
      vertex -10.655932799028905 15 -15
      vertex 10.655932799028905 15 -15
    endloop
  endfacet
  facet normal 0 1 0
    outer loop
      vertex -10.655932799028905 15 -15
      vertex -8.660254037844387 15 -11.068360252295916
      vertex 10.655932799028905 15 -15
    endloop
  endfacet
  facet normal 0 1 0
    outer loop
      vertex 4.873795443493595 15 -5.906444545246698
      vertex -8.660254037844387 15 -11.068360252295916
      vertex -4.873795443493595 15 -5.906444545246698
    endloop
  endfacet
  facet normal 0 1 0
    outer loop
      vertex -3.5730331674917855 15 -5
      vertex 4.873795443493595 15 -5.906444545246698
      vertex -4.873795443493595 15 -5.906444545246698
    endloop
  endfacet
  facet normal 0 0 1
    outer loop
      vertex -5 5 15
      vertex -9.5 0 15
      vertex -9.292402206971156 -1.9751610627687142 15
    endloop
  endfacet
  facet normal 0 0 1
    outer loop
      vertex -5 5 15
      vertex -9.292402206971154 1.9751610627687142 15
      vertex -9.5 0 15
    endloop
  endfacet
  facet normal 0 0 1
    outer loop
      vertex -5 5 15
      vertex -8.678681847604707 3.863998109220103 15
      vertex -9.292402206971154 1.9751610627687142 15
    endloop
  endfacet
  facet normal 0 0 1
    outer loop
      vertex -5 5 15
      vertex -7.685661446562001 5.583959896778495 15
      vertex -8.678681847604707 3.863998109220103 15
    endloop
  endfacet
  facet normal 0 0 1
    outer loop
      vertex -5 5 15
      vertex -6.356740760409153 7.059875842035245 15
      vertex -7.685661446562001 5.583959896778495 15
    endloop
  endfacet
  facet normal 0 0 1
    outer loop
      vertex -5 5 15
      vertex 5 5 15
      vertex -6.356740760409153 7.059875842035245 15
    endloop
  endfacet
  facet normal 0 0 1
    outer loop
      vertex 5 5 15
      vertex -4.75 8.227241335952167 15
      vertex -6.356740760409153 7.059875842035245 15
    endloop
  endfacet
  facet normal 0 0 1
    outer loop
      vertex 5 5 15
      vertex -2.9356614465620003 9.035036904803958 15
      vertex -4.75 8.227241335952167 15
    endloop
  endfacet
  facet normal 0 -1 0
    outer loop
      vertex 10.655932799028905 -15 -15
      vertex 8.660254037844387 -15 -11.068360252295916
      vertex -10.655932799028905 -15 -15
    endloop
  endfacet
  facet normal 0 0 -1
    outer loop
      vertex 7.5 -7.5 -15
      vertex 10.655932799028905 -15 -15
      vertex -10.655932799028905 -15 -15
    endloop
  endfacet
  facet normal 0 -1 0
    outer loop
      vertex -4.873795443493595 -15 -5.906444545246698
      vertex 8.660254037844387 -15 -11.068360252295916
      vertex 4.873795443493595 -15 -5.906444545246698
    endloop
  endfacet
  facet normal 0 -1 0
    outer loop
      vertex 3.5730331674917855 -15 -5
      vertex -4.873795443493595 -15 -5.906444545246698
      vertex 4.873795443493595 -15 -5.906444545246698
    endloop
  endfacet
  facet normal 0 0 -1
    outer loop
      vertex 7.5 -7.5 -15
      vertex 12.378916217638878 -13.748179271331793 -15
      vertex 10.655932799028905 -15 -15
    endloop
  endfacet
  facet normal 0 0 -1
    outer loop
      vertex 7.5 -7.5 -15
      vertex 7.5 7.5 -15
      vertex 12.378916217638878 -13.748179271331793 -15
    endloop
  endfacet
  facet normal 0 0 -1
    outer loop
      vertex 7.5 7.5 -15
      vertex 14.966814395936527 -10.874027167410754 -15
      vertex 12.378916217638878 -13.748179271331793 -15
    endloop
  endfacet
  facet normal 0 0 -1
    outer loop
      vertex 7.5 7.5 -15
      vertex 15 -10.816548015092955 -15
      vertex 14.966814395936527 -10.874027167410754 -15
    endloop
  endfacet
  facet normal 1 0 0
    outer loop
      vertex 15 6.678430279628044 -8.065147258635674
      vertex 15 -6.678430279628044 -8.065147258635674
      vertex 15 -10.816548015092955 -15
    endloop
  endfacet
  facet normal 1 0 0
    outer loop
      vertex 15 -3.7190240494880187 -5
      vertex 15 -6.678430279628044 -8.065147258635674
      vertex 15 3.7190240494880187 -5
    endloop
  endfacet
  facet normal 0 0 1
    outer loop
      vertex -5 -5 15
      vertex 2.9356614465620003 -9.035036904803958 15
      vertex 4.75 -8.227241335952167 15
    endloop
  endfacet
  facet normal 0 0 1
    outer loop
      vertex -5 -5 15
      vertex 4.75 -8.227241335952167 15
      vertex 6.356740760409153 -7.059875842035245 15
    endloop
  endfacet
  facet normal 0 0 1
    outer loop
      vertex -5 -5 15
      vertex 6.356740760409153 -7.059875842035245 15
      vertex 5 -5 15
    endloop
  endfacet
  facet normal 0 0 1
    outer loop
      vertex 5 -5 15
      vertex 6.356740760409153 -7.059875842035245 15
      vertex 7.685661446562001 -5.583959896778495 15
    endloop
  endfacet
  facet normal 0 0 1
    outer loop
      vertex 5 -5 15
      vertex 7.685661446562001 -5.583959896778495 15
      vertex 8.678681847604707 -3.863998109220103 15
    endloop
  endfacet
  facet normal 0 0 1
    outer loop
      vertex 5 -5 15
      vertex 8.678681847604707 -3.863998109220103 15
      vertex 9.292402206971154 -1.9751610627687142 15
    endloop
  endfacet
  facet normal 0 0 1
    outer loop
      vertex 5 -5 15
      vertex 9.292402206971154 -1.9751610627687142 15
      vertex 9.5 0 15
    endloop
  endfacet
  facet normal 0 0 1
    outer loop
      vertex 5 -5 15
      vertex 9.5 0 15
      vertex 9.292402206971156 1.9751610627687142 15
    endloop
  endfacet
  facet normal 0 1 0
    outer loop
      vertex -8.660254037844387 15 -11.068360252295916
      vertex 8.660254037844387 15 -11.068360252295916
      vertex 10.655932799028905 15 -15
    endloop
  endfacet
  facet normal 0 0 -1
    outer loop
      vertex -7.5 7.5 -15
      vertex 12.378916217638876 13.748179271331791 -15
      vertex 7.5 7.5 -15
    endloop
  endfacet
  facet normal 0 0 -1
    outer loop
      vertex -7.5 7.5 -15
      vertex 10.655932799028905 15 -15
      vertex 12.378916217638876 13.748179271331791 -15
    endloop
  endfacet
  facet normal 0 1 0
    outer loop
      vertex -8.660254037844387 15 -11.068360252295916
      vertex 4.873795443493595 15 -5.906444545246698
      vertex 8.660254037844387 15 -11.068360252295916
    endloop
  endfacet
  facet normal 0 1 0
    outer loop
      vertex -3.5730331674917855 15 -5
      vertex 3.5730331674917855 15 -5
      vertex 4.873795443493595 15 -5.906444545246698
    endloop
  endfacet
  facet normal 0 0 -1
    outer loop
      vertex 7.5 7.5 -15
      vertex 15 10.816548015092955 -15
      vertex 15 -10.816548015092955 -15
    endloop
  endfacet
  facet normal 1 0 0
    outer loop
      vertex 15 -10.816548015092955 -15
      vertex 15 10.816548015092955 -15
      vertex 15 6.678430279628044 -8.065147258635674
    endloop
  endfacet
  facet normal 1 0 0
    outer loop
      vertex 15 3.7190240494880187 -5
      vertex 15 -6.678430279628044 -8.065147258635674
      vertex 15 6.678430279628044 -8.065147258635674
    endloop
  endfacet
  facet normal 0 0 -1
    outer loop
      vertex 7.5 7.5 -15
      vertex 12.378916217638876 13.748179271331791 -15
      vertex 14.966814395936527 10.874027167410754 -15
    endloop
  endfacet
  facet normal 0 0 -1
    outer loop
      vertex 7.5 7.5 -15
      vertex 14.966814395936527 10.874027167410754 -15
      vertex 15 10.816548015092955 -15
    endloop
  endfacet
  facet normal 0 0 1
    outer loop
      vertex 5 -5 15
      vertex 7.685661446562001 5.583959896778496 15
      vertex 5 5 15
    endloop
  endfacet
  facet normal 0 0 1
    outer loop
      vertex 5 -5 15
      vertex 8.678681847604707 3.8639981092201023 15
      vertex 7.685661446562001 5.583959896778496 15
    endloop
  endfacet
  facet normal 0 0 1
    outer loop
      vertex 5 5 15
      vertex 4.75 8.227241335952167 15
      vertex 2.9356614465620003 9.035036904803958 15
    endloop
  endfacet
  facet normal 0 0 1
    outer loop
      vertex 5 5 15
      vertex 6.356740760409153 7.059875842035244 15
      vertex 4.75 8.227241335952167 15
    endloop
  endfacet
  facet normal 0 0 1
    outer loop
      vertex 5 5 15
      vertex 7.685661446562001 5.583959896778496 15
      vertex 6.356740760409153 7.059875842035244 15
    endloop
  endfacet
  facet normal 0 0 1
    outer loop
      vertex 5 5 15
      vertex -0.993020401042708 9.447958005998597 15
      vertex -2.9356614465620003 9.035036904803958 15
    endloop
  endfacet
  facet normal 0 0 1
    outer loop
      vertex 5 5 15
      vertex 0.993020401042708 9.447958005998597 15
      vertex -0.993020401042708 9.447958005998597 15
    endloop
  endfacet
  facet normal 0 0 1
    outer loop
      vertex 5 5 15
      vertex 2.9356614465620003 9.035036904803958 15
      vertex 0.993020401042708 9.447958005998597 15
    endloop
  endfacet
  facet normal 0 0 1
    outer loop
      vertex 5 -5 15
      vertex 9.292402206971156 1.9751610627687142 15
      vertex 8.678681847604707 3.8639981092201023 15
    endloop
  endfacet
  facet normal -1 0 0
    outer loop
      vertex -7.5 -7.5 -15
      vertex -7.5 7.5 -15
      vertex -7.5 -7.5 -20
    endloop
  endfacet
  facet normal 0 -1 0
    outer loop
      vertex -7.5 -7.5 -15
      vertex -7.5 -7.5 -20
      vertex 7.5 -7.5 -20
    endloop
  endfacet
  facet normal -1 0 0
    outer loop
      vertex -7.5 7.5 -15
      vertex -7.5 7.5 -20
      vertex -7.5 -7.5 -20
    endloop
  endfacet
  facet normal 0 1 0
    outer loop
      vertex -7.5 7.5 -15
      vertex 7.5 7.5 -15
      vertex -7.5 7.5 -20
    endloop
  endfacet
  facet normal 0 -1 0
    outer loop
      vertex -7.5 -7.5 -15
      vertex 7.5 -7.5 -20
      vertex 7.5 -7.5 -15
    endloop
  endfacet
  facet normal 1 0 0
    outer loop
      vertex 7.5 -7.5 -15
      vertex 7.5 -7.5 -20
      vertex 7.5 7.5 -20
    endloop
  endfacet
  facet normal 0 1 0
    outer loop
      vertex 7.5 7.5 -15
      vertex 7.5 7.5 -20
      vertex -7.5 7.5 -20
    endloop
  endfacet
  facet normal 1 0 0
    outer loop
      vertex 7.5 -7.5 -15
      vertex 7.5 7.5 -20
      vertex 7.5 7.5 -15
    endloop
  endfacet
  facet normal 0 0 1
    outer loop
      vertex -5 -5 -5
      vertex -15 -3.7190240494880187 -5
      vertex -14.583785683277988 -5 -5
    endloop
  endfacet
  facet normal 0 0 1
    outer loop
      vertex -5 -5 -5
      vertex -15 3.7190240494880187 -5
      vertex -15 -3.7190240494880187 -5
    endloop
  endfacet
  facet normal 0 1 0
    outer loop
      vertex -5 -5 -5
      vertex -14.583785683277988 -5 -5
      vertex -11.446679070805242 -5 5
    endloop
  endfacet
  facet normal 0 0 -1
    outer loop
      vertex -5 -5 5
      vertex -11.446679070805242 -5 5
      vertex -12.226845009172571 -2.598896135221992 5
    endloop
  endfacet
  facet normal 0 1 0
    outer loop
      vertex -5 -5 -5
      vertex -11.446679070805242 -5 5
      vertex -5 -5 5
    endloop
  endfacet
  facet normal 0 0 -1
    outer loop
      vertex -5 -5 5
      vertex -12.226845009172571 -2.598896135221992 5
      vertex -5 5 5
    endloop
  endfacet
  facet normal 0 0 1
    outer loop
      vertex -5 5 -5
      vertex -14.583785683277988 5 -5
      vertex -15 3.7190240494880187 -5
    endloop
  endfacet
  facet normal 0 0 1
    outer loop
      vertex -5 -5 -5
      vertex -5 5 -5
      vertex -15 3.7190240494880187 -5
    endloop
  endfacet
  facet normal 0 0 -1
    outer loop
      vertex -5 5 5
      vertex -12.226845009172571 -2.598896135221992 5
      vertex -12.5 0 5
    endloop
  endfacet
  facet normal 0 0 -1
    outer loop
      vertex -5 5 5
      vertex -12.5 0 5
      vertex -12.226845009172571 2.598896135221992 5
    endloop
  endfacet
  facet normal 0 -1 0
    outer loop
      vertex -5 5 5
      vertex -11.446679070805242 5 5
      vertex -14.583785683277988 5 -5
    endloop
  endfacet
  facet normal 0 -1 0
    outer loop
      vertex -5 5 -5
      vertex -5 5 5
      vertex -14.583785683277988 5 -5
    endloop
  endfacet
  facet normal 0 0 -1
    outer loop
      vertex -5 5 5
      vertex -12.226845009172571 2.598896135221992 5
      vertex -11.446679070805242 5 5
    endloop
  endfacet
  facet normal 0 0 1
    outer loop
      vertex 5 -5 -5
      vertex 15 -3.7190240494880187 -5
      vertex 5 5 -5
    endloop
  endfacet
  facet normal 0 0 1
    outer loop
      vertex 5 -5 -5
      vertex 14.583785683277988 -5 -5
      vertex 15 -3.7190240494880187 -5
    endloop
  endfacet
  facet normal 0 1 0
    outer loop
      vertex 5 -5 -5
      vertex 5 -5 5
      vertex 14.583785683277988 -5 -5
    endloop
  endfacet
  facet normal 0 1 0
    outer loop
      vertex 5 -5 5
      vertex 11.446679070805242 -5 5
      vertex 14.583785683277988 -5 -5
    endloop
  endfacet
  facet normal 0 0 -1
    outer loop
      vertex 5 -5 5
      vertex 12.226845009172571 -2.598896135221992 5
      vertex 11.446679070805242 -5 5
    endloop
  endfacet
  facet normal 0 0 -1
    outer loop
      vertex 5 -5 5
      vertex 12.5 0 5
      vertex 12.226845009172571 -2.598896135221992 5
    endloop
  endfacet
  facet normal 0 0 -1
    outer loop
      vertex 5 -5 5
      vertex 12.226845009172571 2.598896135221992 5
      vertex 12.5 0 5
    endloop
  endfacet
  facet normal 0 0 1
    outer loop
      vertex 5 5 -5
      vertex 15 -3.7190240494880187 -5
      vertex 15 3.7190240494880187 -5
    endloop
  endfacet
  facet normal 0 0 1
    outer loop
      vertex 5 5 -5
      vertex 15 3.7190240494880187 -5
      vertex 14.583785683277988 5 -5
    endloop
  endfacet
  facet normal 0 0 -1
    outer loop
      vertex 5 -5 5
      vertex 5 5 5
      vertex 12.226845009172571 2.598896135221992 5
    endloop
  endfacet
  facet normal 0 -1 0
    outer loop
      vertex 5 5 -5
      vertex 11.446679070805242 5 5
      vertex 5 5 5
    endloop
  endfacet
  facet normal 0 -1 0
    outer loop
      vertex 5 5 -5
      vertex 14.583785683277988 5 -5
      vertex 11.446679070805242 5 5
    endloop
  endfacet
  facet normal 0 0 -1
    outer loop
      vertex 5 5 5
      vertex 11.446679070805242 5 5
      vertex 12.226845009172571 2.598896135221992 5
    endloop
  endfacet
  facet normal 0 0 1
    outer loop
      vertex 5 -5 -5
      vertex -5 -14.647772643257271 -5
      vertex -4.789763412811685 -14.74137600257488 -5
    endloop
  endfacet
  facet normal 0 0 1
    outer loop
      vertex 5 -5 -5
      vertex -4.789763412811685 -14.74137600257488 -5
      vertex -3.5730331674917855 -15 -5
    endloop
  endfacet
  facet normal 0 0 1
    outer loop
      vertex -5 -5 -5
      vertex -5 -14.647772643257271 -5
      vertex 5 -5 -5
    endloop
  endfacet
  facet normal 1 0 0
    outer loop
      vertex -5 -5 5
      vertex -5 -11.381853403941152 5
      vertex -5 -14.647772643257271 -5
    endloop
  endfacet
  facet normal 1 0 0
    outer loop
      vertex -5 -5 -5
      vertex -5 -5 5
      vertex -5 -14.647772643257271 -5
    endloop
  endfacet
  facet normal 0 0 -1
    outer loop
      vertex -5 -5 5
      vertex -3.8627124296868427 -11.888206453689419 5
      vertex -5 -11.381853403941152 5
    endloop
  endfacet
  facet normal 0 0 -1
    outer loop
      vertex -5 -5 5
      vertex -1.3066057908456683 -12.431523692103417 5
      vertex -3.8627124296868427 -11.888206453689419 5
    endloop
  endfacet
  facet normal 0 0 -1
    outer loop
      vertex -5 -5 5
      vertex 1.3066057908456685 -12.431523692103417 5
      vertex -1.3066057908456683 -12.431523692103417 5
    endloop
  endfacet
  facet normal 0 0 1
    outer loop
      vertex -5 5 -5
      vertex -4.789763412811685 14.74137600257488 -5
      vertex -5 14.647772643257271 -5
    endloop
  endfacet
  facet normal 0 0 1
    outer loop
      vertex -5 5 -5
      vertex -3.5730331674917855 15 -5
      vertex -4.789763412811685 14.74137600257488 -5
    endloop
  endfacet
  facet normal 0 0 1
    outer loop
      vertex -5 5 -5
      vertex 3.5730331674917855 15 -5
      vertex -3.5730331674917855 15 -5
    endloop
  endfacet
  facet normal 1 0 0
    outer loop
      vertex -5 5 -5
      vertex -5 11.381853403941152 5
      vertex -5 5 5
    endloop
  endfacet
  facet normal 0 0 -1
    outer loop
      vertex -5 5 5
      vertex -1.3066057908456685 12.431523692103417 5
      vertex 5 5 5
    endloop
  endfacet
  facet normal 1 0 0
    outer loop
      vertex -5 5 -5
      vertex -5 14.647772643257271 -5
      vertex -5 11.381853403941152 5
    endloop
  endfacet
  facet normal 0 0 -1
    outer loop
      vertex -5 5 5
      vertex -5 11.381853403941152 5
      vertex -3.862712429686843 11.888206453689419 5
    endloop
  endfacet
  facet normal 0 0 -1
    outer loop
      vertex -5 5 5
      vertex -3.862712429686843 11.888206453689419 5
      vertex -1.3066057908456685 12.431523692103417 5
    endloop
  endfacet
  facet normal 0 0 1
    outer loop
      vertex 5 -5 -5
      vertex -3.5730331674917855 -15 -5
      vertex 3.5730331674917855 -15 -5
    endloop
  endfacet
  facet normal 0 0 1
    outer loop
      vertex 5 -5 -5
      vertex 3.5730331674917855 -15 -5
      vertex 4.789763412811685 -14.74137600257488 -5
    endloop
  endfacet
  facet normal 0 0 1
    outer loop
      vertex 5 -5 -5
      vertex 4.789763412811685 -14.74137600257488 -5
      vertex 5 -14.647772643257271 -5
    endloop
  endfacet
  facet normal 0 0 -1
    outer loop
      vertex 5 -5 5
      vertex 3.862712429686843 -11.888206453689419 5
      vertex 1.3066057908456685 -12.431523692103417 5
    endloop
  endfacet
  facet normal -1 0 0
    outer loop
      vertex 5 -5 -5
      vertex 5 -14.647772643257271 -5
      vertex 5 -11.381853403941152 5
    endloop
  endfacet
  facet normal 0 0 -1
    outer loop
      vertex 5 -5 5
      vertex 5 -11.381853403941152 5
      vertex 3.862712429686843 -11.888206453689419 5
    endloop
  endfacet
  facet normal 0 0 -1
    outer loop
      vertex -5 -5 5
      vertex 5 -5 5
      vertex 1.3066057908456685 -12.431523692103417 5
    endloop
  endfacet
  facet normal -1 0 0
    outer loop
      vertex 5 -5 -5
      vertex 5 -11.381853403941152 5
      vertex 5 -5 5
    endloop
  endfacet
  facet normal 0 0 1
    outer loop
      vertex -5 5 -5
      vertex 5 5 -5
      vertex 5 14.647772643257271 -5
    endloop
  endfacet
  facet normal 0 0 1
    outer loop
      vertex -5 5 -5
      vertex 4.789763412811685 14.74137600257488 -5
      vertex 3.5730331674917855 15 -5
    endloop
  endfacet
  facet normal 0 0 1
    outer loop
      vertex -5 5 -5
      vertex 5 14.647772643257271 -5
      vertex 4.789763412811685 14.74137600257488 -5
    endloop
  endfacet
  facet normal 0 0 -1
    outer loop
      vertex 5 5 5
      vertex -1.3066057908456685 12.431523692103417 5
      vertex 1.3066057908456683 12.431523692103417 5
    endloop
  endfacet
  facet normal 0 0 -1
    outer loop
      vertex 5 5 5
      vertex 1.3066057908456683 12.431523692103417 5
      vertex 3.8627124296868427 11.888206453689419 5
    endloop
  endfacet
  facet normal -1 0 0
    outer loop
      vertex 5 5 -5
      vertex 5 5 5
      vertex 5 14.647772643257271 -5
    endloop
  endfacet
  facet normal -1 0 0
    outer loop
      vertex 5 5 5
      vertex 5 11.381853403941152 5
      vertex 5 14.647772643257271 -5
    endloop
  endfacet
  facet normal 0 0 -1
    outer loop
      vertex 5 5 5
      vertex 3.8627124296868427 11.888206453689419 5
      vertex 5 11.381853403941152 5
    endloop
  endfacet
  facet normal 1 0 0
    outer loop
      vertex -5 -5 -5
      vertex -5 -5 -20
      vertex -5 5 -20
    endloop
  endfacet
  facet normal 0 1 0
    outer loop
      vertex -5 -5 -5
      vertex 5 -5 -5
      vertex -5 -5 -20
    endloop
  endfacet
  facet normal 1 0 0
    outer loop
      vertex -5 -5 5
      vertex -5 5 15
      vertex -5 -5 15
    endloop
  endfacet
  facet normal 0 1 0
    outer loop
      vertex -5 -5 5
      vertex -5 -5 15
      vertex 5 -5 5
    endloop
  endfacet
  facet normal 0 -1 0
    outer loop
      vertex -5 5 -5
      vertex -5 5 -20
      vertex 5 5 -20
    endloop
  endfacet
  facet normal 1 0 0
    outer loop
      vertex -5 -5 -5
      vertex -5 5 -20
      vertex -5 5 -5
    endloop
  endfacet
  facet normal 1 0 0
    outer loop
      vertex -5 -5 5
      vertex -5 5 5
      vertex -5 5 15
    endloop
  endfacet
  facet normal 0 -1 0
    outer loop
      vertex -5 5 5
      vertex 5 5 15
      vertex -5 5 15
    endloop
  endfacet
  facet normal 0 1 0
    outer loop
      vertex 5 -5 -5
      vertex 5 -5 -20
      vertex -5 -5 -20
    endloop
  endfacet
  facet normal -1 0 0
    outer loop
      vertex 5 -5 -5
      vertex 5 5 -5
      vertex 5 -5 -20
    endloop
  endfacet
  facet normal 0 1 0
    outer loop
      vertex -5 -5 15
      vertex 5 -5 15
      vertex 5 -5 5
    endloop
  endfacet
  facet normal -1 0 0
    outer loop
      vertex 5 -5 5
      vertex 5 -5 15
      vertex 5 5 5
    endloop
  endfacet
  facet normal -1 0 0
    outer loop
      vertex 5 5 -5
      vertex 5 5 -20
      vertex 5 -5 -20
    endloop
  endfacet
  facet normal 0 -1 0
    outer loop
      vertex -5 5 -5
      vertex 5 5 -20
      vertex 5 5 -5
    endloop
  endfacet
  facet normal 0 -1 0
    outer loop
      vertex -5 5 5
      vertex 5 5 5
      vertex 5 5 15
    endloop
  endfacet
  facet normal -1 0 0
    outer loop
      vertex 5 -5 15
      vertex 5 5 15
      vertex 5 5 5
    endloop
  endfacet
  facet normal -0.8298763218506221 -0.4791293178145575 0.2859027583676651
    outer loop
      vertex -15 -10.816548015092955 -15
      vertex -14.966814395936527 -10.874027167410754 -15
      vertex -15 -6.678430279628044 -8.065147258635674
    endloop
  endfacet
  facet normal -0.8298763218506245 -0.4791293178145542 0.2859027583676631
    outer loop
      vertex -15 -6.678430279628044 -8.065147258635674
      vertex -14.966814395936527 -10.874027167410754 -15
      vertex -7.685661446562001 -5.583959896778496 15
    endloop
  endfacet
  facet normal -0.5632502939046975 -0.7752475212304993 0.2859027583676631
    outer loop
      vertex -10.655932799028905 -15 -15
      vertex -6.356740760409153 -7.059875842035244 15
      vertex -12.378916217638876 -13.748179271331791 -15
    endloop
  endfacet
  facet normal -0.5632502939046967 -0.7752475212304999 0.28590275836766316
    outer loop
      vertex -10.655932799028905 -15 -15
      vertex -8.660254037844387 -15 -11.068360252295916
      vertex -4.75 -8.227241335952167 15
    endloop
  endfacet
  facet normal -0.7121249465367998 -0.6412001819071184 0.28590275836766316
    outer loop
      vertex -14.966814395936527 -10.874027167410754 -15
      vertex -12.378916217638876 -13.748179271331791 -15
      vertex -6.356740760409153 -7.059875842035244 15
    endloop
  endfacet
  facet normal -0.9113581197111671 -0.2961182034159457 0.28590275836766343
    outer loop
      vertex -15 -3.7190240494880187 -5
      vertex -15 -6.678430279628044 -8.065147258635674
      vertex -14.583785683277988 -5 -5
    endloop
  endfacet
  facet normal -0.9113581197111674 -0.2961182034159452 0.2859027583676631
    outer loop
      vertex -14.583785683277988 -5 -5
      vertex -15 -6.678430279628044 -8.065147258635674
      vertex -11.446679070805242 -5 5
    endloop
  endfacet
  facet normal -0.3897589006541812 -0.8754128238257681 0.2859027583676637
    outer loop
      vertex -5 -14.647772643257271 -5
      vertex -8.660254037844387 -15 -11.068360252295916
      vertex -4.873795443493595 -15 -5.906444545246698
    endloop
  endfacet
  facet normal -0.3897589006541799 -0.8754128238257688 0.28590275836766305
    outer loop
      vertex -5 -14.647772643257271 -5
      vertex -5 -11.381853403941152 5
      vertex -8.660254037844387 -15 -11.068360252295916
    endloop
  endfacet
  facet normal -0.3897589006541856 -0.8754128238257666 0.2859027583676625
    outer loop
      vertex -5 -14.647772643257271 -5
      vertex -4.873795443493595 -15 -5.906444545246698
      vertex -4.789763412811685 -14.74137600257488 -5
    endloop
  endfacet
  facet normal -0.1992331731743672 -0.9373183853230633 0.28590275836766266
    outer loop
      vertex -3.5730331674917855 -15 -5
      vertex -4.789763412811685 -14.74137600257488 -5
      vertex -4.873795443493595 -15 -5.906444545246698
    endloop
  endfacet
  facet normal 0 0 -1
    outer loop
      vertex -5 -5 -20
      vertex -7.5 -7.5 -20
      vertex -5 5 -20
    endloop
  endfacet
  facet normal 0 0 -1
    outer loop
      vertex -5 -5 -20
      vertex 7.5 -7.5 -20
      vertex -7.5 -7.5 -20
    endloop
  endfacet
  facet normal -0.7121249465367994 -0.6412001819071187 0.2859027583676631
    outer loop
      vertex -7.685661446562001 -5.583959896778496 15
      vertex -14.966814395936527 -10.874027167410754 -15
      vertex -6.356740760409153 -7.059875842035244 15
    endloop
  endfacet
  facet normal -0.9113581197111665 -0.29611820341594786 0.2859027583676635
    outer loop
      vertex -11.446679070805242 -5 5
      vertex -15 -6.678430279628044 -8.065147258635674
      vertex -8.678681847604707 -3.8639981092201023 15
    endloop
  endfacet
  facet normal -0.9530091945588772 -0.10016530259526882 0.28590275836766305
    outer loop
      vertex -12.5 0 5
      vertex -12.226845009172571 -2.598896135221992 5
      vertex -9.292402206971156 -1.9751610627687142 15
    endloop
  endfacet
  facet normal -0.829876321850625 -0.47912931781455353 0.2859027583676632
    outer loop
      vertex -15 -6.678430279628044 -8.065147258635674
      vertex -7.685661446562001 -5.583959896778496 15
      vertex -8.678681847604707 -3.8639981092201023 15
    endloop
  endfacet
  facet normal -0.9113581197111672 -0.2961182034159456 0.28590275836766316
    outer loop
      vertex -11.446679070805242 -5 5
      vertex -8.678681847604707 -3.8639981092201023 15
      vertex -12.226845009172571 -2.598896135221992 5
    endloop
  endfacet
  facet normal -0.9113581197111669 -0.29611820341594663 0.28590275836766293
    outer loop
      vertex -9.292402206971156 -1.9751610627687142 15
      vertex -12.226845009172571 -2.598896135221992 5
      vertex -8.678681847604707 -3.8639981092201023 15
    endloop
  endfacet
  facet normal -0.9530091945588772 -0.10016530259526812 0.28590275836766316
    outer loop
      vertex -12.5 0 5
      vertex -9.292402206971156 -1.9751610627687142 15
      vertex -9.5 0 15
    endloop
  endfacet
  facet normal -0.3897589006541801 -0.875412823825769 0.2859027583676631
    outer loop
      vertex -5 -11.381853403941152 5
      vertex -4.75 -8.227241335952167 15
      vertex -8.660254037844387 -15 -11.068360252295916
    endloop
  endfacet
  facet normal -0.5632502939046973 -0.7752475212304996 0.2859027583676631
    outer loop
      vertex -6.356740760409153 -7.059875842035244 15
      vertex -10.655932799028905 -15 -15
      vertex -4.75 -8.227241335952167 15
    endloop
  endfacet
  facet normal -0.3897589006541804 -0.8754128238257687 0.28590275836766316
    outer loop
      vertex -5 -11.381853403941152 5
      vertex -3.8627124296868427 -11.888206453689419 5
      vertex -2.9356614465620003 -9.035036904803958 15
    endloop
  endfacet
  facet normal -0.3897589006541799 -0.8754128238257689 0.28590275836766316
    outer loop
      vertex -5 -11.381853403941152 5
      vertex -2.9356614465620003 -9.035036904803958 15
      vertex -4.75 -8.227241335952167 15
    endloop
  endfacet
  facet normal -0.19923317317436753 -0.9373183853230631 0.28590275836766316
    outer loop
      vertex -3.8627124296868427 -11.888206453689419 5
      vertex -1.3066057908456683 -12.431523692103417 5
      vertex -0.993020401042708 -9.447958005998597 15
    endloop
  endfacet
  facet normal -0.19923317317436792 -0.9373183853230629 0.2859027583676632
    outer loop
      vertex -3.8627124296868427 -11.888206453689419 5
      vertex -0.993020401042708 -9.447958005998597 15
      vertex -2.9356614465620003 -9.035036904803958 15
    endloop
  endfacet
  facet normal 0 -0.958258635629109 0.2859027583676631
    outer loop
      vertex -0.993020401042708 -9.447958005998597 15
      vertex -1.3066057908456683 -12.431523692103417 5
      vertex 0.993020401042708 -9.447958005998597 15
    endloop
  endfacet
  facet normal -0.9113581197111671 0.2961182034159457 0.28590275836766343
    outer loop
      vertex -15 3.7190240494880187 -5
      vertex -14.583785683277988 5 -5
      vertex -15 6.678430279628044 -8.065147258635674
    endloop
  endfacet
  facet normal -0.9113581197111674 0.2961182034159453 0.2859027583676631
    outer loop
      vertex -11.446679070805242 5 5
      vertex -15 6.678430279628044 -8.065147258635674
      vertex -14.583785683277988 5 -5
    endloop
  endfacet
  facet normal -0.8298763218506245 0.47912931781455426 0.28590275836766316
    outer loop
      vertex -15 10.816548015092955 -15
      vertex -15 6.678430279628044 -8.065147258635674
      vertex -8.678681847604707 3.863998109220103 15
    endloop
  endfacet
  facet normal -0.8298763218506225 0.4791293178145577 0.28590275836766327
    outer loop
      vertex -15 10.816548015092955 -15
      vertex -7.685661446562001 5.583959896778495 15
      vertex -14.966814395936527 10.874027167410754 -15
    endloop
  endfacet
  facet normal -0.7121249465368001 0.6412001819071179 0.28590275836766316
    outer loop
      vertex -12.378916217638878 13.748179271331793 -15
      vertex -14.966814395936527 10.874027167410754 -15
      vertex -7.685661446562001 5.583959896778495 15
    endloop
  endfacet
  facet normal -0.5632502939046965 0.7752475212305 0.2859027583676631
    outer loop
      vertex -10.655932799028905 15 -15
      vertex -12.378916217638878 13.748179271331793 -15
      vertex -6.356740760409153 7.059875842035245 15
    endloop
  endfacet
  facet normal -0.5632502939046967 0.7752475212304998 0.28590275836766316
    outer loop
      vertex -10.655932799028905 15 -15
      vertex -6.356740760409153 7.059875842035245 15
      vertex -8.660254037844387 15 -11.068360252295916
    endloop
  endfacet
  facet normal 0 0 -1
    outer loop
      vertex -5 5 -20
      vertex -7.5 -7.5 -20
      vertex -7.5 7.5 -20
    endloop
  endfacet
  facet normal 0 0 -1
    outer loop
      vertex -5 5 -20
      vertex -7.5 7.5 -20
      vertex 5 5 -20
    endloop
  endfacet
  facet normal -0.3897589006541812 0.8754128238257681 0.2859027583676637
    outer loop
      vertex -5 14.647772643257271 -5
      vertex -4.873795443493595 15 -5.906444545246698
      vertex -8.660254037844387 15 -11.068360252295916
    endloop
  endfacet
  facet normal -0.3897589006541799 0.8754128238257688 0.28590275836766305
    outer loop
      vertex -5 14.647772643257271 -5
      vertex -8.660254037844387 15 -11.068360252295916
      vertex -5 11.381853403941152 5
    endloop
  endfacet
  facet normal -0.3897589006541856 0.8754128238257666 0.2859027583676625
    outer loop
      vertex -5 14.647772643257271 -5
      vertex -4.789763412811685 14.74137600257488 -5
      vertex -4.873795443493595 15 -5.906444545246698
    endloop
  endfacet
  facet normal -0.1992331731743672 0.9373183853230633 0.28590275836766266
    outer loop
      vertex -3.5730331674917855 15 -5
      vertex -4.873795443493595 15 -5.906444545246698
      vertex -4.789763412811685 14.74137600257488 -5
    endloop
  endfacet
  facet normal -0.9113581197111668 0.2961182034159469 0.2859027583676633
    outer loop
      vertex -11.446679070805242 5 5
      vertex -8.678681847604707 3.863998109220103 15
      vertex -15 6.678430279628044 -8.065147258635674
    endloop
  endfacet
  facet normal -0.8298763218506249 0.479129317814554 0.28590275836766327
    outer loop
      vertex -15 10.816548015092955 -15
      vertex -8.678681847604707 3.863998109220103 15
      vertex -7.685661446562001 5.583959896778495 15
    endloop
  endfacet
  facet normal -0.9530091945588772 0.10016530259526882 0.28590275836766316
    outer loop
      vertex -12.226845009172571 2.598896135221992 5
      vertex -12.5 0 5
      vertex -9.5 0 15
    endloop
  endfacet
  facet normal -0.9113581197111673 0.29611820341594564 0.28590275836766316
    outer loop
      vertex -11.446679070805242 5 5
      vertex -12.226845009172571 2.598896135221992 5
      vertex -9.292402206971154 1.9751610627687142 15
    endloop
  endfacet
  facet normal -0.9530091945588771 0.10016530259526879 0.2859027583676631
    outer loop
      vertex -9.5 0 15
      vertex -9.292402206971154 1.9751610627687142 15
      vertex -12.226845009172571 2.598896135221992 5
    endloop
  endfacet
  facet normal -0.9113581197111671 0.29611820341594586 0.2859027583676632
    outer loop
      vertex -11.446679070805242 5 5
      vertex -9.292402206971154 1.9751610627687142 15
      vertex -8.678681847604707 3.863998109220103 15
    endloop
  endfacet
  facet normal -0.7121249465367998 0.6412001819071184 0.2859027583676632
    outer loop
      vertex -7.685661446562001 5.583959896778495 15
      vertex -6.356740760409153 7.059875842035245 15
      vertex -12.378916217638878 13.748179271331793 -15
    endloop
  endfacet
  facet normal -0.3897589006541801 0.875412823825769 0.2859027583676631
    outer loop
      vertex -5 11.381853403941152 5
      vertex -8.660254037844387 15 -11.068360252295916
      vertex -4.75 8.227241335952167 15
    endloop
  endfacet
  facet normal -0.563250293904697 0.7752475212304997 0.28590275836766305
    outer loop
      vertex -8.660254037844387 15 -11.068360252295916
      vertex -6.356740760409153 7.059875842035245 15
      vertex -4.75 8.227241335952167 15
    endloop
  endfacet
  facet normal -0.38975890065418056 0.8754128238257688 0.2859027583676631
    outer loop
      vertex -5 11.381853403941152 5
      vertex -4.75 8.227241335952167 15
      vertex -3.862712429686843 11.888206453689419 5
    endloop
  endfacet
  facet normal -0.3897589006541799 0.8754128238257689 0.2859027583676632
    outer loop
      vertex -4.75 8.227241335952167 15
      vertex -2.9356614465620003 9.035036904803958 15
      vertex -3.862712429686843 11.888206453689419 5
    endloop
  endfacet
  facet normal -0.19923317317436753 0.9373183853230631 0.2859027583676632
    outer loop
      vertex -1.3066057908456685 12.431523692103417 5
      vertex -3.862712429686843 11.888206453689419 5
      vertex -2.9356614465620003 9.035036904803958 15
    endloop
  endfacet
  facet normal -0.19923317317436792 0.9373183853230629 0.2859027583676631
    outer loop
      vertex -0.993020401042708 9.447958005998597 15
      vertex -1.3066057908456685 12.431523692103417 5
      vertex -2.9356614465620003 9.035036904803958 15
    endloop
  endfacet
  facet normal 0 0.9582586356291091 0.2859027583676631
    outer loop
      vertex 1.3066057908456683 12.431523692103417 5
      vertex -1.3066057908456685 12.431523692103417 5
      vertex -0.993020401042708 9.447958005998597 15
    endloop
  endfacet
  facet normal 0.3897589006541812 -0.8754128238257681 0.2859027583676637
    outer loop
      vertex 5 -14.647772643257271 -5
      vertex 4.873795443493595 -15 -5.906444545246698
      vertex 8.660254037844387 -15 -11.068360252295916
    endloop
  endfacet
  facet normal 0.1992331731743672 -0.9373183853230633 0.28590275836766266
    outer loop
      vertex 3.5730331674917855 -15 -5
      vertex 4.873795443493595 -15 -5.906444545246698
      vertex 4.789763412811685 -14.74137600257488 -5
    endloop
  endfacet
  facet normal 0.3897589006541856 -0.8754128238257666 0.2859027583676625
    outer loop
      vertex 5 -14.647772643257271 -5
      vertex 4.789763412811685 -14.74137600257488 -5
      vertex 4.873795443493595 -15 -5.906444545246698
    endloop
  endfacet
  facet normal 0.3897589006541799 -0.8754128238257688 0.28590275836766305
    outer loop
      vertex 5 -14.647772643257271 -5
      vertex 8.660254037844387 -15 -11.068360252295916
      vertex 5 -11.381853403941152 5
    endloop
  endfacet
  facet normal 0 0 -1
    outer loop
      vertex 5 -5 -20
      vertex 7.5 -7.5 -20
      vertex -5 -5 -20
    endloop
  endfacet
  facet normal 0 0 -1
    outer loop
      vertex 5 -5 -20
      vertex 7.5 7.5 -20
      vertex 7.5 -7.5 -20
    endloop
  endfacet
  facet normal 0.5632502939046967 -0.7752475212304998 0.28590275836766316
    outer loop
      vertex 10.655932799028905 -15 -15
      vertex 6.356740760409153 -7.059875842035245 15
      vertex 8.660254037844387 -15 -11.068360252295916
    endloop
  endfacet
  facet normal 0.5632502939046965 -0.7752475212305 0.2859027583676631
    outer loop
      vertex 10.655932799028905 -15 -15
      vertex 12.378916217638878 -13.748179271331793 -15
      vertex 6.356740760409153 -7.059875842035245 15
    endloop
  endfacet
  facet normal 0.7121249465368001 -0.6412001819071179 0.28590275836766316
    outer loop
      vertex 12.378916217638878 -13.748179271331793 -15
      vertex 14.966814395936527 -10.874027167410754 -15
      vertex 7.685661446562001 -5.583959896778495 15
    endloop
  endfacet
  facet normal 0.8298763218506225 -0.4791293178145577 0.28590275836766327
    outer loop
      vertex 15 -10.816548015092955 -15
      vertex 7.685661446562001 -5.583959896778495 15
      vertex 14.966814395936527 -10.874027167410754 -15
    endloop
  endfacet
  facet normal 0.8298763218506245 -0.47912931781455426 0.28590275836766316
    outer loop
      vertex 15 -10.816548015092955 -15
      vertex 15 -6.678430279628044 -8.065147258635674
      vertex 8.678681847604707 -3.863998109220103 15
    endloop
  endfacet
  facet normal 0.9113581197111671 -0.2961182034159457 0.28590275836766343
    outer loop
      vertex 14.583785683277988 -5 -5
      vertex 15 -6.678430279628044 -8.065147258635674
      vertex 15 -3.7190240494880187 -5
    endloop
  endfacet
  facet normal 0.9113581197111674 -0.2961182034159452 0.2859027583676631
    outer loop
      vertex 14.583785683277988 -5 -5
      vertex 11.446679070805242 -5 5
      vertex 15 -6.678430279628044 -8.065147258635674
    endloop
  endfacet
  facet normal 0.3897589006541801 -0.875412823825769 0.2859027583676631
    outer loop
      vertex 5 -11.381853403941152 5
      vertex 8.660254037844387 -15 -11.068360252295916
      vertex 4.75 -8.227241335952167 15
    endloop
  endfacet
  facet normal 0 -0.9582586356291091 0.2859027583676631
    outer loop
      vertex -1.3066057908456683 -12.431523692103417 5
      vertex 1.3066057908456685 -12.431523692103417 5
      vertex 0.993020401042708 -9.447958005998597 15
    endloop
  endfacet
  facet normal 0.19923317317436753 -0.9373183853230631 0.2859027583676632
    outer loop
      vertex 1.3066057908456685 -12.431523692103417 5
      vertex 3.862712429686843 -11.888206453689419 5
      vertex 2.9356614465620003 -9.035036904803958 15
    endloop
  endfacet
  facet normal 0.19923317317436792 -0.9373183853230629 0.2859027583676631
    outer loop
      vertex 0.993020401042708 -9.447958005998597 15
      vertex 1.3066057908456685 -12.431523692103417 5
      vertex 2.9356614465620003 -9.035036904803958 15
    endloop
  endfacet
  facet normal 0.38975890065418056 -0.8754128238257688 0.2859027583676631
    outer loop
      vertex 5 -11.381853403941152 5
      vertex 4.75 -8.227241335952167 15
      vertex 3.862712429686843 -11.888206453689419 5
    endloop
  endfacet
  facet normal 0.563250293904697 -0.7752475212304997 0.28590275836766305
    outer loop
      vertex 8.660254037844387 -15 -11.068360252295916
      vertex 6.356740760409153 -7.059875842035245 15
      vertex 4.75 -8.227241335952167 15
    endloop
  endfacet
  facet normal 0.3897589006541799 -0.8754128238257689 0.2859027583676632
    outer loop
      vertex 4.75 -8.227241335952167 15
      vertex 2.9356614465620003 -9.035036904803958 15
      vertex 3.862712429686843 -11.888206453689419 5
    endloop
  endfacet
  facet normal 0.7121249465367998 -0.6412001819071184 0.2859027583676632
    outer loop
      vertex 7.685661446562001 -5.583959896778495 15
      vertex 6.356740760409153 -7.059875842035245 15
      vertex 12.378916217638878 -13.748179271331793 -15
    endloop
  endfacet
  facet normal 0.8298763218506249 -0.479129317814554 0.28590275836766327
    outer loop
      vertex 15 -10.816548015092955 -15
      vertex 8.678681847604707 -3.863998109220103 15
      vertex 7.685661446562001 -5.583959896778495 15
    endloop
  endfacet
  facet normal 0.9113581197111668 -0.2961182034159469 0.2859027583676633
    outer loop
      vertex 11.446679070805242 -5 5
      vertex 8.678681847604707 -3.863998109220103 15
      vertex 15 -6.678430279628044 -8.065147258635674
    endloop
  endfacet
  facet normal 0.9113581197111673 -0.29611820341594564 0.28590275836766316
    outer loop
      vertex 11.446679070805242 -5 5
      vertex 12.226845009172571 -2.598896135221992 5
      vertex 9.292402206971154 -1.9751610627687142 15
    endloop
  endfacet
  facet normal 0.9113581197111671 -0.29611820341594586 0.2859027583676632
    outer loop
      vertex 11.446679070805242 -5 5
      vertex 9.292402206971154 -1.9751610627687142 15
      vertex 8.678681847604707 -3.863998109220103 15
    endloop
  endfacet
  facet normal 0.9530091945588771 -0.10016530259526879 0.28590275836766316
    outer loop
      vertex 12.226845009172571 -2.598896135221992 5
      vertex 9.5 0 15
      vertex 9.292402206971154 -1.9751610627687142 15
    endloop
  endfacet
  facet normal 0.9530091945588772 -0.10016530259526882 0.28590275836766316
    outer loop
      vertex 12.226845009172571 -2.598896135221992 5
      vertex 12.5 0 5
      vertex 9.5 0 15
    endloop
  endfacet
  facet normal 0 0 -1
    outer loop
      vertex 5 5 -20
      vertex -7.5 7.5 -20
      vertex 7.5 7.5 -20
    endloop
  endfacet
  facet normal 0 0 -1
    outer loop
      vertex 5 -5 -20
      vertex 5 5 -20
      vertex 7.5 7.5 -20
    endloop
  endfacet
  facet normal 0.3897589006541812 0.8754128238257681 0.2859027583676637
    outer loop
      vertex 5 14.647772643257271 -5
      vertex 8.660254037844387 15 -11.068360252295916
      vertex 4.873795443493595 15 -5.906444545246698
    endloop
  endfacet
  facet normal 0.1992331731743672 0.9373183853230633 0.28590275836766266
    outer loop
      vertex 3.5730331674917855 15 -5
      vertex 4.789763412811685 14.74137600257488 -5
      vertex 4.873795443493595 15 -5.906444545246698
    endloop
  endfacet
  facet normal 0.3897589006541856 0.8754128238257666 0.2859027583676625
    outer loop
      vertex 5 14.647772643257271 -5
      vertex 4.873795443493595 15 -5.906444545246698
      vertex 4.789763412811685 14.74137600257488 -5
    endloop
  endfacet
  facet normal 0.3897589006541799 0.8754128238257688 0.28590275836766305
    outer loop
      vertex 5 14.647772643257271 -5
      vertex 5 11.381853403941152 5
      vertex 8.660254037844387 15 -11.068360252295916
    endloop
  endfacet
  facet normal 0.9113581197111671 0.2961182034159457 0.28590275836766343
    outer loop
      vertex 14.583785683277988 5 -5
      vertex 15 3.7190240494880187 -5
      vertex 15 6.678430279628044 -8.065147258635674
    endloop
  endfacet
  facet normal 0.9113581197111674 0.2961182034159452 0.2859027583676631
    outer loop
      vertex 14.583785683277988 5 -5
      vertex 15 6.678430279628044 -8.065147258635674
      vertex 11.446679070805242 5 5
    endloop
  endfacet
  facet normal 0.8298763218506221 0.4791293178145575 0.2859027583676651
    outer loop
      vertex 15 10.816548015092955 -15
      vertex 14.966814395936527 10.874027167410754 -15
      vertex 15 6.678430279628044 -8.065147258635674
    endloop
  endfacet
  facet normal 0.7121249465367998 0.6412001819071184 0.28590275836766316
    outer loop
      vertex 14.966814395936527 10.874027167410754 -15
      vertex 12.378916217638876 13.748179271331791 -15
      vertex 6.356740760409153 7.059875842035244 15
    endloop
  endfacet
  facet normal 0.5632502939046967 0.7752475212304999 0.28590275836766316
    outer loop
      vertex 10.655932799028905 15 -15
      vertex 8.660254037844387 15 -11.068360252295916
      vertex 4.75 8.227241335952167 15
    endloop
  endfacet
  facet normal 0.5632502939046975 0.7752475212304993 0.2859027583676631
    outer loop
      vertex 10.655932799028905 15 -15
      vertex 6.356740760409153 7.059875842035244 15
      vertex 12.378916217638876 13.748179271331791 -15
    endloop
  endfacet
  facet normal 0.8298763218506245 0.4791293178145542 0.2859027583676631
    outer loop
      vertex 15 6.678430279628044 -8.065147258635674
      vertex 14.966814395936527 10.874027167410754 -15
      vertex 7.685661446562001 5.583959896778496 15
    endloop
  endfacet
  facet normal 0.563250293904697 0.7752475212304997 0.2859027583676632
    outer loop
      vertex 10.655932799028905 15 -15
      vertex 4.75 8.227241335952167 15
      vertex 6.356740760409153 7.059875842035244 15
    endloop
  endfacet
  facet normal 0.3897589006541801 0.875412823825769 0.2859027583676631
    outer loop
      vertex 5 11.381853403941152 5
      vertex 4.75 8.227241335952167 15
      vertex 8.660254037844387 15 -11.068360252295916
    endloop
  endfacet
  facet normal 0 0.958258635629109 0.2859027583676631
    outer loop
      vertex 1.3066057908456683 12.431523692103417 5
      vertex -0.993020401042708 9.447958005998597 15
      vertex 0.993020401042708 9.447958005998597 15
    endloop
  endfacet
  facet normal 0.19923317317436792 0.9373183853230629 0.2859027583676632
    outer loop
      vertex 3.8627124296868427 11.888206453689419 5
      vertex 0.993020401042708 9.447958005998597 15
      vertex 2.9356614465620003 9.035036904803958 15
    endloop
  endfacet
  facet normal 0.19923317317436753 0.9373183853230631 0.28590275836766316
    outer loop
      vertex 3.8627124296868427 11.888206453689419 5
      vertex 1.3066057908456683 12.431523692103417 5
      vertex 0.993020401042708 9.447958005998597 15
    endloop
  endfacet
  facet normal 0.3897589006541804 0.8754128238257687 0.28590275836766316
    outer loop
      vertex 5 11.381853403941152 5
      vertex 3.8627124296868427 11.888206453689419 5
      vertex 2.9356614465620003 9.035036904803958 15
    endloop
  endfacet
  facet normal 0.3897589006541799 0.8754128238257689 0.28590275836766316
    outer loop
      vertex 5 11.381853403941152 5
      vertex 2.9356614465620003 9.035036904803958 15
      vertex 4.75 8.227241335952167 15
    endloop
  endfacet
  facet normal 0.9113581197111665 0.29611820341594786 0.2859027583676635
    outer loop
      vertex 11.446679070805242 5 5
      vertex 15 6.678430279628044 -8.065147258635674
      vertex 8.678681847604707 3.8639981092201023 15
    endloop
  endfacet
  facet normal 0.9530091945588772 0.10016530259526794 0.28590275836766316
    outer loop
      vertex 9.5 0 15
      vertex 12.5 0 5
      vertex 9.292402206971156 1.9751610627687142 15
    endloop
  endfacet
  facet normal 0.9113581197111669 0.29611820341594663 0.28590275836766293
    outer loop
      vertex 9.292402206971156 1.9751610627687142 15
      vertex 12.226845009172571 2.598896135221992 5
      vertex 8.678681847604707 3.8639981092201023 15
    endloop
  endfacet
  facet normal 0.9113581197111672 0.2961182034159456 0.28590275836766316
    outer loop
      vertex 11.446679070805242 5 5
      vertex 8.678681847604707 3.8639981092201023 15
      vertex 12.226845009172571 2.598896135221992 5
    endloop
  endfacet
  facet normal 0.829876321850625 0.47912931781455353 0.2859027583676632
    outer loop
      vertex 15 6.678430279628044 -8.065147258635674
      vertex 7.685661446562001 5.583959896778496 15
      vertex 8.678681847604707 3.8639981092201023 15
    endloop
  endfacet
  facet normal 0.9530091945588772 0.10016530259526882 0.28590275836766305
    outer loop
      vertex 12.5 0 5
      vertex 12.226845009172571 2.598896135221992 5
      vertex 9.292402206971156 1.9751610627687142 15
    endloop
  endfacet
  facet normal 0.7121249465367994 0.6412001819071187 0.2859027583676631
    outer loop
      vertex 7.685661446562001 5.583959896778496 15
      vertex 14.966814395936527 10.874027167410754 -15
      vertex 6.356740760409153 7.059875842035244 15
    endloop
  endfacet
endsolid OpenSCAD_Model
