solid OpenSCAD_Model
  facet normal 1 0 0
    outer loop
      vertex 26 -3 3
      vertex 26 3 -3
      vertex 26 3 3
    endloop
  endfacet
  facet normal 1 0 0
    outer loop
      vertex 26 3 -3
      vertex 26 -3 3
      vertex 26 -3 -3
    endloop
  endfacet
  facet normal 0 0 1
    outer loop
      vertex 24 3 3
      vertex 26 -3 3
      vertex 26 3 3
    endloop
  endfacet
  facet normal 0 0 1
    outer loop
      vertex 26 -3 3
      vertex 24 3 3
      vertex 24 -3 3
    endloop
  endfacet
  facet normal 0 0 -1
    outer loop
      vertex 24 -3 -3
      vertex 26 3 -3
      vertex 26 -3 -3
    endloop
  endfacet
  facet normal 0 0 -1
    outer loop
      vertex 26 3 -3
      vertex 24 -3 -3
      vertex 24 3 -3
    endloop
  endfacet
  facet normal -1 0 0
    outer loop
      vertex 24 -3 -3
      vertex 24 3 3
      vertex 24 3 -3
    endloop
  endfacet
  facet normal -1 0 0
    outer loop
      vertex 24 3 3
      vertex 24 -3 -3
      vertex 24 -3 3
    endloop
  endfacet
  facet normal 0 1 0
    outer loop
      vertex 26 3 -3
      vertex 24 3 3
      vertex 26 3 3
    endloop
  endfacet
  facet normal 0 1 0
    outer loop
      vertex 24 3 3
      vertex 26 3 -3
      vertex 24 3 -3
    endloop
  endfacet
  facet normal 0 -1 0
    outer loop
      vertex 24 -3 -3
      vertex 26 -3 3
      vertex 24 -3 3
    endloop
  endfacet
  facet normal 0 -1 0
    outer loop
      vertex 26 -3 3
      vertex 24 -3 -3
      vertex 26 -3 -3
    endloop
  endfacet
  facet normal 0 0 1
    outer loop
      vertex 24.337614059448242 9.62707233428955 3
      vertex 23.958675384521484 3.3138790130615234 3
      vertex 25.890527725219727 3.831517219543457 3
    endloop
  endfacet
  facet normal 0 0 1
    outer loop
      vertex 23.958675384521484 3.3138790130615234 3
      vertex 24.337614059448242 9.62707233428955 3
      vertex 22.40576171875 9.109434127807617 3
    endloop
  endfacet
  facet normal 0.9659258532438462 0.25881894450589926 0
    outer loop
      vertex 25.890527725219727 3.831517219543457 3
      vertex 24.337614059448242 9.62707233428955 -3
      vertex 24.337614059448242 9.62707233428955 3
    endloop
  endfacet
  facet normal 0.9659258532438462 0.25881894450589926 0
    outer loop
      vertex 24.337614059448242 9.62707233428955 -3
      vertex 25.890527725219727 3.831517219543457 3
      vertex 25.890527725219727 3.831517219543457 -3
    endloop
  endfacet
  facet normal -0.9659258532438462 -0.25881894450589926 0
    outer loop
      vertex 23.958675384521484 3.3138790130615234 -3
      vertex 22.40576171875 9.109434127807617 3
      vertex 22.40576171875 9.109434127807617 -3
    endloop
  endfacet
  facet normal -0.9659258532438462 -0.25881894450589926 0
    outer loop
      vertex 22.40576171875 9.109434127807617 3
      vertex 23.958675384521484 3.3138790130615234 -3
      vertex 23.958675384521484 3.3138790130615234 3
    endloop
  endfacet
  facet normal -0.2588190133314271 0.9659258348021067 0
    outer loop
      vertex 24.337614059448242 9.62707233428955 -3
      vertex 22.40576171875 9.109434127807617 3
      vertex 24.337614059448242 9.62707233428955 3
    endloop
  endfacet
  facet normal -0.2588190133314271 0.9659258348021067 0
    outer loop
      vertex 22.40576171875 9.109434127807617 3
      vertex 24.337614059448242 9.62707233428955 -3
      vertex 22.40576171875 9.109434127807617 -3
    endloop
  endfacet
  facet normal 0 0 -1
    outer loop
      vertex 23.958675384521484 3.3138790130615234 -3
      vertex 24.337614059448242 9.62707233428955 -3
      vertex 25.890527725219727 3.831517219543457 -3
    endloop
  endfacet
  facet normal 0 0 -1
    outer loop
      vertex 24.337614059448242 9.62707233428955 -3
      vertex 23.958675384521484 3.3138790130615234 -3
      vertex 22.40576171875 9.109434127807617 -3
    endloop
  endfacet
  facet normal 0.2588190133314271 -0.9659258348021067 0
    outer loop
      vertex 23.958675384521484 3.3138790130615234 -3
      vertex 25.890527725219727 3.831517219543457 3
      vertex 23.958675384521484 3.3138790130615234 3
    endloop
  endfacet
  facet normal 0.2588190133314271 -0.9659258348021067 0
    outer loop
      vertex 25.890527725219727 3.831517219543457 3
      vertex 23.958675384521484 3.3138790130615234 -3
      vertex 25.890527725219727 3.831517219543457 -3
    endloop
  endfacet
  facet normal 0 0 1
    outer loop
      vertex 21.016658782958984 15.598075866699219 3
      vertex 22.284608840942383 9.401923179626465 3
      vertex 24.016658782958984 10.401923179626465 3
    endloop
  endfacet
  facet normal 0 0 1
    outer loop
      vertex 22.284608840942383 9.401923179626465 3
      vertex 21.016658782958984 15.598075866699219 3
      vertex 19.284608840942383 14.598075866699219 3
    endloop
  endfacet
  facet normal -0.8660254147996932 -0.49999998092101916 0
    outer loop
      vertex 22.284608840942383 9.401923179626465 -3
      vertex 19.284608840942383 14.598075866699219 3
      vertex 19.284608840942383 14.598075866699219 -3
    endloop
  endfacet
  facet normal -0.8660254147996932 -0.49999998092101916 0
    outer loop
      vertex 19.284608840942383 14.598075866699219 3
      vertex 22.284608840942383 9.401923179626465 -3
      vertex 22.284608840942383 9.401923179626465 3
    endloop
  endfacet
  facet normal -0.5000001873976233 0.8660252955903432 0
    outer loop
      vertex 21.016658782958984 15.598075866699219 -3
      vertex 19.284608840942383 14.598075866699219 3
      vertex 21.016658782958984 15.598075866699219 3
    endloop
  endfacet
  facet normal -0.5000001873976233 0.8660252955903432 0
    outer loop
      vertex 19.284608840942383 14.598075866699219 3
      vertex 21.016658782958984 15.598075866699219 -3
      vertex 19.284608840942383 14.598075866699219 -3
    endloop
  endfacet
  facet normal 0 0 -1
    outer loop
      vertex 22.284608840942383 9.401923179626465 -3
      vertex 21.016658782958984 15.598075866699219 -3
      vertex 24.016658782958984 10.401923179626465 -3
    endloop
  endfacet
  facet normal 0 0 -1
    outer loop
      vertex 21.016658782958984 15.598075866699219 -3
      vertex 22.284608840942383 9.401923179626465 -3
      vertex 19.284608840942383 14.598075866699219 -3
    endloop
  endfacet
  facet normal 0.5000001873976233 -0.8660252955903432 0
    outer loop
      vertex 22.284608840942383 9.401923179626465 -3
      vertex 24.016658782958984 10.401923179626465 3
      vertex 22.284608840942383 9.401923179626465 3
    endloop
  endfacet
  facet normal 0.5000001873976233 -0.8660252955903432 0
    outer loop
      vertex 24.016658782958984 10.401923179626465 3
      vertex 22.284608840942383 9.401923179626465 -3
      vertex 24.016658782958984 10.401923179626465 -3
    endloop
  endfacet
  facet normal 0.8660254147996932 0.49999998092101916 0
    outer loop
      vertex 24.016658782958984 10.401923179626465 3
      vertex 21.016658782958984 15.598075866699219 -3
      vertex 21.016658782958984 15.598075866699219 3
    endloop
  endfacet
  facet normal 0.8660254147996932 0.49999998092101916 0
    outer loop
      vertex 21.016658782958984 15.598075866699219 -3
      vertex 24.016658782958984 10.401923179626465 3
      vertex 24.016658782958984 10.401923179626465 -3
    endloop
  endfacet
  facet normal 0 0 1
    outer loop
      vertex 16.26345443725586 20.50609588623047 3
      vertex 19.091882705688477 14.849242210388184 3
      vertex 20.50609588623047 16.26345443725586 3
    endloop
  endfacet
  facet normal 0 0 1
    outer loop
      vertex 19.091882705688477 14.849242210388184 3
      vertex 16.26345443725586 20.50609588623047 3
      vertex 14.849242210388184 19.091882705688477 3
    endloop
  endfacet
  facet normal -0.7071067811865475 -0.7071067811865475 0
    outer loop
      vertex 19.091882705688477 14.849242210388184 -3
      vertex 14.849242210388184 19.091882705688477 3
      vertex 14.849242210388184 19.091882705688477 -3
    endloop
  endfacet
  facet normal -0.7071067811865475 -0.7071067811865475 0
    outer loop
      vertex 14.849242210388184 19.091882705688477 3
      vertex 19.091882705688477 14.849242210388184 -3
      vertex 19.091882705688477 14.849242210388184 3
    endloop
  endfacet
  facet normal -0.7071070196052311 0.7071065427677834 0
    outer loop
      vertex 14.849242210388184 19.091882705688477 -3
      vertex 16.26345443725586 20.50609588623047 3
      vertex 16.26345443725586 20.50609588623047 -3
    endloop
  endfacet
  facet normal -0.7071070196052311 0.7071065427677834 0
    outer loop
      vertex 16.26345443725586 20.50609588623047 3
      vertex 14.849242210388184 19.091882705688477 -3
      vertex 14.849242210388184 19.091882705688477 3
    endloop
  endfacet
  facet normal 0 0 -1
    outer loop
      vertex 19.091882705688477 14.849242210388184 -3
      vertex 16.26345443725586 20.50609588623047 -3
      vertex 20.50609588623047 16.26345443725586 -3
    endloop
  endfacet
  facet normal 0 0 -1
    outer loop
      vertex 16.26345443725586 20.50609588623047 -3
      vertex 19.091882705688477 14.849242210388184 -3
      vertex 14.849242210388184 19.091882705688477 -3
    endloop
  endfacet
  facet normal 0.7071065427677834 -0.7071070196052311 0
    outer loop
      vertex 19.091882705688477 14.849242210388184 -3
      vertex 20.50609588623047 16.26345443725586 3
      vertex 19.091882705688477 14.849242210388184 3
    endloop
  endfacet
  facet normal 0.7071065427677834 -0.7071070196052311 0
    outer loop
      vertex 20.50609588623047 16.26345443725586 3
      vertex 19.091882705688477 14.849242210388184 -3
      vertex 20.50609588623047 16.26345443725586 -3
    endloop
  endfacet
  facet normal 0.7071067811865476 0.7071067811865476 0
    outer loop
      vertex 20.50609588623047 16.26345443725586 3
      vertex 16.26345443725586 20.50609588623047 -3
      vertex 16.26345443725586 20.50609588623047 3
    endloop
  endfacet
  facet normal 0.7071067811865476 0.7071067811865476 0
    outer loop
      vertex 16.26345443725586 20.50609588623047 -3
      vertex 20.50609588623047 16.26345443725586 3
      vertex 20.50609588623047 16.26345443725586 -3
    endloop
  endfacet
  facet normal 0 0 1
    outer loop
      vertex 10.401923179626465 24.016658782958984 3
      vertex 14.598075866699219 19.284608840942383 3
      vertex 15.598075866699219 21.016658782958984 3
    endloop
  endfacet
  facet normal 0 0 1
    outer loop
      vertex 14.598075866699219 19.284608840942383 3
      vertex 10.401923179626465 24.016658782958984 3
      vertex 9.401923179626465 22.284608840942383 3
    endloop
  endfacet
  facet normal -0.49999998092101916 -0.8660254147996932 0
    outer loop
      vertex 9.401923179626465 22.284608840942383 -3
      vertex 14.598075866699219 19.284608840942383 3
      vertex 9.401923179626465 22.284608840942383 3
    endloop
  endfacet
  facet normal -0.49999998092101916 -0.8660254147996932 0
    outer loop
      vertex 14.598075866699219 19.284608840942383 3
      vertex 9.401923179626465 22.284608840942383 -3
      vertex 14.598075866699219 19.284608840942383 -3
    endloop
  endfacet
  facet normal -0.8660252955903432 0.5000001873976233 0
    outer loop
      vertex 9.401923179626465 22.284608840942383 -3
      vertex 10.401923179626465 24.016658782958984 3
      vertex 10.401923179626465 24.016658782958984 -3
    endloop
  endfacet
  facet normal -0.8660252955903432 0.5000001873976233 0
    outer loop
      vertex 10.401923179626465 24.016658782958984 3
      vertex 9.401923179626465 22.284608840942383 -3
      vertex 9.401923179626465 22.284608840942383 3
    endloop
  endfacet
  facet normal 0 0 -1
    outer loop
      vertex 14.598075866699219 19.284608840942383 -3
      vertex 10.401923179626465 24.016658782958984 -3
      vertex 15.598075866699219 21.016658782958984 -3
    endloop
  endfacet
  facet normal 0 0 -1
    outer loop
      vertex 10.401923179626465 24.016658782958984 -3
      vertex 14.598075866699219 19.284608840942383 -3
      vertex 9.401923179626465 22.284608840942383 -3
    endloop
  endfacet
  facet normal 0.8660252955903432 -0.5000001873976233 0
    outer loop
      vertex 14.598075866699219 19.284608840942383 3
      vertex 15.598075866699219 21.016658782958984 -3
      vertex 15.598075866699219 21.016658782958984 3
    endloop
  endfacet
  facet normal 0.8660252955903432 -0.5000001873976233 0
    outer loop
      vertex 15.598075866699219 21.016658782958984 -3
      vertex 14.598075866699219 19.284608840942383 3
      vertex 14.598075866699219 19.284608840942383 -3
    endloop
  endfacet
  facet normal 0.49999998092101916 0.8660254147996932 0
    outer loop
      vertex 15.598075866699219 21.016658782958984 -3
      vertex 10.401923179626465 24.016658782958984 3
      vertex 15.598075866699219 21.016658782958984 3
    endloop
  endfacet
  facet normal 0.49999998092101916 0.8660254147996932 0
    outer loop
      vertex 10.401923179626465 24.016658782958984 3
      vertex 15.598075866699219 21.016658782958984 -3
      vertex 10.401923179626465 24.016658782958984 -3
    endloop
  endfacet
  facet normal 0 0 1
    outer loop
      vertex 3.831517219543457 25.890527725219727 3
      vertex 9.109434127807617 22.40576171875 3
      vertex 9.62707233428955 24.337614059448242 3
    endloop
  endfacet
  facet normal 0 0 1
    outer loop
      vertex 9.109434127807617 22.40576171875 3
      vertex 3.831517219543457 25.890527725219727 3
      vertex 3.3138790130615234 23.958675384521484 3
    endloop
  endfacet
  facet normal -0.25881894450589926 -0.9659258532438462 0
    outer loop
      vertex 3.3138790130615234 23.958675384521484 -3
      vertex 9.109434127807617 22.40576171875 3
      vertex 3.3138790130615234 23.958675384521484 3
    endloop
  endfacet
  facet normal -0.25881894450589926 -0.9659258532438462 0
    outer loop
      vertex 9.109434127807617 22.40576171875 3
      vertex 3.3138790130615234 23.958675384521484 -3
      vertex 9.109434127807617 22.40576171875 -3
    endloop
  endfacet
  facet normal -0.9659258348021067 0.2588190133314271 0
    outer loop
      vertex 3.3138790130615234 23.958675384521484 -3
      vertex 3.831517219543457 25.890527725219727 3
      vertex 3.831517219543457 25.890527725219727 -3
    endloop
  endfacet
  facet normal -0.9659258348021067 0.2588190133314271 0
    outer loop
      vertex 3.831517219543457 25.890527725219727 3
      vertex 3.3138790130615234 23.958675384521484 -3
      vertex 3.3138790130615234 23.958675384521484 3
    endloop
  endfacet
  facet normal 0 0 -1
    outer loop
      vertex 9.109434127807617 22.40576171875 -3
      vertex 3.831517219543457 25.890527725219727 -3
      vertex 9.62707233428955 24.337614059448242 -3
    endloop
  endfacet
  facet normal 0 0 -1
    outer loop
      vertex 3.831517219543457 25.890527725219727 -3
      vertex 9.109434127807617 22.40576171875 -3
      vertex 3.3138790130615234 23.958675384521484 -3
    endloop
  endfacet
  facet normal 0.9659258348021067 -0.2588190133314271 0
    outer loop
      vertex 9.109434127807617 22.40576171875 3
      vertex 9.62707233428955 24.337614059448242 -3
      vertex 9.62707233428955 24.337614059448242 3
    endloop
  endfacet
  facet normal 0.9659258348021067 -0.2588190133314271 0
    outer loop
      vertex 9.62707233428955 24.337614059448242 -3
      vertex 9.109434127807617 22.40576171875 3
      vertex 9.109434127807617 22.40576171875 -3
    endloop
  endfacet
  facet normal 0.25881894450589926 0.9659258532438462 0
    outer loop
      vertex 9.62707233428955 24.337614059448242 -3
      vertex 3.831517219543457 25.890527725219727 3
      vertex 9.62707233428955 24.337614059448242 3
    endloop
  endfacet
  facet normal 0.25881894450589926 0.9659258532438462 0
    outer loop
      vertex 3.831517219543457 25.890527725219727 3
      vertex 9.62707233428955 24.337614059448242 -3
      vertex 3.831517219543457 25.890527725219727 -3
    endloop
  endfacet
  facet normal 0 0 1
    outer loop
      vertex -3 26 3
      vertex 3 24 3
      vertex 3 26 3
    endloop
  endfacet
  facet normal 0 0 1
    outer loop
      vertex 3 24 3
      vertex -3 26 3
      vertex -3 24 3
    endloop
  endfacet
  facet normal 0 -1 0
    outer loop
      vertex -3 24 -3
      vertex 3 24 3
      vertex -3 24 3
    endloop
  endfacet
  facet normal 0 -1 0
    outer loop
      vertex 3 24 3
      vertex -3 24 -3
      vertex 3 24 -3
    endloop
  endfacet
  facet normal -1 0 0
    outer loop
      vertex -3 24 -3
      vertex -3 26 3
      vertex -3 26 -3
    endloop
  endfacet
  facet normal -1 0 0
    outer loop
      vertex -3 26 3
      vertex -3 24 -3
      vertex -3 24 3
    endloop
  endfacet
  facet normal 0 0 -1
    outer loop
      vertex -3 24 -3
      vertex 3 26 -3
      vertex 3 24 -3
    endloop
  endfacet
  facet normal 0 0 -1
    outer loop
      vertex 3 26 -3
      vertex -3 24 -3
      vertex -3 26 -3
    endloop
  endfacet
  facet normal 1 0 0
    outer loop
      vertex 3 24 3
      vertex 3 26 -3
      vertex 3 26 3
    endloop
  endfacet
  facet normal 1 0 0
    outer loop
      vertex 3 26 -3
      vertex 3 24 3
      vertex 3 24 -3
    endloop
  endfacet
  facet normal 0 1 0
    outer loop
      vertex 3 26 -3
      vertex -3 26 3
      vertex 3 26 3
    endloop
  endfacet
  facet normal 0 1 0
    outer loop
      vertex -3 26 3
      vertex 3 26 -3
      vertex -3 26 -3
    endloop
  endfacet
  facet normal 0 0 1
    outer loop
      vertex -3.831517219543457 25.890527725219727 3
      vertex -9.109434127807617 22.40576171875 3
      vertex -3.3138790130615234 23.958675384521484 3
    endloop
  endfacet
  facet normal 0 0 1
    outer loop
      vertex -9.109434127807617 22.40576171875 3
      vertex -3.831517219543457 25.890527725219727 3
      vertex -9.62707233428955 24.337614059448242 3
    endloop
  endfacet
  facet normal -0.25881894450589926 0.9659258532438462 0
    outer loop
      vertex -3.831517219543457 25.890527725219727 -3
      vertex -9.62707233428955 24.337614059448242 3
      vertex -3.831517219543457 25.890527725219727 3
    endloop
  endfacet
  facet normal -0.25881894450589926 0.9659258532438462 0
    outer loop
      vertex -9.62707233428955 24.337614059448242 3
      vertex -3.831517219543457 25.890527725219727 -3
      vertex -9.62707233428955 24.337614059448242 -3
    endloop
  endfacet
  facet normal 0.25881894450589926 -0.9659258532438462 0
    outer loop
      vertex -9.109434127807617 22.40576171875 -3
      vertex -3.3138790130615234 23.958675384521484 3
      vertex -9.109434127807617 22.40576171875 3
    endloop
  endfacet
  facet normal 0.25881894450589926 -0.9659258532438462 0
    outer loop
      vertex -3.3138790130615234 23.958675384521484 3
      vertex -9.109434127807617 22.40576171875 -3
      vertex -3.3138790130615234 23.958675384521484 -3
    endloop
  endfacet
  facet normal -0.9659258348021067 -0.2588190133314271 0
    outer loop
      vertex -9.109434127807617 22.40576171875 -3
      vertex -9.62707233428955 24.337614059448242 3
      vertex -9.62707233428955 24.337614059448242 -3
    endloop
  endfacet
  facet normal -0.9659258348021067 -0.2588190133314271 0
    outer loop
      vertex -9.62707233428955 24.337614059448242 3
      vertex -9.109434127807617 22.40576171875 -3
      vertex -9.109434127807617 22.40576171875 3
    endloop
  endfacet
  facet normal 0 0 -1
    outer loop
      vertex -9.109434127807617 22.40576171875 -3
      vertex -3.831517219543457 25.890527725219727 -3
      vertex -3.3138790130615234 23.958675384521484 -3
    endloop
  endfacet
  facet normal 0 0 -1
    outer loop
      vertex -3.831517219543457 25.890527725219727 -3
      vertex -9.109434127807617 22.40576171875 -3
      vertex -9.62707233428955 24.337614059448242 -3
    endloop
  endfacet
  facet normal 0.9659258348021067 0.2588190133314271 0
    outer loop
      vertex -3.3138790130615234 23.958675384521484 3
      vertex -3.831517219543457 25.890527725219727 -3
      vertex -3.831517219543457 25.890527725219727 3
    endloop
  endfacet
  facet normal 0.9659258348021067 0.2588190133314271 0
    outer loop
      vertex -3.831517219543457 25.890527725219727 -3
      vertex -3.3138790130615234 23.958675384521484 3
      vertex -3.3138790130615234 23.958675384521484 -3
    endloop
  endfacet
  facet normal 0 0 1
    outer loop
      vertex -10.401923179626465 24.016658782958984 3
      vertex -14.598075866699219 19.284608840942383 3
      vertex -9.401923179626465 22.284608840942383 3
    endloop
  endfacet
  facet normal 0 0 1
    outer loop
      vertex -14.598075866699219 19.284608840942383 3
      vertex -10.401923179626465 24.016658782958984 3
      vertex -15.598075866699219 21.016658782958984 3
    endloop
  endfacet
  facet normal -0.49999998092101916 0.8660254147996932 0
    outer loop
      vertex -10.401923179626465 24.016658782958984 -3
      vertex -15.598075866699219 21.016658782958984 3
      vertex -10.401923179626465 24.016658782958984 3
    endloop
  endfacet
  facet normal -0.49999998092101916 0.8660254147996932 0
    outer loop
      vertex -15.598075866699219 21.016658782958984 3
      vertex -10.401923179626465 24.016658782958984 -3
      vertex -15.598075866699219 21.016658782958984 -3
    endloop
  endfacet
  facet normal 0.49999998092101916 -0.8660254147996932 0
    outer loop
      vertex -14.598075866699219 19.284608840942383 -3
      vertex -9.401923179626465 22.284608840942383 3
      vertex -14.598075866699219 19.284608840942383 3
    endloop
  endfacet
  facet normal 0.49999998092101916 -0.8660254147996932 0
    outer loop
      vertex -9.401923179626465 22.284608840942383 3
      vertex -14.598075866699219 19.284608840942383 -3
      vertex -9.401923179626465 22.284608840942383 -3
    endloop
  endfacet
  facet normal 0 0 -1
    outer loop
      vertex -14.598075866699219 19.284608840942383 -3
      vertex -10.401923179626465 24.016658782958984 -3
      vertex -9.401923179626465 22.284608840942383 -3
    endloop
  endfacet
  facet normal 0 0 -1
    outer loop
      vertex -10.401923179626465 24.016658782958984 -3
      vertex -14.598075866699219 19.284608840942383 -3
      vertex -15.598075866699219 21.016658782958984 -3
    endloop
  endfacet
  facet normal 0.8660252955903432 0.5000001873976233 0
    outer loop
      vertex -9.401923179626465 22.284608840942383 3
      vertex -10.401923179626465 24.016658782958984 -3
      vertex -10.401923179626465 24.016658782958984 3
    endloop
  endfacet
  facet normal 0.8660252955903432 0.5000001873976233 0
    outer loop
      vertex -10.401923179626465 24.016658782958984 -3
      vertex -9.401923179626465 22.284608840942383 3
      vertex -9.401923179626465 22.284608840942383 -3
    endloop
  endfacet
  facet normal -0.8660252955903432 -0.5000001873976233 0
    outer loop
      vertex -14.598075866699219 19.284608840942383 -3
      vertex -15.598075866699219 21.016658782958984 3
      vertex -15.598075866699219 21.016658782958984 -3
    endloop
  endfacet
  facet normal -0.8660252955903432 -0.5000001873976233 0
    outer loop
      vertex -15.598075866699219 21.016658782958984 3
      vertex -14.598075866699219 19.284608840942383 -3
      vertex -14.598075866699219 19.284608840942383 3
    endloop
  endfacet
  facet normal 0 0 1
    outer loop
      vertex -16.26345443725586 20.50609588623047 3
      vertex -19.091882705688477 14.849242210388184 3
      vertex -14.849242210388184 19.091882705688477 3
    endloop
  endfacet
  facet normal 0 0 1
    outer loop
      vertex -19.091882705688477 14.849242210388184 3
      vertex -16.26345443725586 20.50609588623047 3
      vertex -20.50609588623047 16.26345443725586 3
    endloop
  endfacet
  facet normal -0.7071067811865476 0.7071067811865476 0
    outer loop
      vertex -20.50609588623047 16.26345443725586 -3
      vertex -16.26345443725586 20.50609588623047 3
      vertex -16.26345443725586 20.50609588623047 -3
    endloop
  endfacet
  facet normal -0.7071067811865476 0.7071067811865476 0
    outer loop
      vertex -16.26345443725586 20.50609588623047 3
      vertex -20.50609588623047 16.26345443725586 -3
      vertex -20.50609588623047 16.26345443725586 3
    endloop
  endfacet
  facet normal 0.7071067811865475 -0.7071067811865475 0
    outer loop
      vertex -19.091882705688477 14.849242210388184 3
      vertex -14.849242210388184 19.091882705688477 -3
      vertex -14.849242210388184 19.091882705688477 3
    endloop
  endfacet
  facet normal 0.7071067811865475 -0.7071067811865475 0
    outer loop
      vertex -14.849242210388184 19.091882705688477 -3
      vertex -19.091882705688477 14.849242210388184 3
      vertex -19.091882705688477 14.849242210388184 -3
    endloop
  endfacet
  facet normal 0 0 -1
    outer loop
      vertex -19.091882705688477 14.849242210388184 -3
      vertex -16.26345443725586 20.50609588623047 -3
      vertex -14.849242210388184 19.091882705688477 -3
    endloop
  endfacet
  facet normal 0 0 -1
    outer loop
      vertex -16.26345443725586 20.50609588623047 -3
      vertex -19.091882705688477 14.849242210388184 -3
      vertex -20.50609588623047 16.26345443725586 -3
    endloop
  endfacet
  facet normal 0.7071070196052311 0.7071065427677834 0
    outer loop
      vertex -14.849242210388184 19.091882705688477 3
      vertex -16.26345443725586 20.50609588623047 -3
      vertex -16.26345443725586 20.50609588623047 3
    endloop
  endfacet
  facet normal 0.7071070196052311 0.7071065427677834 0
    outer loop
      vertex -16.26345443725586 20.50609588623047 -3
      vertex -14.849242210388184 19.091882705688477 3
      vertex -14.849242210388184 19.091882705688477 -3
    endloop
  endfacet
  facet normal -0.7071065427677834 -0.7071070196052311 0
    outer loop
      vertex -20.50609588623047 16.26345443725586 -3
      vertex -19.091882705688477 14.849242210388184 3
      vertex -20.50609588623047 16.26345443725586 3
    endloop
  endfacet
  facet normal -0.7071065427677834 -0.7071070196052311 0
    outer loop
      vertex -19.091882705688477 14.849242210388184 3
      vertex -20.50609588623047 16.26345443725586 -3
      vertex -19.091882705688477 14.849242210388184 -3
    endloop
  endfacet
  facet normal 0 0 1
    outer loop
      vertex -21.016658782958984 15.598075866699219 3
      vertex -22.284608840942383 9.401923179626465 3
      vertex -19.284608840942383 14.598075866699219 3
    endloop
  endfacet
  facet normal 0 0 1
    outer loop
      vertex -22.284608840942383 9.401923179626465 3
      vertex -21.016658782958984 15.598075866699219 3
      vertex -24.016658782958984 10.401923179626465 3
    endloop
  endfacet
  facet normal -0.8660254147996932 0.49999998092101916 0
    outer loop
      vertex -24.016658782958984 10.401923179626465 -3
      vertex -21.016658782958984 15.598075866699219 3
      vertex -21.016658782958984 15.598075866699219 -3
    endloop
  endfacet
  facet normal -0.8660254147996932 0.49999998092101916 0
    outer loop
      vertex -21.016658782958984 15.598075866699219 3
      vertex -24.016658782958984 10.401923179626465 -3
      vertex -24.016658782958984 10.401923179626465 3
    endloop
  endfacet
  facet normal 0.8660254147996932 -0.49999998092101916 0
    outer loop
      vertex -22.284608840942383 9.401923179626465 3
      vertex -19.284608840942383 14.598075866699219 -3
      vertex -19.284608840942383 14.598075866699219 3
    endloop
  endfacet
  facet normal 0.8660254147996932 -0.49999998092101916 0
    outer loop
      vertex -19.284608840942383 14.598075866699219 -3
      vertex -22.284608840942383 9.401923179626465 3
      vertex -22.284608840942383 9.401923179626465 -3
    endloop
  endfacet
  facet normal 0 0 -1
    outer loop
      vertex -22.284608840942383 9.401923179626465 -3
      vertex -21.016658782958984 15.598075866699219 -3
      vertex -19.284608840942383 14.598075866699219 -3
    endloop
  endfacet
  facet normal 0 0 -1
    outer loop
      vertex -21.016658782958984 15.598075866699219 -3
      vertex -22.284608840942383 9.401923179626465 -3
      vertex -24.016658782958984 10.401923179626465 -3
    endloop
  endfacet
  facet normal 0.5000001873976233 0.8660252955903432 0
    outer loop
      vertex -19.284608840942383 14.598075866699219 -3
      vertex -21.016658782958984 15.598075866699219 3
      vertex -19.284608840942383 14.598075866699219 3
    endloop
  endfacet
  facet normal 0.5000001873976233 0.8660252955903432 0
    outer loop
      vertex -21.016658782958984 15.598075866699219 3
      vertex -19.284608840942383 14.598075866699219 -3
      vertex -21.016658782958984 15.598075866699219 -3
    endloop
  endfacet
  facet normal -0.5000001873976233 -0.8660252955903432 0
    outer loop
      vertex -24.016658782958984 10.401923179626465 -3
      vertex -22.284608840942383 9.401923179626465 3
      vertex -24.016658782958984 10.401923179626465 3
    endloop
  endfacet
  facet normal -0.5000001873976233 -0.8660252955903432 0
    outer loop
      vertex -22.284608840942383 9.401923179626465 3
      vertex -24.016658782958984 10.401923179626465 -3
      vertex -22.284608840942383 9.401923179626465 -3
    endloop
  endfacet
  facet normal 0 0 1
    outer loop
      vertex -24.337614059448242 9.62707233428955 3
      vertex -23.958675384521484 3.3138790130615234 3
      vertex -22.40576171875 9.109434127807617 3
    endloop
  endfacet
  facet normal 0 0 1
    outer loop
      vertex -23.958675384521484 3.3138790130615234 3
      vertex -24.337614059448242 9.62707233428955 3
      vertex -25.890527725219727 3.831517219543457 3
    endloop
  endfacet
  facet normal -0.9659258532438462 0.25881894450589926 0
    outer loop
      vertex -25.890527725219727 3.831517219543457 -3
      vertex -24.337614059448242 9.62707233428955 3
      vertex -24.337614059448242 9.62707233428955 -3
    endloop
  endfacet
  facet normal -0.9659258532438462 0.25881894450589926 0
    outer loop
      vertex -24.337614059448242 9.62707233428955 3
      vertex -25.890527725219727 3.831517219543457 -3
      vertex -25.890527725219727 3.831517219543457 3
    endloop
  endfacet
  facet normal 0.9659258532438462 -0.25881894450589926 0
    outer loop
      vertex -23.958675384521484 3.3138790130615234 3
      vertex -22.40576171875 9.109434127807617 -3
      vertex -22.40576171875 9.109434127807617 3
    endloop
  endfacet
  facet normal 0.9659258532438462 -0.25881894450589926 0
    outer loop
      vertex -22.40576171875 9.109434127807617 -3
      vertex -23.958675384521484 3.3138790130615234 3
      vertex -23.958675384521484 3.3138790130615234 -3
    endloop
  endfacet
  facet normal 0 0 -1
    outer loop
      vertex -23.958675384521484 3.3138790130615234 -3
      vertex -24.337614059448242 9.62707233428955 -3
      vertex -22.40576171875 9.109434127807617 -3
    endloop
  endfacet
  facet normal 0 0 -1
    outer loop
      vertex -24.337614059448242 9.62707233428955 -3
      vertex -23.958675384521484 3.3138790130615234 -3
      vertex -25.890527725219727 3.831517219543457 -3
    endloop
  endfacet
  facet normal 0.2588190133314271 0.9659258348021067 0
    outer loop
      vertex -22.40576171875 9.109434127807617 -3
      vertex -24.337614059448242 9.62707233428955 3
      vertex -22.40576171875 9.109434127807617 3
    endloop
  endfacet
  facet normal 0.2588190133314271 0.9659258348021067 0
    outer loop
      vertex -24.337614059448242 9.62707233428955 3
      vertex -22.40576171875 9.109434127807617 -3
      vertex -24.337614059448242 9.62707233428955 -3
    endloop
  endfacet
  facet normal -0.2588190133314271 -0.9659258348021067 0
    outer loop
      vertex -25.890527725219727 3.831517219543457 -3
      vertex -23.958675384521484 3.3138790130615234 3
      vertex -25.890527725219727 3.831517219543457 3
    endloop
  endfacet
  facet normal -0.2588190133314271 -0.9659258348021067 0
    outer loop
      vertex -23.958675384521484 3.3138790130615234 3
      vertex -25.890527725219727 3.831517219543457 -3
      vertex -23.958675384521484 3.3138790130615234 -3
    endloop
  endfacet
  facet normal 0 0 1
    outer loop
      vertex -26 3 3
      vertex -24 -3 3
      vertex -24 3 3
    endloop
  endfacet
  facet normal 0 0 1
    outer loop
      vertex -24 -3 3
      vertex -26 3 3
      vertex -26 -3 3
    endloop
  endfacet
  facet normal 1 0 0
    outer loop
      vertex -24 -3 3
      vertex -24 3 -3
      vertex -24 3 3
    endloop
  endfacet
  facet normal 1 0 0
    outer loop
      vertex -24 3 -3
      vertex -24 -3 3
      vertex -24 -3 -3
    endloop
  endfacet
  facet normal 0 0 -1
    outer loop
      vertex -26 -3 -3
      vertex -24 3 -3
      vertex -24 -3 -3
    endloop
  endfacet
  facet normal 0 0 -1
    outer loop
      vertex -24 3 -3
      vertex -26 -3 -3
      vertex -26 3 -3
    endloop
  endfacet
  facet normal 0 1 0
    outer loop
      vertex -24 3 -3
      vertex -26 3 3
      vertex -24 3 3
    endloop
  endfacet
  facet normal 0 1 0
    outer loop
      vertex -26 3 3
      vertex -24 3 -3
      vertex -26 3 -3
    endloop
  endfacet
  facet normal 0 -1 0
    outer loop
      vertex -26 -3 -3
      vertex -24 -3 3
      vertex -26 -3 3
    endloop
  endfacet
  facet normal 0 -1 0
    outer loop
      vertex -24 -3 3
      vertex -26 -3 -3
      vertex -24 -3 -3
    endloop
  endfacet
  facet normal -1 0 0
    outer loop
      vertex -26 -3 -3
      vertex -26 3 3
      vertex -26 3 -3
    endloop
  endfacet
  facet normal -1 0 0
    outer loop
      vertex -26 3 3
      vertex -26 -3 -3
      vertex -26 -3 3
    endloop
  endfacet
  facet normal -0.9659258532438462 -0.25881894450589926 0
    outer loop
      vertex -24.337614059448242 -9.62707233428955 -3
      vertex -25.890527725219727 -3.831517219543457 3
      vertex -25.890527725219727 -3.831517219543457 -3
    endloop
  endfacet
  facet normal -0.9659258532438462 -0.25881894450589926 0
    outer loop
      vertex -25.890527725219727 -3.831517219543457 3
      vertex -24.337614059448242 -9.62707233428955 -3
      vertex -24.337614059448242 -9.62707233428955 3
    endloop
  endfacet
  facet normal 0 0 1
    outer loop
      vertex -23.958675384521484 -3.3138790130615234 3
      vertex -24.337614059448242 -9.62707233428955 3
      vertex -22.40576171875 -9.109434127807617 3
    endloop
  endfacet
  facet normal 0 0 1
    outer loop
      vertex -24.337614059448242 -9.62707233428955 3
      vertex -23.958675384521484 -3.3138790130615234 3
      vertex -25.890527725219727 -3.831517219543457 3
    endloop
  endfacet
  facet normal 0 0 -1
    outer loop
      vertex -24.337614059448242 -9.62707233428955 -3
      vertex -23.958675384521484 -3.3138790130615234 -3
      vertex -22.40576171875 -9.109434127807617 -3
    endloop
  endfacet
  facet normal 0 0 -1
    outer loop
      vertex -23.958675384521484 -3.3138790130615234 -3
      vertex -24.337614059448242 -9.62707233428955 -3
      vertex -25.890527725219727 -3.831517219543457 -3
    endloop
  endfacet
  facet normal 0.9659258532438462 0.25881894450589926 0
    outer loop
      vertex -22.40576171875 -9.109434127807617 3
      vertex -23.958675384521484 -3.3138790130615234 -3
      vertex -23.958675384521484 -3.3138790130615234 3
    endloop
  endfacet
  facet normal 0.9659258532438462 0.25881894450589926 0
    outer loop
      vertex -23.958675384521484 -3.3138790130615234 -3
      vertex -22.40576171875 -9.109434127807617 3
      vertex -22.40576171875 -9.109434127807617 -3
    endloop
  endfacet
  facet normal 0.2588190133314271 -0.9659258348021067 0
    outer loop
      vertex -24.337614059448242 -9.62707233428955 -3
      vertex -22.40576171875 -9.109434127807617 3
      vertex -24.337614059448242 -9.62707233428955 3
    endloop
  endfacet
  facet normal 0.2588190133314271 -0.9659258348021067 0
    outer loop
      vertex -22.40576171875 -9.109434127807617 3
      vertex -24.337614059448242 -9.62707233428955 -3
      vertex -22.40576171875 -9.109434127807617 -3
    endloop
  endfacet
  facet normal -0.2588190133314271 0.9659258348021067 0
    outer loop
      vertex -23.958675384521484 -3.3138790130615234 -3
      vertex -25.890527725219727 -3.831517219543457 3
      vertex -23.958675384521484 -3.3138790130615234 3
    endloop
  endfacet
  facet normal -0.2588190133314271 0.9659258348021067 0
    outer loop
      vertex -25.890527725219727 -3.831517219543457 3
      vertex -23.958675384521484 -3.3138790130615234 -3
      vertex -25.890527725219727 -3.831517219543457 -3
    endloop
  endfacet
  facet normal -0.8660254147996932 -0.49999998092101916 0
    outer loop
      vertex -21.016658782958984 -15.598075866699219 -3
      vertex -24.016658782958984 -10.401923179626465 3
      vertex -24.016658782958984 -10.401923179626465 -3
    endloop
  endfacet
  facet normal -0.8660254147996932 -0.49999998092101916 0
    outer loop
      vertex -24.016658782958984 -10.401923179626465 3
      vertex -21.016658782958984 -15.598075866699219 -3
      vertex -21.016658782958984 -15.598075866699219 3
    endloop
  endfacet
  facet normal 0 0 1
    outer loop
      vertex -22.284608840942383 -9.401923179626465 3
      vertex -21.016658782958984 -15.598075866699219 3
      vertex -19.284608840942383 -14.598075866699219 3
    endloop
  endfacet
  facet normal 0 0 1
    outer loop
      vertex -21.016658782958984 -15.598075866699219 3
      vertex -22.284608840942383 -9.401923179626465 3
      vertex -24.016658782958984 -10.401923179626465 3
    endloop
  endfacet
  facet normal 0 0 -1
    outer loop
      vertex -21.016658782958984 -15.598075866699219 -3
      vertex -22.284608840942383 -9.401923179626465 -3
      vertex -19.284608840942383 -14.598075866699219 -3
    endloop
  endfacet
  facet normal 0 0 -1
    outer loop
      vertex -22.284608840942383 -9.401923179626465 -3
      vertex -21.016658782958984 -15.598075866699219 -3
      vertex -24.016658782958984 -10.401923179626465 -3
    endloop
  endfacet
  facet normal 0.8660254147996932 0.49999998092101916 0
    outer loop
      vertex -19.284608840942383 -14.598075866699219 3
      vertex -22.284608840942383 -9.401923179626465 -3
      vertex -22.284608840942383 -9.401923179626465 3
    endloop
  endfacet
  facet normal 0.8660254147996932 0.49999998092101916 0
    outer loop
      vertex -22.284608840942383 -9.401923179626465 -3
      vertex -19.284608840942383 -14.598075866699219 3
      vertex -19.284608840942383 -14.598075866699219 -3
    endloop
  endfacet
  facet normal 0.5000001873976233 -0.8660252955903432 0
    outer loop
      vertex -21.016658782958984 -15.598075866699219 -3
      vertex -19.284608840942383 -14.598075866699219 3
      vertex -21.016658782958984 -15.598075866699219 3
    endloop
  endfacet
  facet normal 0.5000001873976233 -0.8660252955903432 0
    outer loop
      vertex -19.284608840942383 -14.598075866699219 3
      vertex -21.016658782958984 -15.598075866699219 -3
      vertex -19.284608840942383 -14.598075866699219 -3
    endloop
  endfacet
  facet normal -0.5000001873976233 0.8660252955903432 0
    outer loop
      vertex -22.284608840942383 -9.401923179626465 -3
      vertex -24.016658782958984 -10.401923179626465 3
      vertex -22.284608840942383 -9.401923179626465 3
    endloop
  endfacet
  facet normal -0.5000001873976233 0.8660252955903432 0
    outer loop
      vertex -24.016658782958984 -10.401923179626465 3
      vertex -22.284608840942383 -9.401923179626465 -3
      vertex -24.016658782958984 -10.401923179626465 -3
    endloop
  endfacet
  facet normal -0.7071067811865476 -0.7071067811865476 0
    outer loop
      vertex -16.26345443725586 -20.50609588623047 -3
      vertex -20.50609588623047 -16.26345443725586 3
      vertex -20.50609588623047 -16.26345443725586 -3
    endloop
  endfacet
  facet normal -0.7071067811865476 -0.7071067811865476 0
    outer loop
      vertex -20.50609588623047 -16.26345443725586 3
      vertex -16.26345443725586 -20.50609588623047 -3
      vertex -16.26345443725586 -20.50609588623047 3
    endloop
  endfacet
  facet normal 0 0 1
    outer loop
      vertex -19.091882705688477 -14.849242210388184 3
      vertex -16.26345443725586 -20.50609588623047 3
      vertex -14.849242210388184 -19.091882705688477 3
    endloop
  endfacet
  facet normal 0 0 1
    outer loop
      vertex -16.26345443725586 -20.50609588623047 3
      vertex -19.091882705688477 -14.849242210388184 3
      vertex -20.50609588623047 -16.26345443725586 3
    endloop
  endfacet
  facet normal 0 0 -1
    outer loop
      vertex -16.26345443725586 -20.50609588623047 -3
      vertex -19.091882705688477 -14.849242210388184 -3
      vertex -14.849242210388184 -19.091882705688477 -3
    endloop
  endfacet
  facet normal 0 0 -1
    outer loop
      vertex -19.091882705688477 -14.849242210388184 -3
      vertex -16.26345443725586 -20.50609588623047 -3
      vertex -20.50609588623047 -16.26345443725586 -3
    endloop
  endfacet
  facet normal 0.7071067811865475 0.7071067811865475 0
    outer loop
      vertex -14.849242210388184 -19.091882705688477 3
      vertex -19.091882705688477 -14.849242210388184 -3
      vertex -19.091882705688477 -14.849242210388184 3
    endloop
  endfacet
  facet normal 0.7071067811865475 0.7071067811865475 0
    outer loop
      vertex -19.091882705688477 -14.849242210388184 -3
      vertex -14.849242210388184 -19.091882705688477 3
      vertex -14.849242210388184 -19.091882705688477 -3
    endloop
  endfacet
  facet normal 0.7071070196052311 -0.7071065427677834 0
    outer loop
      vertex -16.26345443725586 -20.50609588623047 3
      vertex -14.849242210388184 -19.091882705688477 -3
      vertex -14.849242210388184 -19.091882705688477 3
    endloop
  endfacet
  facet normal 0.7071070196052311 -0.7071065427677834 0
    outer loop
      vertex -14.849242210388184 -19.091882705688477 -3
      vertex -16.26345443725586 -20.50609588623047 3
      vertex -16.26345443725586 -20.50609588623047 -3
    endloop
  endfacet
  facet normal -0.7071065427677834 0.7071070196052311 0
    outer loop
      vertex -19.091882705688477 -14.849242210388184 -3
      vertex -20.50609588623047 -16.26345443725586 3
      vertex -19.091882705688477 -14.849242210388184 3
    endloop
  endfacet
  facet normal -0.7071065427677834 0.7071070196052311 0
    outer loop
      vertex -20.50609588623047 -16.26345443725586 3
      vertex -19.091882705688477 -14.849242210388184 -3
      vertex -20.50609588623047 -16.26345443725586 -3
    endloop
  endfacet
  facet normal -0.49999998092101916 -0.8660254147996932 0
    outer loop
      vertex -15.598075866699219 -21.016658782958984 -3
      vertex -10.401923179626465 -24.016658782958984 3
      vertex -15.598075866699219 -21.016658782958984 3
    endloop
  endfacet
  facet normal -0.49999998092101916 -0.8660254147996932 0
    outer loop
      vertex -10.401923179626465 -24.016658782958984 3
      vertex -15.598075866699219 -21.016658782958984 -3
      vertex -10.401923179626465 -24.016658782958984 -3
    endloop
  endfacet
  facet normal 0 0 1
    outer loop
      vertex -14.598075866699219 -19.284608840942383 3
      vertex -10.401923179626465 -24.016658782958984 3
      vertex -9.401923179626465 -22.284608840942383 3
    endloop
  endfacet
  facet normal 0 0 1
    outer loop
      vertex -10.401923179626465 -24.016658782958984 3
      vertex -14.598075866699219 -19.284608840942383 3
      vertex -15.598075866699219 -21.016658782958984 3
    endloop
  endfacet
  facet normal 0 0 -1
    outer loop
      vertex -10.401923179626465 -24.016658782958984 -3
      vertex -14.598075866699219 -19.284608840942383 -3
      vertex -9.401923179626465 -22.284608840942383 -3
    endloop
  endfacet
  facet normal 0 0 -1
    outer loop
      vertex -14.598075866699219 -19.284608840942383 -3
      vertex -10.401923179626465 -24.016658782958984 -3
      vertex -15.598075866699219 -21.016658782958984 -3
    endloop
  endfacet
  facet normal 0.49999998092101916 0.8660254147996932 0
    outer loop
      vertex -9.401923179626465 -22.284608840942383 -3
      vertex -14.598075866699219 -19.284608840942383 3
      vertex -9.401923179626465 -22.284608840942383 3
    endloop
  endfacet
  facet normal 0.49999998092101916 0.8660254147996932 0
    outer loop
      vertex -14.598075866699219 -19.284608840942383 3
      vertex -9.401923179626465 -22.284608840942383 -3
      vertex -14.598075866699219 -19.284608840942383 -3
    endloop
  endfacet
  facet normal 0.8660252955903432 -0.5000001873976233 0
    outer loop
      vertex -10.401923179626465 -24.016658782958984 3
      vertex -9.401923179626465 -22.284608840942383 -3
      vertex -9.401923179626465 -22.284608840942383 3
    endloop
  endfacet
  facet normal 0.8660252955903432 -0.5000001873976233 0
    outer loop
      vertex -9.401923179626465 -22.284608840942383 -3
      vertex -10.401923179626465 -24.016658782958984 3
      vertex -10.401923179626465 -24.016658782958984 -3
    endloop
  endfacet
  facet normal -0.8660252955903432 0.5000001873976233 0
    outer loop
      vertex -15.598075866699219 -21.016658782958984 -3
      vertex -14.598075866699219 -19.284608840942383 3
      vertex -14.598075866699219 -19.284608840942383 -3
    endloop
  endfacet
  facet normal -0.8660252955903432 0.5000001873976233 0
    outer loop
      vertex -14.598075866699219 -19.284608840942383 3
      vertex -15.598075866699219 -21.016658782958984 -3
      vertex -15.598075866699219 -21.016658782958984 3
    endloop
  endfacet
  facet normal -0.25881894450589926 -0.9659258532438462 0
    outer loop
      vertex -9.62707233428955 -24.337614059448242 -3
      vertex -3.831517219543457 -25.890527725219727 3
      vertex -9.62707233428955 -24.337614059448242 3
    endloop
  endfacet
  facet normal -0.25881894450589926 -0.9659258532438462 0
    outer loop
      vertex -3.831517219543457 -25.890527725219727 3
      vertex -9.62707233428955 -24.337614059448242 -3
      vertex -3.831517219543457 -25.890527725219727 -3
    endloop
  endfacet
  facet normal 0 0 1
    outer loop
      vertex -9.109434127807617 -22.40576171875 3
      vertex -3.831517219543457 -25.890527725219727 3
      vertex -3.3138790130615234 -23.958675384521484 3
    endloop
  endfacet
  facet normal 0 0 1
    outer loop
      vertex -3.831517219543457 -25.890527725219727 3
      vertex -9.109434127807617 -22.40576171875 3
      vertex -9.62707233428955 -24.337614059448242 3
    endloop
  endfacet
  facet normal 0 0 -1
    outer loop
      vertex -3.831517219543457 -25.890527725219727 -3
      vertex -9.109434127807617 -22.40576171875 -3
      vertex -3.3138790130615234 -23.958675384521484 -3
    endloop
  endfacet
  facet normal 0 0 -1
    outer loop
      vertex -9.109434127807617 -22.40576171875 -3
      vertex -3.831517219543457 -25.890527725219727 -3
      vertex -9.62707233428955 -24.337614059448242 -3
    endloop
  endfacet
  facet normal 0.25881894450589926 0.9659258532438462 0
    outer loop
      vertex -3.3138790130615234 -23.958675384521484 -3
      vertex -9.109434127807617 -22.40576171875 3
      vertex -3.3138790130615234 -23.958675384521484 3
    endloop
  endfacet
  facet normal 0.25881894450589926 0.9659258532438462 0
    outer loop
      vertex -9.109434127807617 -22.40576171875 3
      vertex -3.3138790130615234 -23.958675384521484 -3
      vertex -9.109434127807617 -22.40576171875 -3
    endloop
  endfacet
  facet normal -0.9659258348021067 0.2588190133314271 0
    outer loop
      vertex -9.62707233428955 -24.337614059448242 -3
      vertex -9.109434127807617 -22.40576171875 3
      vertex -9.109434127807617 -22.40576171875 -3
    endloop
  endfacet
  facet normal -0.9659258348021067 0.2588190133314271 0
    outer loop
      vertex -9.109434127807617 -22.40576171875 3
      vertex -9.62707233428955 -24.337614059448242 -3
      vertex -9.62707233428955 -24.337614059448242 3
    endloop
  endfacet
  facet normal 0.9659258348021067 -0.2588190133314271 0
    outer loop
      vertex -3.831517219543457 -25.890527725219727 3
      vertex -3.3138790130615234 -23.958675384521484 -3
      vertex -3.3138790130615234 -23.958675384521484 3
    endloop
  endfacet
  facet normal 0.9659258348021067 -0.2588190133314271 0
    outer loop
      vertex -3.3138790130615234 -23.958675384521484 -3
      vertex -3.831517219543457 -25.890527725219727 3
      vertex -3.831517219543457 -25.890527725219727 -3
    endloop
  endfacet
  facet normal 0 -1 0
    outer loop
      vertex -3 -26 -3
      vertex 3 -26 3
      vertex -3 -26 3
    endloop
  endfacet
  facet normal 0 -1 0
    outer loop
      vertex 3 -26 3
      vertex -3 -26 -3
      vertex 3 -26 -3
    endloop
  endfacet
  facet normal 0 0 1
    outer loop
      vertex -3 -24 3
      vertex 3 -26 3
      vertex 3 -24 3
    endloop
  endfacet
  facet normal 0 0 1
    outer loop
      vertex 3 -26 3
      vertex -3 -24 3
      vertex -3 -26 3
    endloop
  endfacet
  facet normal 0 0 -1
    outer loop
      vertex -3 -26 -3
      vertex 3 -24 -3
      vertex 3 -26 -3
    endloop
  endfacet
  facet normal 0 0 -1
    outer loop
      vertex 3 -24 -3
      vertex -3 -26 -3
      vertex -3 -24 -3
    endloop
  endfacet
  facet normal 0 1 0
    outer loop
      vertex 3 -24 -3
      vertex -3 -24 3
      vertex 3 -24 3
    endloop
  endfacet
  facet normal 0 1 0
    outer loop
      vertex -3 -24 3
      vertex 3 -24 -3
      vertex -3 -24 -3
    endloop
  endfacet
  facet normal -1 0 0
    outer loop
      vertex -3 -26 -3
      vertex -3 -24 3
      vertex -3 -24 -3
    endloop
  endfacet
  facet normal -1 0 0
    outer loop
      vertex -3 -24 3
      vertex -3 -26 -3
      vertex -3 -26 3
    endloop
  endfacet
  facet normal 1 0 0
    outer loop
      vertex 3 -26 3
      vertex 3 -24 -3
      vertex 3 -24 3
    endloop
  endfacet
  facet normal 1 0 0
    outer loop
      vertex 3 -24 -3
      vertex 3 -26 3
      vertex 3 -26 -3
    endloop
  endfacet
  facet normal 0.25881894450589926 -0.9659258532438462 0
    outer loop
      vertex 3.831517219543457 -25.890527725219727 -3
      vertex 9.62707233428955 -24.337614059448242 3
      vertex 3.831517219543457 -25.890527725219727 3
    endloop
  endfacet
  facet normal 0.25881894450589926 -0.9659258532438462 0
    outer loop
      vertex 9.62707233428955 -24.337614059448242 3
      vertex 3.831517219543457 -25.890527725219727 -3
      vertex 9.62707233428955 -24.337614059448242 -3
    endloop
  endfacet
  facet normal 0 0 1
    outer loop
      vertex 9.109434127807617 -22.40576171875 3
      vertex 3.831517219543457 -25.890527725219727 3
      vertex 9.62707233428955 -24.337614059448242 3
    endloop
  endfacet
  facet normal 0 0 1
    outer loop
      vertex 3.831517219543457 -25.890527725219727 3
      vertex 9.109434127807617 -22.40576171875 3
      vertex 3.3138790130615234 -23.958675384521484 3
    endloop
  endfacet
  facet normal 0 0 -1
    outer loop
      vertex 3.831517219543457 -25.890527725219727 -3
      vertex 9.109434127807617 -22.40576171875 -3
      vertex 9.62707233428955 -24.337614059448242 -3
    endloop
  endfacet
  facet normal 0 0 -1
    outer loop
      vertex 9.109434127807617 -22.40576171875 -3
      vertex 3.831517219543457 -25.890527725219727 -3
      vertex 3.3138790130615234 -23.958675384521484 -3
    endloop
  endfacet
  facet normal -0.25881894450589926 0.9659258532438462 0
    outer loop
      vertex 9.109434127807617 -22.40576171875 -3
      vertex 3.3138790130615234 -23.958675384521484 3
      vertex 9.109434127807617 -22.40576171875 3
    endloop
  endfacet
  facet normal -0.25881894450589926 0.9659258532438462 0
    outer loop
      vertex 3.3138790130615234 -23.958675384521484 3
      vertex 9.109434127807617 -22.40576171875 -3
      vertex 3.3138790130615234 -23.958675384521484 -3
    endloop
  endfacet
  facet normal 0.9659258348021067 0.2588190133314271 0
    outer loop
      vertex 9.62707233428955 -24.337614059448242 3
      vertex 9.109434127807617 -22.40576171875 -3
      vertex 9.109434127807617 -22.40576171875 3
    endloop
  endfacet
  facet normal 0.9659258348021067 0.2588190133314271 0
    outer loop
      vertex 9.109434127807617 -22.40576171875 -3
      vertex 9.62707233428955 -24.337614059448242 3
      vertex 9.62707233428955 -24.337614059448242 -3
    endloop
  endfacet
  facet normal -0.9659258348021067 -0.2588190133314271 0
    outer loop
      vertex 3.831517219543457 -25.890527725219727 -3
      vertex 3.3138790130615234 -23.958675384521484 3
      vertex 3.3138790130615234 -23.958675384521484 -3
    endloop
  endfacet
  facet normal -0.9659258348021067 -0.2588190133314271 0
    outer loop
      vertex 3.3138790130615234 -23.958675384521484 3
      vertex 3.831517219543457 -25.890527725219727 -3
      vertex 3.831517219543457 -25.890527725219727 3
    endloop
  endfacet
  facet normal 0.49999998092101916 -0.8660254147996932 0
    outer loop
      vertex 10.401923179626465 -24.016658782958984 -3
      vertex 15.598075866699219 -21.016658782958984 3
      vertex 10.401923179626465 -24.016658782958984 3
    endloop
  endfacet
  facet normal 0.49999998092101916 -0.8660254147996932 0
    outer loop
      vertex 15.598075866699219 -21.016658782958984 3
      vertex 10.401923179626465 -24.016658782958984 -3
      vertex 15.598075866699219 -21.016658782958984 -3
    endloop
  endfacet
  facet normal 0 0 1
    outer loop
      vertex 14.598075866699219 -19.284608840942383 3
      vertex 10.401923179626465 -24.016658782958984 3
      vertex 15.598075866699219 -21.016658782958984 3
    endloop
  endfacet
  facet normal 0 0 1
    outer loop
      vertex 10.401923179626465 -24.016658782958984 3
      vertex 14.598075866699219 -19.284608840942383 3
      vertex 9.401923179626465 -22.284608840942383 3
    endloop
  endfacet
  facet normal 0 0 -1
    outer loop
      vertex 10.401923179626465 -24.016658782958984 -3
      vertex 14.598075866699219 -19.284608840942383 -3
      vertex 15.598075866699219 -21.016658782958984 -3
    endloop
  endfacet
  facet normal 0 0 -1
    outer loop
      vertex 14.598075866699219 -19.284608840942383 -3
      vertex 10.401923179626465 -24.016658782958984 -3
      vertex 9.401923179626465 -22.284608840942383 -3
    endloop
  endfacet
  facet normal -0.49999998092101916 0.8660254147996932 0
    outer loop
      vertex 14.598075866699219 -19.284608840942383 -3
      vertex 9.401923179626465 -22.284608840942383 3
      vertex 14.598075866699219 -19.284608840942383 3
    endloop
  endfacet
  facet normal -0.49999998092101916 0.8660254147996932 0
    outer loop
      vertex 9.401923179626465 -22.284608840942383 3
      vertex 14.598075866699219 -19.284608840942383 -3
      vertex 9.401923179626465 -22.284608840942383 -3
    endloop
  endfacet
  facet normal 0.8660252955903432 0.5000001873976233 0
    outer loop
      vertex 15.598075866699219 -21.016658782958984 3
      vertex 14.598075866699219 -19.284608840942383 -3
      vertex 14.598075866699219 -19.284608840942383 3
    endloop
  endfacet
  facet normal 0.8660252955903432 0.5000001873976233 0
    outer loop
      vertex 14.598075866699219 -19.284608840942383 -3
      vertex 15.598075866699219 -21.016658782958984 3
      vertex 15.598075866699219 -21.016658782958984 -3
    endloop
  endfacet
  facet normal -0.8660252955903432 -0.5000001873976233 0
    outer loop
      vertex 10.401923179626465 -24.016658782958984 -3
      vertex 9.401923179626465 -22.284608840942383 3
      vertex 9.401923179626465 -22.284608840942383 -3
    endloop
  endfacet
  facet normal -0.8660252955903432 -0.5000001873976233 0
    outer loop
      vertex 9.401923179626465 -22.284608840942383 3
      vertex 10.401923179626465 -24.016658782958984 -3
      vertex 10.401923179626465 -24.016658782958984 3
    endloop
  endfacet
  facet normal 0.7071067811865476 -0.7071067811865476 0
    outer loop
      vertex 16.26345443725586 -20.50609588623047 3
      vertex 20.50609588623047 -16.26345443725586 -3
      vertex 20.50609588623047 -16.26345443725586 3
    endloop
  endfacet
  facet normal 0.7071067811865476 -0.7071067811865476 0
    outer loop
      vertex 20.50609588623047 -16.26345443725586 -3
      vertex 16.26345443725586 -20.50609588623047 3
      vertex 16.26345443725586 -20.50609588623047 -3
    endloop
  endfacet
  facet normal 0 0 1
    outer loop
      vertex 19.091882705688477 -14.849242210388184 3
      vertex 16.26345443725586 -20.50609588623047 3
      vertex 20.50609588623047 -16.26345443725586 3
    endloop
  endfacet
  facet normal 0 0 1
    outer loop
      vertex 16.26345443725586 -20.50609588623047 3
      vertex 19.091882705688477 -14.849242210388184 3
      vertex 14.849242210388184 -19.091882705688477 3
    endloop
  endfacet
  facet normal 0 0 -1
    outer loop
      vertex 16.26345443725586 -20.50609588623047 -3
      vertex 19.091882705688477 -14.849242210388184 -3
      vertex 20.50609588623047 -16.26345443725586 -3
    endloop
  endfacet
  facet normal 0 0 -1
    outer loop
      vertex 19.091882705688477 -14.849242210388184 -3
      vertex 16.26345443725586 -20.50609588623047 -3
      vertex 14.849242210388184 -19.091882705688477 -3
    endloop
  endfacet
  facet normal -0.7071067811865475 0.7071067811865475 0
    outer loop
      vertex 14.849242210388184 -19.091882705688477 -3
      vertex 19.091882705688477 -14.849242210388184 3
      vertex 19.091882705688477 -14.849242210388184 -3
    endloop
  endfacet
  facet normal -0.7071067811865475 0.7071067811865475 0
    outer loop
      vertex 19.091882705688477 -14.849242210388184 3
      vertex 14.849242210388184 -19.091882705688477 -3
      vertex 14.849242210388184 -19.091882705688477 3
    endloop
  endfacet
  facet normal 0.7071065427677834 0.7071070196052311 0
    outer loop
      vertex 20.50609588623047 -16.26345443725586 -3
      vertex 19.091882705688477 -14.849242210388184 3
      vertex 20.50609588623047 -16.26345443725586 3
    endloop
  endfacet
  facet normal 0.7071065427677834 0.7071070196052311 0
    outer loop
      vertex 19.091882705688477 -14.849242210388184 3
      vertex 20.50609588623047 -16.26345443725586 -3
      vertex 19.091882705688477 -14.849242210388184 -3
    endloop
  endfacet
  facet normal -0.7071070196052311 -0.7071065427677834 0
    outer loop
      vertex 16.26345443725586 -20.50609588623047 -3
      vertex 14.849242210388184 -19.091882705688477 3
      vertex 14.849242210388184 -19.091882705688477 -3
    endloop
  endfacet
  facet normal -0.7071070196052311 -0.7071065427677834 0
    outer loop
      vertex 14.849242210388184 -19.091882705688477 3
      vertex 16.26345443725586 -20.50609588623047 -3
      vertex 16.26345443725586 -20.50609588623047 3
    endloop
  endfacet
  facet normal 0.8660254147996932 -0.49999998092101916 0
    outer loop
      vertex 21.016658782958984 -15.598075866699219 3
      vertex 24.016658782958984 -10.401923179626465 -3
      vertex 24.016658782958984 -10.401923179626465 3
    endloop
  endfacet
  facet normal 0.8660254147996932 -0.49999998092101916 0
    outer loop
      vertex 24.016658782958984 -10.401923179626465 -3
      vertex 21.016658782958984 -15.598075866699219 3
      vertex 21.016658782958984 -15.598075866699219 -3
    endloop
  endfacet
  facet normal 0 0 1
    outer loop
      vertex 22.284608840942383 -9.401923179626465 3
      vertex 21.016658782958984 -15.598075866699219 3
      vertex 24.016658782958984 -10.401923179626465 3
    endloop
  endfacet
  facet normal 0 0 1
    outer loop
      vertex 21.016658782958984 -15.598075866699219 3
      vertex 22.284608840942383 -9.401923179626465 3
      vertex 19.284608840942383 -14.598075866699219 3
    endloop
  endfacet
  facet normal 0 0 -1
    outer loop
      vertex 21.016658782958984 -15.598075866699219 -3
      vertex 22.284608840942383 -9.401923179626465 -3
      vertex 24.016658782958984 -10.401923179626465 -3
    endloop
  endfacet
  facet normal 0 0 -1
    outer loop
      vertex 22.284608840942383 -9.401923179626465 -3
      vertex 21.016658782958984 -15.598075866699219 -3
      vertex 19.284608840942383 -14.598075866699219 -3
    endloop
  endfacet
  facet normal -0.8660254147996932 0.49999998092101916 0
    outer loop
      vertex 19.284608840942383 -14.598075866699219 -3
      vertex 22.284608840942383 -9.401923179626465 3
      vertex 22.284608840942383 -9.401923179626465 -3
    endloop
  endfacet
  facet normal -0.8660254147996932 0.49999998092101916 0
    outer loop
      vertex 22.284608840942383 -9.401923179626465 3
      vertex 19.284608840942383 -14.598075866699219 -3
      vertex 19.284608840942383 -14.598075866699219 3
    endloop
  endfacet
  facet normal 0.5000001873976233 0.8660252955903432 0
    outer loop
      vertex 24.016658782958984 -10.401923179626465 -3
      vertex 22.284608840942383 -9.401923179626465 3
      vertex 24.016658782958984 -10.401923179626465 3
    endloop
  endfacet
  facet normal 0.5000001873976233 0.8660252955903432 0
    outer loop
      vertex 22.284608840942383 -9.401923179626465 3
      vertex 24.016658782958984 -10.401923179626465 -3
      vertex 22.284608840942383 -9.401923179626465 -3
    endloop
  endfacet
  facet normal -0.5000001873976233 -0.8660252955903432 0
    outer loop
      vertex 19.284608840942383 -14.598075866699219 -3
      vertex 21.016658782958984 -15.598075866699219 3
      vertex 19.284608840942383 -14.598075866699219 3
    endloop
  endfacet
  facet normal -0.5000001873976233 -0.8660252955903432 0
    outer loop
      vertex 21.016658782958984 -15.598075866699219 3
      vertex 19.284608840942383 -14.598075866699219 -3
      vertex 21.016658782958984 -15.598075866699219 -3
    endloop
  endfacet
  facet normal 0.9659258532438462 -0.25881894450589926 0
    outer loop
      vertex 24.337614059448242 -9.62707233428955 3
      vertex 25.890527725219727 -3.831517219543457 -3
      vertex 25.890527725219727 -3.831517219543457 3
    endloop
  endfacet
  facet normal 0.9659258532438462 -0.25881894450589926 0
    outer loop
      vertex 25.890527725219727 -3.831517219543457 -3
      vertex 24.337614059448242 -9.62707233428955 3
      vertex 24.337614059448242 -9.62707233428955 -3
    endloop
  endfacet
  facet normal 0 0 1
    outer loop
      vertex 23.958675384521484 -3.3138790130615234 3
      vertex 24.337614059448242 -9.62707233428955 3
      vertex 25.890527725219727 -3.831517219543457 3
    endloop
  endfacet
  facet normal 0 0 1
    outer loop
      vertex 24.337614059448242 -9.62707233428955 3
      vertex 23.958675384521484 -3.3138790130615234 3
      vertex 22.40576171875 -9.109434127807617 3
    endloop
  endfacet
  facet normal 0 0 -1
    outer loop
      vertex 24.337614059448242 -9.62707233428955 -3
      vertex 23.958675384521484 -3.3138790130615234 -3
      vertex 25.890527725219727 -3.831517219543457 -3
    endloop
  endfacet
  facet normal 0 0 -1
    outer loop
      vertex 23.958675384521484 -3.3138790130615234 -3
      vertex 24.337614059448242 -9.62707233428955 -3
      vertex 22.40576171875 -9.109434127807617 -3
    endloop
  endfacet
  facet normal -0.9659258532438462 0.25881894450589926 0
    outer loop
      vertex 22.40576171875 -9.109434127807617 -3
      vertex 23.958675384521484 -3.3138790130615234 3
      vertex 23.958675384521484 -3.3138790130615234 -3
    endloop
  endfacet
  facet normal -0.9659258532438462 0.25881894450589926 0
    outer loop
      vertex 23.958675384521484 -3.3138790130615234 3
      vertex 22.40576171875 -9.109434127807617 -3
      vertex 22.40576171875 -9.109434127807617 3
    endloop
  endfacet
  facet normal 0.2588190133314271 0.9659258348021067 0
    outer loop
      vertex 25.890527725219727 -3.831517219543457 -3
      vertex 23.958675384521484 -3.3138790130615234 3
      vertex 25.890527725219727 -3.831517219543457 3
    endloop
  endfacet
  facet normal 0.2588190133314271 0.9659258348021067 0
    outer loop
      vertex 23.958675384521484 -3.3138790130615234 3
      vertex 25.890527725219727 -3.831517219543457 -3
      vertex 23.958675384521484 -3.3138790130615234 -3
    endloop
  endfacet
  facet normal -0.2588190133314271 -0.9659258348021067 0
    outer loop
      vertex 22.40576171875 -9.109434127807617 -3
      vertex 24.337614059448242 -9.62707233428955 3
      vertex 22.40576171875 -9.109434127807617 3
    endloop
  endfacet
  facet normal -0.2588190133314271 -0.9659258348021067 0
    outer loop
      vertex 24.337614059448242 -9.62707233428955 3
      vertex 22.40576171875 -9.109434127807617 -3
      vertex 24.337614059448242 -9.62707233428955 -3
    endloop
  endfacet
  facet normal -0.587785146337527 -0.8090170713557113 0
    outer loop
      vertex -15.390003204345703 -17.092330932617188 -3
      vertex -11.5 -19.918582916259766 3
      vertex -15.390003204345703 -17.092330932617188 3
    endloop
  endfacet
  facet normal -0.587785146337527 -0.8090170713557113 0
    outer loop
      vertex -11.5 -19.918582916259766 3
      vertex -15.390003204345703 -17.092330932617188 -3
      vertex -11.5 -19.918582916259766 -3
    endloop
  endfacet
  facet normal 0.9945218880984124 0.10452853243573779 0
    outer loop
      vertex 23 0 3
      vertex 22.497394561767578 4.781968116760254 -3
      vertex 22.497394561767578 4.781968116760254 3
    endloop
  endfacet
  facet normal 0.9945218880984124 0.10452853243573779 0
    outer loop
      vertex 22.497394561767578 4.781968116760254 -3
      vertex 23 0 3
      vertex 23 0 -3
    endloop
  endfacet
  facet normal 0.2079121827373972 -0.9781474961729295 0
    outer loop
      vertex 2.404153823852539 -22.874004364013672 -3
      vertex 7.107390403747559 -21.874298095703125 3
      vertex 2.404153823852539 -22.874004364013672 3
    endloop
  endfacet
  facet normal 0.2079121827373972 -0.9781474961729295 0
    outer loop
      vertex 7.107390403747559 -21.874298095703125 3
      vertex 2.404153823852539 -22.874004364013672 -3
      vertex 7.107390403747559 -21.874298095703125 -3
    endloop
  endfacet
  facet normal -0.7431447556265471 0.6691306839360751 0
    outer loop
      vertex -18.607391357421875 13.519060134887695 -3
      vertex -15.390003204345703 17.092330932617188 3
      vertex -15.390003204345703 17.092330932617188 -3
    endloop
  endfacet
  facet normal -0.7431447556265471 0.6691306839360751 0
    outer loop
      vertex -15.390003204345703 17.092330932617188 3
      vertex -18.607391357421875 13.519060134887695 -3
      vertex -18.607391357421875 13.519060134887695 3
    endloop
  endfacet
  facet normal 0 -1 0
    outer loop
      vertex -2.404153823852539 -22.874004364013672 -3
      vertex 2.404153823852539 -22.874004364013672 3
      vertex -2.404153823852539 -22.874004364013672 3
    endloop
  endfacet
  facet normal 0 -1 0
    outer loop
      vertex 2.404153823852539 -22.874004364013672 3
      vertex -2.404153823852539 -22.874004364013672 -3
      vertex 2.404153823852539 -22.874004364013672 -3
    endloop
  endfacet
  facet normal -0.7431447556265471 -0.6691306839360751 0
    outer loop
      vertex -15.390003204345703 -17.092330932617188 -3
      vertex -18.607391357421875 -13.519060134887695 3
      vertex -18.607391357421875 -13.519060134887695 -3
    endloop
  endfacet
  facet normal -0.7431447556265471 -0.6691306839360751 0
    outer loop
      vertex -18.607391357421875 -13.519060134887695 3
      vertex -15.390003204345703 -17.092330932617188 -3
      vertex -15.390003204345703 -17.092330932617188 3
    endloop
  endfacet
  facet normal 0.7431447556265471 -0.6691306839360751 0
    outer loop
      vertex 15.390003204345703 -17.092330932617188 3
      vertex 18.607391357421875 -13.519060134887695 -3
      vertex 18.607391357421875 -13.519060134887695 3
    endloop
  endfacet
  facet normal 0.7431447556265471 -0.6691306839360751 0
    outer loop
      vertex 18.607391357421875 -13.519060134887695 -3
      vertex 15.390003204345703 -17.092330932617188 3
      vertex 15.390003204345703 -17.092330932617188 -3
    endloop
  endfacet
  facet normal 0.9510565168502562 0.30901699266651744 0
    outer loop
      vertex 22.497394561767578 4.781968116760254 3
      vertex 21.011545181274414 9.354942321777344 -3
      vertex 21.011545181274414 9.354942321777344 3
    endloop
  endfacet
  facet normal 0.9510565168502562 0.30901699266651744 0
    outer loop
      vertex 21.011545181274414 9.354942321777344 -3
      vertex 22.497394561767578 4.781968116760254 3
      vertex 22.497394561767578 4.781968116760254 -3
    endloop
  endfacet
  facet normal -0.9510565168502562 -0.30901699266651744 0
    outer loop
      vertex -21.011545181274414 -9.354942321777344 -3
      vertex -22.497394561767578 -4.781968116760254 3
      vertex -22.497394561767578 -4.781968116760254 -3
    endloop
  endfacet
  facet normal -0.9510565168502562 -0.30901699266651744 0
    outer loop
      vertex -22.497394561767578 -4.781968116760254 3
      vertex -21.011545181274414 -9.354942321777344 -3
      vertex -21.011545181274414 -9.354942321777344 3
    endloop
  endfacet
  facet normal -0.9510565168502562 0.30901699266651744 0
    outer loop
      vertex -22.497394561767578 4.781968116760254 -3
      vertex -21.011545181274414 9.354942321777344 3
      vertex -21.011545181274414 9.354942321777344 -3
    endloop
  endfacet
  facet normal -0.9510565168502562 0.30901699266651744 0
    outer loop
      vertex -21.011545181274414 9.354942321777344 3
      vertex -22.497394561767578 4.781968116760254 -3
      vertex -22.497394561767578 4.781968116760254 3
    endloop
  endfacet
  facet normal 0.40673653612887406 -0.9135455052584327 0
    outer loop
      vertex 7.107390403747559 -21.874298095703125 -3
      vertex 11.5 -19.918582916259766 3
      vertex 7.107390403747559 -21.874298095703125 3
    endloop
  endfacet
  facet normal 0.40673653612887406 -0.9135455052584327 0
    outer loop
      vertex 11.5 -19.918582916259766 3
      vertex 7.107390403747559 -21.874298095703125 -3
      vertex 11.5 -19.918582916259766 -3
    endloop
  endfacet
  facet normal -0.9945218880984124 0.10452853243573779 0
    outer loop
      vertex -23 0 -3
      vertex -22.497394561767578 4.781968116760254 3
      vertex -22.497394561767578 4.781968116760254 -3
    endloop
  endfacet
  facet normal -0.9945218880984124 0.10452853243573779 0
    outer loop
      vertex -22.497394561767578 4.781968116760254 3
      vertex -23 0 -3
      vertex -23 0 3
    endloop
  endfacet
  facet normal 0.8660254683074701 0.49999988824281477 0
    outer loop
      vertex 21.011545181274414 9.354942321777344 3
      vertex 18.607391357421875 13.519060134887695 -3
      vertex 18.607391357421875 13.519060134887695 3
    endloop
  endfacet
  facet normal 0.8660254683074701 0.49999988824281477 0
    outer loop
      vertex 18.607391357421875 13.519060134887695 -3
      vertex 21.011545181274414 9.354942321777344 3
      vertex 21.011545181274414 9.354942321777344 -3
    endloop
  endfacet
  facet normal -0.2079121827373972 0.9781474961729295 0
    outer loop
      vertex -2.404153823852539 22.874004364013672 -3
      vertex -7.107390403747559 21.874298095703125 3
      vertex -2.404153823852539 22.874004364013672 3
    endloop
  endfacet
  facet normal -0.2079121827373972 0.9781474961729295 0
    outer loop
      vertex -7.107390403747559 21.874298095703125 3
      vertex -2.404153823852539 22.874004364013672 -3
      vertex -7.107390403747559 21.874298095703125 -3
    endloop
  endfacet
  facet normal -0.587785146337527 0.8090170713557113 0
    outer loop
      vertex -11.5 19.918582916259766 -3
      vertex -15.390003204345703 17.092330932617188 3
      vertex -11.5 19.918582916259766 3
    endloop
  endfacet
  facet normal -0.587785146337527 0.8090170713557113 0
    outer loop
      vertex -15.390003204345703 17.092330932617188 3
      vertex -11.5 19.918582916259766 -3
      vertex -15.390003204345703 17.092330932617188 -3
    endloop
  endfacet
  facet normal 0.587785146337527 -0.8090170713557113 0
    outer loop
      vertex 11.5 -19.918582916259766 -3
      vertex 15.390003204345703 -17.092330932617188 3
      vertex 11.5 -19.918582916259766 3
    endloop
  endfacet
  facet normal 0.587785146337527 -0.8090170713557113 0
    outer loop
      vertex 15.390003204345703 -17.092330932617188 3
      vertex 11.5 -19.918582916259766 -3
      vertex 15.390003204345703 -17.092330932617188 -3
    endloop
  endfacet
  facet normal -0.9945218880984124 -0.10452853243573779 0
    outer loop
      vertex -22.497394561767578 -4.781968116760254 -3
      vertex -23 0 3
      vertex -23 0 -3
    endloop
  endfacet
  facet normal -0.9945218880984124 -0.10452853243573779 0
    outer loop
      vertex -23 0 3
      vertex -22.497394561767578 -4.781968116760254 -3
      vertex -22.497394561767578 -4.781968116760254 3
    endloop
  endfacet
  facet normal 0 1 0
    outer loop
      vertex 2.404153823852539 22.874004364013672 -3
      vertex -2.404153823852539 22.874004364013672 3
      vertex 2.404153823852539 22.874004364013672 3
    endloop
  endfacet
  facet normal 0 1 0
    outer loop
      vertex -2.404153823852539 22.874004364013672 3
      vertex 2.404153823852539 22.874004364013672 -3
      vertex -2.404153823852539 22.874004364013672 -3
    endloop
  endfacet
  facet normal -0.8660254683074701 0.49999988824281477 0
    outer loop
      vertex -21.011545181274414 9.354942321777344 -3
      vertex -18.607391357421875 13.519060134887695 3
      vertex -18.607391357421875 13.519060134887695 -3
    endloop
  endfacet
  facet normal -0.8660254683074701 0.49999988824281477 0
    outer loop
      vertex -18.607391357421875 13.519060134887695 3
      vertex -21.011545181274414 9.354942321777344 -3
      vertex -21.011545181274414 9.354942321777344 3
    endloop
  endfacet
  facet normal 0 0 1
    outer loop
      vertex 22.497394561767578 4.781968116760254 3
      vertex 22.497394561767578 -4.781968116760254 3
      vertex 23 0 3
    endloop
  endfacet
  facet normal 0 0 1
    outer loop
      vertex 21.011545181274414 9.354942321777344 3
      vertex 22.497394561767578 -4.781968116760254 3
      vertex 22.497394561767578 4.781968116760254 3
    endloop
  endfacet
  facet normal 0 0 1
    outer loop
      vertex 21.011545181274414 9.354942321777344 3
      vertex 21.011545181274414 -9.354942321777344 3
      vertex 22.497394561767578 -4.781968116760254 3
    endloop
  endfacet
  facet normal 0 0 1
    outer loop
      vertex 18.607391357421875 13.519060134887695 3
      vertex 21.011545181274414 -9.354942321777344 3
      vertex 21.011545181274414 9.354942321777344 3
    endloop
  endfacet
  facet normal 0 0 1
    outer loop
      vertex 18.607391357421875 13.519060134887695 3
      vertex 18.607391357421875 -13.519060134887695 3
      vertex 21.011545181274414 -9.354942321777344 3
    endloop
  endfacet
  facet normal 0 0 1
    outer loop
      vertex 15.390003204345703 17.092330932617188 3
      vertex 18.607391357421875 -13.519060134887695 3
      vertex 18.607391357421875 13.519060134887695 3
    endloop
  endfacet
  facet normal 0 0 1
    outer loop
      vertex 15.390003204345703 17.092330932617188 3
      vertex 15.390003204345703 -17.092330932617188 3
      vertex 18.607391357421875 -13.519060134887695 3
    endloop
  endfacet
  facet normal 0 0 1
    outer loop
      vertex 11.5 19.918582916259766 3
      vertex 15.390003204345703 -17.092330932617188 3
      vertex 15.390003204345703 17.092330932617188 3
    endloop
  endfacet
  facet normal 0 0 1
    outer loop
      vertex 11.5 19.918582916259766 3
      vertex 11.5 -19.918582916259766 3
      vertex 15.390003204345703 -17.092330932617188 3
    endloop
  endfacet
  facet normal 0 0 1
    outer loop
      vertex 7.107390403747559 21.874298095703125 3
      vertex 11.5 -19.918582916259766 3
      vertex 11.5 19.918582916259766 3
    endloop
  endfacet
  facet normal 0 0 1
    outer loop
      vertex 7.107390403747559 21.874298095703125 3
      vertex 7.107390403747559 -21.874298095703125 3
      vertex 11.5 -19.918582916259766 3
    endloop
  endfacet
  facet normal 0 0 1
    outer loop
      vertex 2.404153823852539 22.874004364013672 3
      vertex 7.107390403747559 -21.874298095703125 3
      vertex 7.107390403747559 21.874298095703125 3
    endloop
  endfacet
  facet normal 0 0 1
    outer loop
      vertex 2.404153823852539 22.874004364013672 3
      vertex 2.404153823852539 -22.874004364013672 3
      vertex 7.107390403747559 -21.874298095703125 3
    endloop
  endfacet
  facet normal 0 0 1
    outer loop
      vertex -2.404153823852539 22.874004364013672 3
      vertex 2.404153823852539 -22.874004364013672 3
      vertex 2.404153823852539 22.874004364013672 3
    endloop
  endfacet
  facet normal 0 0 1
    outer loop
      vertex -2.404153823852539 22.874004364013672 3
      vertex -2.404153823852539 -22.874004364013672 3
      vertex 2.404153823852539 -22.874004364013672 3
    endloop
  endfacet
  facet normal 0 0 1
    outer loop
      vertex -7.107390403747559 21.874298095703125 3
      vertex -2.404153823852539 -22.874004364013672 3
      vertex -2.404153823852539 22.874004364013672 3
    endloop
  endfacet
  facet normal 0 0 1
    outer loop
      vertex -7.107390403747559 21.874298095703125 3
      vertex -7.107390403747559 -21.874298095703125 3
      vertex -2.404153823852539 -22.874004364013672 3
    endloop
  endfacet
  facet normal 0 0 1
    outer loop
      vertex -11.5 19.918582916259766 3
      vertex -7.107390403747559 -21.874298095703125 3
      vertex -7.107390403747559 21.874298095703125 3
    endloop
  endfacet
  facet normal 0 0 1
    outer loop
      vertex -11.5 19.918582916259766 3
      vertex -11.5 -19.918582916259766 3
      vertex -7.107390403747559 -21.874298095703125 3
    endloop
  endfacet
  facet normal 0 0 1
    outer loop
      vertex -15.390003204345703 17.092330932617188 3
      vertex -11.5 -19.918582916259766 3
      vertex -11.5 19.918582916259766 3
    endloop
  endfacet
  facet normal 0 0 1
    outer loop
      vertex -15.390003204345703 17.092330932617188 3
      vertex -15.390003204345703 -17.092330932617188 3
      vertex -11.5 -19.918582916259766 3
    endloop
  endfacet
  facet normal 0 0 1
    outer loop
      vertex -18.607391357421875 13.519060134887695 3
      vertex -15.390003204345703 -17.092330932617188 3
      vertex -15.390003204345703 17.092330932617188 3
    endloop
  endfacet
  facet normal 0 0 1
    outer loop
      vertex -18.607391357421875 13.519060134887695 3
      vertex -18.607391357421875 -13.519060134887695 3
      vertex -15.390003204345703 -17.092330932617188 3
    endloop
  endfacet
  facet normal 0 0 1
    outer loop
      vertex -21.011545181274414 9.354942321777344 3
      vertex -18.607391357421875 -13.519060134887695 3
      vertex -18.607391357421875 13.519060134887695 3
    endloop
  endfacet
  facet normal 0 0 1
    outer loop
      vertex -21.011545181274414 9.354942321777344 3
      vertex -21.011545181274414 -9.354942321777344 3
      vertex -18.607391357421875 -13.519060134887695 3
    endloop
  endfacet
  facet normal 0 0 1
    outer loop
      vertex -22.497394561767578 4.781968116760254 3
      vertex -21.011545181274414 -9.354942321777344 3
      vertex -21.011545181274414 9.354942321777344 3
    endloop
  endfacet
  facet normal 0 0 1
    outer loop
      vertex -22.497394561767578 4.781968116760254 3
      vertex -22.497394561767578 -4.781968116760254 3
      vertex -21.011545181274414 -9.354942321777344 3
    endloop
  endfacet
  facet normal 0 0 1
    outer loop
      vertex -22.497394561767578 -4.781968116760254 3
      vertex -22.497394561767578 4.781968116760254 3
      vertex -23 0 3
    endloop
  endfacet
  facet normal 0.8660254683074701 -0.49999988824281477 0
    outer loop
      vertex 18.607391357421875 -13.519060134887695 3
      vertex 21.011545181274414 -9.354942321777344 -3
      vertex 21.011545181274414 -9.354942321777344 3
    endloop
  endfacet
  facet normal 0.8660254683074701 -0.49999988824281477 0
    outer loop
      vertex 21.011545181274414 -9.354942321777344 -3
      vertex 18.607391357421875 -13.519060134887695 3
      vertex 18.607391357421875 -13.519060134887695 -3
    endloop
  endfacet
  facet normal 0.9510565168502562 -0.30901699266651744 0
    outer loop
      vertex 21.011545181274414 -9.354942321777344 3
      vertex 22.497394561767578 -4.781968116760254 -3
      vertex 22.497394561767578 -4.781968116760254 3
    endloop
  endfacet
  facet normal 0.9510565168502562 -0.30901699266651744 0
    outer loop
      vertex 22.497394561767578 -4.781968116760254 -3
      vertex 21.011545181274414 -9.354942321777344 3
      vertex 21.011545181274414 -9.354942321777344 -3
    endloop
  endfacet
  facet normal 0.9945218880984124 -0.10452853243573779 0
    outer loop
      vertex 22.497394561767578 -4.781968116760254 3
      vertex 23 0 -3
      vertex 23 0 3
    endloop
  endfacet
  facet normal 0.9945218880984124 -0.10452853243573779 0
    outer loop
      vertex 23 0 -3
      vertex 22.497394561767578 -4.781968116760254 3
      vertex 22.497394561767578 -4.781968116760254 -3
    endloop
  endfacet
  facet normal -0.2079121827373972 -0.9781474961729295 0
    outer loop
      vertex -7.107390403747559 -21.874298095703125 -3
      vertex -2.404153823852539 -22.874004364013672 3
      vertex -7.107390403747559 -21.874298095703125 3
    endloop
  endfacet
  facet normal -0.2079121827373972 -0.9781474961729295 0
    outer loop
      vertex -2.404153823852539 -22.874004364013672 3
      vertex -7.107390403747559 -21.874298095703125 -3
      vertex -2.404153823852539 -22.874004364013672 -3
    endloop
  endfacet
  facet normal 0.587785146337527 0.8090170713557113 0
    outer loop
      vertex 15.390003204345703 17.092330932617188 -3
      vertex 11.5 19.918582916259766 3
      vertex 15.390003204345703 17.092330932617188 3
    endloop
  endfacet
  facet normal 0.587785146337527 0.8090170713557113 0
    outer loop
      vertex 11.5 19.918582916259766 3
      vertex 15.390003204345703 17.092330932617188 -3
      vertex 11.5 19.918582916259766 -3
    endloop
  endfacet
  facet normal 0.40673653612887406 0.9135455052584327 0
    outer loop
      vertex 11.5 19.918582916259766 -3
      vertex 7.107390403747559 21.874298095703125 3
      vertex 11.5 19.918582916259766 3
    endloop
  endfacet
  facet normal 0.40673653612887406 0.9135455052584327 0
    outer loop
      vertex 7.107390403747559 21.874298095703125 3
      vertex 11.5 19.918582916259766 -3
      vertex 7.107390403747559 21.874298095703125 -3
    endloop
  endfacet
  facet normal 0.2079121827373972 0.9781474961729295 0
    outer loop
      vertex 7.107390403747559 21.874298095703125 -3
      vertex 2.404153823852539 22.874004364013672 3
      vertex 7.107390403747559 21.874298095703125 3
    endloop
  endfacet
  facet normal 0.2079121827373972 0.9781474961729295 0
    outer loop
      vertex 2.404153823852539 22.874004364013672 3
      vertex 7.107390403747559 21.874298095703125 -3
      vertex 2.404153823852539 22.874004364013672 -3
    endloop
  endfacet
  facet normal -0.40673653612887406 0.9135455052584327 0
    outer loop
      vertex -7.107390403747559 21.874298095703125 -3
      vertex -11.5 19.918582916259766 3
      vertex -7.107390403747559 21.874298095703125 3
    endloop
  endfacet
  facet normal -0.40673653612887406 0.9135455052584327 0
    outer loop
      vertex -11.5 19.918582916259766 3
      vertex -7.107390403747559 21.874298095703125 -3
      vertex -11.5 19.918582916259766 -3
    endloop
  endfacet
  facet normal 0 0 -1
    outer loop
      vertex 22.497394561767578 -4.781968116760254 -3
      vertex 22.497394561767578 4.781968116760254 -3
      vertex 23 0 -3
    endloop
  endfacet
  facet normal 0 0 -1
    outer loop
      vertex 21.011545181274414 -9.354942321777344 -3
      vertex 22.497394561767578 4.781968116760254 -3
      vertex 22.497394561767578 -4.781968116760254 -3
    endloop
  endfacet
  facet normal 0 0 -1
    outer loop
      vertex 21.011545181274414 -9.354942321777344 -3
      vertex 21.011545181274414 9.354942321777344 -3
      vertex 22.497394561767578 4.781968116760254 -3
    endloop
  endfacet
  facet normal 0 0 -1
    outer loop
      vertex 18.607391357421875 -13.519060134887695 -3
      vertex 21.011545181274414 9.354942321777344 -3
      vertex 21.011545181274414 -9.354942321777344 -3
    endloop
  endfacet
  facet normal 0 0 -1
    outer loop
      vertex 18.607391357421875 -13.519060134887695 -3
      vertex 18.607391357421875 13.519060134887695 -3
      vertex 21.011545181274414 9.354942321777344 -3
    endloop
  endfacet
  facet normal 0 0 -1
    outer loop
      vertex 15.390003204345703 -17.092330932617188 -3
      vertex 18.607391357421875 13.519060134887695 -3
      vertex 18.607391357421875 -13.519060134887695 -3
    endloop
  endfacet
  facet normal 0 0 -1
    outer loop
      vertex 15.390003204345703 -17.092330932617188 -3
      vertex 15.390003204345703 17.092330932617188 -3
      vertex 18.607391357421875 13.519060134887695 -3
    endloop
  endfacet
  facet normal 0 0 -1
    outer loop
      vertex 11.5 -19.918582916259766 -3
      vertex 15.390003204345703 17.092330932617188 -3
      vertex 15.390003204345703 -17.092330932617188 -3
    endloop
  endfacet
  facet normal 0 0 -1
    outer loop
      vertex 11.5 -19.918582916259766 -3
      vertex 11.5 19.918582916259766 -3
      vertex 15.390003204345703 17.092330932617188 -3
    endloop
  endfacet
  facet normal 0 0 -1
    outer loop
      vertex 7.107390403747559 -21.874298095703125 -3
      vertex 11.5 19.918582916259766 -3
      vertex 11.5 -19.918582916259766 -3
    endloop
  endfacet
  facet normal 0 0 -1
    outer loop
      vertex 7.107390403747559 -21.874298095703125 -3
      vertex 7.107390403747559 21.874298095703125 -3
      vertex 11.5 19.918582916259766 -3
    endloop
  endfacet
  facet normal 0 0 -1
    outer loop
      vertex 2.404153823852539 -22.874004364013672 -3
      vertex 7.107390403747559 21.874298095703125 -3
      vertex 7.107390403747559 -21.874298095703125 -3
    endloop
  endfacet
  facet normal 0 0 -1
    outer loop
      vertex 2.404153823852539 -22.874004364013672 -3
      vertex 2.404153823852539 22.874004364013672 -3
      vertex 7.107390403747559 21.874298095703125 -3
    endloop
  endfacet
  facet normal 0 0 -1
    outer loop
      vertex -2.404153823852539 -22.874004364013672 -3
      vertex 2.404153823852539 22.874004364013672 -3
      vertex 2.404153823852539 -22.874004364013672 -3
    endloop
  endfacet
  facet normal 0 0 -1
    outer loop
      vertex -2.404153823852539 -22.874004364013672 -3
      vertex -2.404153823852539 22.874004364013672 -3
      vertex 2.404153823852539 22.874004364013672 -3
    endloop
  endfacet
  facet normal 0 0 -1
    outer loop
      vertex -7.107390403747559 -21.874298095703125 -3
      vertex -2.404153823852539 22.874004364013672 -3
      vertex -2.404153823852539 -22.874004364013672 -3
    endloop
  endfacet
  facet normal 0 0 -1
    outer loop
      vertex -7.107390403747559 -21.874298095703125 -3
      vertex -7.107390403747559 21.874298095703125 -3
      vertex -2.404153823852539 22.874004364013672 -3
    endloop
  endfacet
  facet normal 0 0 -1
    outer loop
      vertex -11.5 -19.918582916259766 -3
      vertex -7.107390403747559 21.874298095703125 -3
      vertex -7.107390403747559 -21.874298095703125 -3
    endloop
  endfacet
  facet normal 0 0 -1
    outer loop
      vertex -11.5 -19.918582916259766 -3
      vertex -11.5 19.918582916259766 -3
      vertex -7.107390403747559 21.874298095703125 -3
    endloop
  endfacet
  facet normal 0 0 -1
    outer loop
      vertex -15.390003204345703 -17.092330932617188 -3
      vertex -11.5 19.918582916259766 -3
      vertex -11.5 -19.918582916259766 -3
    endloop
  endfacet
  facet normal 0 0 -1
    outer loop
      vertex -15.390003204345703 -17.092330932617188 -3
      vertex -15.390003204345703 17.092330932617188 -3
      vertex -11.5 19.918582916259766 -3
    endloop
  endfacet
  facet normal 0 0 -1
    outer loop
      vertex -18.607391357421875 -13.519060134887695 -3
      vertex -15.390003204345703 17.092330932617188 -3
      vertex -15.390003204345703 -17.092330932617188 -3
    endloop
  endfacet
  facet normal 0 0 -1
    outer loop
      vertex -18.607391357421875 -13.519060134887695 -3
      vertex -18.607391357421875 13.519060134887695 -3
      vertex -15.390003204345703 17.092330932617188 -3
    endloop
  endfacet
  facet normal 0 0 -1
    outer loop
      vertex -21.011545181274414 -9.354942321777344 -3
      vertex -18.607391357421875 13.519060134887695 -3
      vertex -18.607391357421875 -13.519060134887695 -3
    endloop
  endfacet
  facet normal 0 0 -1
    outer loop
      vertex -21.011545181274414 -9.354942321777344 -3
      vertex -21.011545181274414 9.354942321777344 -3
      vertex -18.607391357421875 13.519060134887695 -3
    endloop
  endfacet
  facet normal 0 0 -1
    outer loop
      vertex -22.497394561767578 -4.781968116760254 -3
      vertex -21.011545181274414 9.354942321777344 -3
      vertex -21.011545181274414 -9.354942321777344 -3
    endloop
  endfacet
  facet normal 0 0 -1
    outer loop
      vertex -22.497394561767578 -4.781968116760254 -3
      vertex -22.497394561767578 4.781968116760254 -3
      vertex -21.011545181274414 9.354942321777344 -3
    endloop
  endfacet
  facet normal 0 0 -1
    outer loop
      vertex -22.497394561767578 4.781968116760254 -3
      vertex -22.497394561767578 -4.781968116760254 -3
      vertex -23 0 -3
    endloop
  endfacet
  facet normal -0.8660254683074701 -0.49999988824281477 0
    outer loop
      vertex -18.607391357421875 -13.519060134887695 -3
      vertex -21.011545181274414 -9.354942321777344 3
      vertex -21.011545181274414 -9.354942321777344 -3
    endloop
  endfacet
  facet normal -0.8660254683074701 -0.49999988824281477 0
    outer loop
      vertex -21.011545181274414 -9.354942321777344 3
      vertex -18.607391357421875 -13.519060134887695 -3
      vertex -18.607391357421875 -13.519060134887695 3
    endloop
  endfacet
  facet normal 0.7431447556265471 0.6691306839360751 0
    outer loop
      vertex 18.607391357421875 13.519060134887695 3
      vertex 15.390003204345703 17.092330932617188 -3
      vertex 15.390003204345703 17.092330932617188 3
    endloop
  endfacet
  facet normal 0.7431447556265471 0.6691306839360751 0
    outer loop
      vertex 15.390003204345703 17.092330932617188 -3
      vertex 18.607391357421875 13.519060134887695 3
      vertex 18.607391357421875 13.519060134887695 -3
    endloop
  endfacet
  facet normal -0.40673653612887406 -0.9135455052584327 0
    outer loop
      vertex -11.5 -19.918582916259766 -3
      vertex -7.107390403747559 -21.874298095703125 3
      vertex -11.5 -19.918582916259766 3
    endloop
  endfacet
  facet normal -0.40673653612887406 -0.9135455052584327 0
    outer loop
      vertex -7.107390403747559 -21.874298095703125 3
      vertex -11.5 -19.918582916259766 -3
      vertex -7.107390403747559 -21.874298095703125 -3
    endloop
  endfacet
endsolid OpenSCAD_Model
