solid OpenSCAD_Model
  facet normal 0 -1 0
    outer loop
      vertex -4.7736505762101595 -10 -5.358533647538581
      vertex 0.6323513006439967 -10 -9.983278808512154
      vertex -5.273873632551652 -10 6.818395216661756
    endloop
  endfacet
  facet normal 0 -1 0
    outer loop
      vertex 0.6323513006439967 -10 -9.983278808512154
      vertex 3.2844118612164883 -10 -3.2180043947472794
      vertex -5.273873632551652 -10 6.818395216661756
    endloop
  endfacet
  facet normal 0 0 1
    outer loop
      vertex -11.056206997060846 -2.4969702998938796 10
      vertex 5.439393564858922 -1.7113156212779361 10
      vertex -12.141748577832365 -1.0558206865810829 10
    endloop
  endfacet
  facet normal 0 0 1
    outer loop
      vertex -12.141748577832365 -1.0558206865810829 10
      vertex 5.439393564858922 -1.7113156212779361 10
      vertex -0.6432046168151226 9.983287358686882 10
    endloop
  endfacet
  facet normal 0 1 0
    outer loop
      vertex -3.2844118612164888 10 3.218004394747271
      vertex -0.6323513006439967 10 9.983278808512154
      vertex -3.4800533551659902 10 -6.647857402710399
    endloop
  endfacet
  facet normal 0 0 -1
    outer loop
      vertex -5.439393564858922 1.7113156212779361 -10
      vertex 11.056206997060844 2.496970299893882 -10
      vertex 0.6432046168151226 -9.983287358686882 -10
    endloop
  endfacet
  facet normal 0 0 -1
    outer loop
      vertex 12.141748577832365 1.0558206865810829 -10
      vertex 0.6432046168151226 -9.983287358686882 -10
      vertex 11.056206997060844 2.496970299893882 -10
    endloop
  endfacet
  facet normal 0 -1 0
    outer loop
      vertex -5.273873632551652 -10 6.818395216661756
      vertex 3.2844118612164883 -10 -3.2180043947472794
      vertex 3.4800533551659902 -10 6.647857402710399
    endloop
  endfacet
  facet normal 0 1 0
    outer loop
      vertex -3.4800533551659902 10 -6.647857402710399
      vertex 4.7736505762101595 10 5.358533647538581
      vertex 5.273873632551652 10 -6.818395216661758
    endloop
  endfacet
  facet normal 0 1 0
    outer loop
      vertex -0.6323513006439967 10 9.983278808512154
      vertex 4.7736505762101595 10 5.358533647538581
      vertex -3.4800533551659902 10 -6.647857402710399
    endloop
  endfacet
  facet normal -0.8825641192593855 -0.4409696105298826 -0.16317591116653424
    outer loop
      vertex -12.12392914464164 3.4599748063591504 -5.059563567915143
      vertex -6.712330693360275 -7.454925720061919 -4.832466241460521
      vertex -12.512228923131744 3.122209330838573 -2.04659579168057
    endloop
  endfacet
  facet normal -0.8825641192593856 -0.4409696105298825 -0.1631759111665347
    outer loop
      vertex -6.712330693360275 -7.454925720061919 -4.832466241460521
      vertex -12.491868420372965 -0.45527205927214615 7.51113313375103
      vertex -12.512228923131744 3.122209330838573 -2.04659579168057
    endloop
  endfacet
  facet normal 0.01802831123629698 -0.3785223063697924 0.9254165783983233
    outer loop
      vertex -11.056206997060846 -2.4969702998938796 10
      vertex -5.273873632551652 -10 6.818395216661756
      vertex 5.439393564858922 -1.7113156212779361 10
    endloop
  endfacet
  facet normal -0.018028311236297053 0.3785223063697928 -0.9254165783983231
    outer loop
      vertex -9.384994298790652 5.573839584186107 -8.343249912868803
      vertex 11.056206997060844 2.496970299893882 -10
      vertex -5.439393564858922 1.7113156212779361 -10
    endloop
  endfacet
  facet normal -0.018028311236297133 0.37852230636979234 -0.9254165783983235
    outer loop
      vertex -3.4800533551659902 10 -6.647857402710399
      vertex 11.056206997060844 2.496970299893882 -10
      vertex -9.384994298790652 5.573839584186107 -8.343249912868803
    endloop
  endfacet
  facet normal 0.01802831123629707 -0.3785223063697925 0.9254165783983233
    outer loop
      vertex -5.273873632551652 -10 6.818395216661756
      vertex 3.4800533551659902 -10 6.647857402710399
      vertex 5.439393564858922 -1.7113156212779361 10
    endloop
  endfacet
  facet normal 0.018028311236297327 -0.37852230636979267 0.9254165783983233
    outer loop
      vertex 3.4800533551659902 -10 6.647857402710399
      vertex 9.384994298790652 -5.573839584186107 8.343249912868803
      vertex 5.439393564858922 -1.7113156212779361 10
    endloop
  endfacet
  facet normal -0.018028311236297265 0.37852230636979217 -0.9254165783983235
    outer loop
      vertex -3.4800533551659902 10 -6.647857402710399
      vertex 5.273873632551652 10 -6.818395216661758
      vertex 11.056206997060844 2.496970299893882 -10
    endloop
  endfacet
  facet normal 0.8825641192593855 0.4409696105298825 0.16317591116653477
    outer loop
      vertex 12.512228923131744 -3.1222093308385728 2.046595791680569
      vertex 12.491868420372965 0.45527205927214626 -7.51113313375103
      vertex 6.712330693360275 7.454925720061919 4.832466241460521
    endloop
  endfacet
  facet normal 0.8825641192593856 0.44096961052988265 0.16317591116653413
    outer loop
      vertex 12.512228923131744 -3.1222093308385728 2.046595791680569
      vertex 6.712330693360275 7.454925720061919 4.832466241460521
      vertex 12.12392914464164 -3.45997480635915 5.059563567915144
    endloop
  endfacet
  facet normal -0.6158166083678386 -0.32029860173279356 -0.7198463103929544
    outer loop
      vertex -4.7736505762101595 -10 -5.358533647538581
      vertex -6.712330693360275 -7.454925720061919 -4.832466241460521
      vertex 0.6323513006439967 -10 -9.983278808512154
    endloop
  endfacet
  facet normal -0.6158166083678531 -0.32029860173280117 -0.7198463103929382
    outer loop
      vertex -5.439393564858922 1.7113156212779361 -10
      vertex 0.6432046168151226 -9.983287358686882 -10
      vertex 0.6323513006439967 -10 -9.983278808512154
    endloop
  endfacet
  facet normal -0.6158166083678385 -0.3202986017327936 -0.7198463103929543
    outer loop
      vertex -6.712330693360275 -7.454925720061919 -4.832466241460521
      vertex -12.12392914464164 3.4599748063591504 -5.059563567915143
      vertex 0.6323513006439967 -10 -9.983278808512154
    endloop
  endfacet
  facet normal -0.6158166083678385 -0.3202986017327935 -0.7198463103929544
    outer loop
      vertex 0.6323513006439967 -10 -9.983278808512154
      vertex -12.12392914464164 3.4599748063591504 -5.059563567915143
      vertex -5.439393564858922 1.7113156212779361 -10
    endloop
  endfacet
  facet normal -0.6158166083678385 -0.3202986017327929 -0.7198463103929547
    outer loop
      vertex -12.12392914464164 3.4599748063591504 -5.059563567915143
      vertex -9.384994298790652 5.573839584186107 -8.343249912868803
      vertex -5.439393564858922 1.7113156212779361 -10
    endloop
  endfacet
  facet normal -0.6683556616246091 0.6961719121935438 0.2620026302293847
    outer loop
      vertex -3.2844118612164888 10 3.218004394747271
      vertex -12.512228923131744 3.122209330838573 -2.04659579168057
      vertex -12.491868420372965 -0.45527205927214615 7.51113313375103
    endloop
  endfacet
  facet normal -0.6683556616246088 0.6961719121935439 0.2620026302293854
    outer loop
      vertex -3.2844118612164888 10 3.218004394747271
      vertex -12.491868420372965 -0.45527205927214615 7.51113313375103
      vertex -12.141748577832365 -1.0558206865810829 10
    endloop
  endfacet
  facet normal -0.6683556616246091 0.6961719121935438 0.26200263022938497
    outer loop
      vertex -3.2844118612164888 10 3.218004394747271
      vertex -12.141748577832365 -1.0558206865810829 10
      vertex -0.6323513006439967 10 9.983278808512154
    endloop
  endfacet
  facet normal -0.6683556616246124 0.6961719121935472 0.2620026302293682
    outer loop
      vertex -12.141748577832365 -1.0558206865810829 10
      vertex -0.6432046168151226 9.983287358686882 10
      vertex -0.6323513006439967 10 9.983278808512154
    endloop
  endfacet
  facet normal 0.6683556616245925 -0.6961719121935621 -0.2620026302293787
    outer loop
      vertex 0.6432046168151226 -9.983287358686882 -10
      vertex 3.2844118612164883 -10 -3.2180043947472794
      vertex 0.6323513006439967 -10 -9.983278808512154
    endloop
  endfacet
  facet normal 0.6683556616246094 -0.6961719121935434 -0.26200263022938525
    outer loop
      vertex 3.2844118612164883 -10 -3.2180043947472794
      vertex 0.6432046168151226 -9.983287358686882 -10
      vertex 12.512228923131744 -3.1222093308385728 2.046595791680569
    endloop
  endfacet
  facet normal 0.6683556616246091 -0.6961719121935439 -0.26200263022938475
    outer loop
      vertex 12.512228923131744 -3.1222093308385728 2.046595791680569
      vertex 0.6432046168151226 -9.983287358686882 -10
      vertex 12.141748577832365 1.0558206865810829 -10
    endloop
  endfacet
  facet normal 0.6683556616246087 -0.6961719121935444 -0.2620026302293849
    outer loop
      vertex 12.512228923131744 -3.1222093308385728 2.046595791680569
      vertex 12.141748577832365 1.0558206865810829 -10
      vertex 12.491868420372965 0.45527205927214626 -7.51113313375103
    endloop
  endfacet
  facet normal 0.615816608367838 0.3202986017327934 0.7198463103929549
    outer loop
      vertex 9.384994298790652 -5.573839584186107 8.343249912868803
      vertex 12.12392914464164 -3.45997480635915 5.059563567915144
      vertex 6.712330693360275 7.454925720061919 4.832466241460521
    endloop
  endfacet
  facet normal 0.6158166083678389 0.32029860173279373 0.7198463103929539
    outer loop
      vertex -0.6432046168151226 9.983287358686882 10
      vertex 5.439393564858922 -1.7113156212779361 10
      vertex 9.384994298790652 -5.573839584186107 8.343249912868803
    endloop
  endfacet
  facet normal 0.6158166083678385 0.32029860173279345 0.7198463103929544
    outer loop
      vertex 9.384994298790652 -5.573839584186107 8.343249912868803
      vertex 6.712330693360275 7.454925720061919 4.832466241460521
      vertex -0.6432046168151226 9.983287358686882 10
    endloop
  endfacet
  facet normal 0.6158166083678354 0.3202986017328076 0.7198463103929507
    outer loop
      vertex -0.6432046168151226 9.983287358686882 10
      vertex 4.7736505762101595 10 5.358533647538581
      vertex -0.6323513006439967 10 9.983278808512154
    endloop
  endfacet
  facet normal 0.6158166083678385 0.32029860173279356 0.7198463103929543
    outer loop
      vertex -0.6432046168151226 9.983287358686882 10
      vertex 6.712330693360275 7.454925720061919 4.832466241460521
      vertex 4.7736505762101595 10 5.358533647538581
    endloop
  endfacet
  facet normal -0.7983237394079709 -0.6013349384678104 -0.0327947995204823
    outer loop
      vertex -4.7736505762101595 -10 -5.358533647538581
      vertex -5.273873632551652 -10 6.818395216661756
      vertex -6.712330693360275 -7.454925720061919 -4.832466241460521
    endloop
  endfacet
  facet normal -0.798323739407971 -0.6013349384678105 -0.03279479952048232
    outer loop
      vertex -5.273873632551652 -10 6.818395216661756
      vertex -11.056206997060846 -2.4969702998938796 10
      vertex -6.712330693360275 -7.454925720061919 -4.832466241460521
    endloop
  endfacet
  facet normal -0.798323739407971 -0.6013349384678105 -0.03279479952048233
    outer loop
      vertex -6.712330693360275 -7.454925720061919 -4.832466241460521
      vertex -11.056206997060846 -2.4969702998938796 10
      vertex -12.491868420372965 -0.45527205927214615 7.51113313375103
    endloop
  endfacet
  facet normal -0.7983237394079711 -0.6013349384678102 -0.03279479952048195
    outer loop
      vertex -11.056206997060846 -2.4969702998938796 10
      vertex -12.141748577832365 -1.0558206865810829 10
      vertex -12.491868420372965 -0.45527205927214615 7.51113313375103
    endloop
  endfacet
  facet normal -0.6019284983846794 0.7984607735123033 0.01193633086418283
    outer loop
      vertex -9.384994298790652 5.573839584186107 -8.343249912868803
      vertex -12.12392914464164 3.4599748063591504 -5.059563567915143
      vertex -3.2844118612164888 10 3.218004394747271
    endloop
  endfacet
  facet normal -0.6019284983846799 0.798460773512303 0.011936330864183399
    outer loop
      vertex -3.2844118612164888 10 3.218004394747271
      vertex -12.12392914464164 3.4599748063591504 -5.059563567915143
      vertex -12.512228923131744 3.122209330838573 -2.04659579168057
    endloop
  endfacet
  facet normal -0.6019284983846798 0.798460773512303 0.011936330864183088
    outer loop
      vertex -3.4800533551659902 10 -6.647857402710399
      vertex -9.384994298790652 5.573839584186107 -8.343249912868803
      vertex -3.2844118612164888 10 3.218004394747271
    endloop
  endfacet
  facet normal 0.6019284983846799 -0.798460773512303 -0.011936330864183105
    outer loop
      vertex 3.4800533551659902 -10 6.647857402710399
      vertex 3.2844118612164883 -10 -3.2180043947472794
      vertex 12.512228923131744 -3.1222093308385728 2.046595791680569
    endloop
  endfacet
  facet normal 0.6019284983846798 -0.798460773512303 -0.011936330864182953
    outer loop
      vertex 12.512228923131744 -3.1222093308385728 2.046595791680569
      vertex 9.384994298790652 -5.573839584186107 8.343249912868803
      vertex 3.4800533551659902 -10 6.647857402710399
    endloop
  endfacet
  facet normal 0.6019284983846791 -0.7984607735123036 -0.011936330864183518
    outer loop
      vertex 12.512228923131744 -3.1222093308385728 2.046595791680569
      vertex 12.12392914464164 -3.45997480635915 5.059563567915144
      vertex 9.384994298790652 -5.573839584186107 8.343249912868803
    endloop
  endfacet
  facet normal 0.7983237394079711 0.6013349384678103 0.032794799520482386
    outer loop
      vertex 11.056206997060844 2.496970299893882 -10
      vertex 6.712330693360275 7.454925720061919 4.832466241460521
      vertex 12.141748577832365 1.0558206865810829 -10
    endloop
  endfacet
  facet normal 0.7983237394079707 0.6013349384678106 0.03279479952048215
    outer loop
      vertex 12.141748577832365 1.0558206865810829 -10
      vertex 6.712330693360275 7.454925720061919 4.832466241460521
      vertex 12.491868420372965 0.45527205927214626 -7.51113313375103
    endloop
  endfacet
  facet normal 0.798323739407971 0.6013349384678105 0.0327947995204823
    outer loop
      vertex 5.273873632551652 10 -6.818395216661758
      vertex 6.712330693360275 7.454925720061919 4.832466241460521
      vertex 11.056206997060844 2.496970299893882 -10
    endloop
  endfacet
  facet normal 0.7983237394079711 0.6013349384678104 0.03279479952048231
    outer loop
      vertex 5.273873632551652 10 -6.818395216661758
      vertex 4.7736505762101595 10 5.358533647538581
      vertex 6.712330693360275 7.454925720061919 4.832466241460521
    endloop
  endfacet
endsolid OpenSCAD_Model
