solid OpenSCAD_Model
  facet normal 0 0 1
    outer loop
      vertex -0.6432046294212341 9.983287811279297 10
      vertex -0.4036617875099182 -1.989610195159912 10
      vertex 5.439393520355225 -1.7113158702850342 10
    endloop
  endfacet
  facet normal 0 0 1
    outer loop
      vertex -12.141748428344727 -1.0558205842971802 10
      vertex -0.4036617875099182 -1.989610195159912 10
      vertex -0.6432046294212341 9.983287811279297 10
    endloop
  endfacet
  facet normal 0 0 1
    outer loop
      vertex -0.4036617875099182 -1.989610195159912 10
      vertex -12.141748428344727 -1.0558205842971802 10
      vertex -11.056206703186035 -2.4969706535339355 10
    endloop
  endfacet
  facet normal 0 0 -1
    outer loop
      vertex 0.4036617875099182 1.989610195159912 -10
      vertex 12.141748428344727 1.0558205842971802 -10
      vertex 0.6432046294212341 -9.983287811279297 -10
    endloop
  endfacet
  facet normal 0 0 -1
    outer loop
      vertex 12.141748428344727 1.0558205842971802 -10
      vertex 0.4036617875099182 1.989610195159912 -10
      vertex 11.056206703186035 2.4969706535339355 -10
    endloop
  endfacet
  facet normal 0 0 -1
    outer loop
      vertex 0.4036617875099182 1.989610195159912 -10
      vertex 0.6432046294212341 -9.983287811279297 -10
      vertex -5.439393520355225 1.7113158702850342 -10
    endloop
  endfacet
  facet normal 0 1 0
    outer loop
      vertex 4.7736496925354 10 5.358534336090088
      vertex -3.2844111919403076 10 3.218006134033203
      vertex -0.6323514580726624 10 9.98327922821045
    endloop
  endfacet
  facet normal 0 1 0
    outer loop
      vertex 5.2738728523254395 10 -6.818395614624023
      vertex -3.2844111919403076 10 3.218006134033203
      vertex 4.7736496925354 10 5.358534336090088
    endloop
  endfacet
  facet normal 0 1 0
    outer loop
      vertex -3.2844111919403076 10 3.218006134033203
      vertex -2.201368570327759 10 -6.6727681159973145
      vertex -3.4800527095794678 10 -6.647857666015625
    endloop
  endfacet
  facet normal 0 1 0
    outer loop
      vertex -3.2844111919403076 10 3.218006134033203
      vertex 5.2738728523254395 10 -6.818395614624023
      vertex -2.201368570327759 10 -6.6727681159973145
    endloop
  endfacet
  facet normal 0 -1 0
    outer loop
      vertex 3.2844111919403076 -10 -3.218006134033203
      vertex 2.201368570327759 -10 6.6727681159973145
      vertex -5.2738728523254395 -10 6.818395614624023
    endloop
  endfacet
  facet normal 0 -1 0
    outer loop
      vertex 2.201368570327759 -10 6.6727681159973145
      vertex 3.2844111919403076 -10 -3.218006134033203
      vertex 3.4800527095794678 -10 6.647857666015625
    endloop
  endfacet
  facet normal 0 -1 0
    outer loop
      vertex -4.7736496925354 -10 -5.358534336090088
      vertex 3.2844111919403076 -10 -3.218006134033203
      vertex -5.2738728523254395 -10 6.818395614624023
    endloop
  endfacet
  facet normal 0 -1 0
    outer loop
      vertex 3.2844111919403076 -10 -3.218006134033203
      vertex -4.7736496925354 -10 -5.358534336090088
      vertex 0.6323514580726624 -10 -9.98327922821045
    endloop
  endfacet
  facet normal 0.018028327643386174 -0.3785223042256854 0.925416578955694
    outer loop
      vertex -0.4036617875099182 -1.989610195159912 10
      vertex -5.2738728523254395 -10 6.818395614624023
      vertex 2.201368570327759 -10 6.6727681159973145
    endloop
  endfacet
  facet normal 0.01802826080094642 -0.37852226971085334 0.9254165943754398
    outer loop
      vertex -0.4036617875099182 -1.989610195159912 10
      vertex -9.284698486328125 -4.795640468597412 9.02526569366455
      vertex -5.2738728523254395 -10 6.818395614624023
    endloop
  endfacet
  facet normal 0.01802830127125802 -0.3785223816236792 0.9254165478114224
    outer loop
      vertex -9.284698486328125 -4.795640468597412 9.02526569366455
      vertex -0.4036617875099182 -1.989610195159912 10
      vertex -11.056206703186035 -2.4969706535339355 10
    endloop
  endfacet
  facet normal -0.8825641190713784 -0.44096963339001466 -0.16317585040574384
    outer loop
      vertex -12.502490043640137 1.411025881767273 2.5250635147094727
      vertex -7.628811359405518 -6.344966888427734 -2.8751022815704346
      vertex -12.491868019104004 -0.45527184009552 7.51113224029541
    endloop
  endfacet
  facet normal -0.8825643805240875 -0.4409683301731483 -0.1631779581145657
    outer loop
      vertex -7.628811359405518 -6.344966888427734 -2.8751022815704346
      vertex -12.502490043640137 1.411025881767273 2.5250635147094727
      vertex -7.51965856552124 -6.4771623611450195 -3.1082241535186768
    endloop
  endfacet
  facet normal 0.018028275053503618 -0.3785222811801503 0.9254165894065065
    outer loop
      vertex 5.439393520355225 -1.7113158702850342 10
      vertex 4.736518859863281 -9.058192253112793 7.008606910705566
      vertex 9.384993553161621 -5.5738396644592285 8.343250274658203
    endloop
  endfacet
  facet normal 0.01802834280336293 -0.37852228627573925 0.9254165860024078
    outer loop
      vertex -0.4036617875099182 -1.989610195159912 10
      vertex 4.736518859863281 -9.058192253112793 7.008606910705566
      vertex 5.439393520355225 -1.7113158702850342 10
    endloop
  endfacet
  facet normal 0.018028332344864215 -0.37852238013857 0.9254165478135211
    outer loop
      vertex 4.736518859863281 -9.058192253112793 7.008606910705566
      vertex 2.201368570327759 -10 6.6727681159973145
      vertex 3.4800527095794678 -10 6.647857666015625
    endloop
  endfacet
  facet normal 0.01802830294886744 -0.3785223112610453 0.9254165765591085
    outer loop
      vertex 4.736518859863281 -9.058192253112793 7.008606910705566
      vertex -0.4036617875099182 -1.989610195159912 10
      vertex 2.201368570327759 -10 6.6727681159973145
    endloop
  endfacet
  facet normal -0.01802830127125802 0.3785223816236792 -0.9254165478114224
    outer loop
      vertex 0.4036617875099182 1.989610195159912 -10
      vertex 9.284698486328125 4.795640468597412 -9.02526569366455
      vertex 11.056206703186035 2.4969706535339355 -10
    endloop
  endfacet
  facet normal -0.01802826080094642 0.37852226971085334 -0.9254165943754398
    outer loop
      vertex 0.4036617875099182 1.989610195159912 -10
      vertex 5.2738728523254395 10 -6.818395614624023
      vertex 9.284698486328125 4.795640468597412 -9.02526569366455
    endloop
  endfacet
  facet normal -0.018028327643386174 0.3785223042256854 -0.925416578955694
    outer loop
      vertex 5.2738728523254395 10 -6.818395614624023
      vertex 0.4036617875099182 1.989610195159912 -10
      vertex -2.201368570327759 10 -6.6727681159973145
    endloop
  endfacet
  facet normal -0.01802830294886744 0.3785223112610453 -0.9254165765591085
    outer loop
      vertex -4.736518859863281 9.058192253112793 -7.008606910705566
      vertex -2.201368570327759 10 -6.6727681159973145
      vertex 0.4036617875099182 1.989610195159912 -10
    endloop
  endfacet
  facet normal -0.018028332344864215 0.37852238013857 -0.9254165478135211
    outer loop
      vertex -2.201368570327759 10 -6.6727681159973145
      vertex -4.736518859863281 9.058192253112793 -7.008606910705566
      vertex -3.4800527095794678 10 -6.647857666015625
    endloop
  endfacet
  facet normal -0.01802834280336293 0.37852228627573925 -0.9254165860024078
    outer loop
      vertex -5.439393520355225 1.7113158702850342 -10
      vertex -4.736518859863281 9.058192253112793 -7.008606910705566
      vertex 0.4036617875099182 1.989610195159912 -10
    endloop
  endfacet
  facet normal -0.018028275053503618 0.3785222811801503 -0.9254165894065065
    outer loop
      vertex -4.736518859863281 9.058192253112793 -7.008606910705566
      vertex -5.439393520355225 1.7113158702850342 -10
      vertex -9.384993553161621 5.5738396644592285 -8.343250274658203
    endloop
  endfacet
  facet normal -0.8825641081138469 -0.44096961743098356 -0.1631759527993685
    outer loop
      vertex -7.51965856552124 -6.4771623611450195 -3.1082241535186768
      vertex -12.512228965759277 3.122209072113037 -2.046595335006714
      vertex -12.123929023742676 3.459974527359009 -5.059563159942627
    endloop
  endfacet
  facet normal -0.8825641126734575 -0.44096962470326967 -0.1631759084851993
    outer loop
      vertex -12.512228965759277 3.122209072113037 -2.046595335006714
      vertex -7.51965856552124 -6.4771623611450195 -3.1082241535186768
      vertex -12.502490043640137 1.411025881767273 2.5250635147094727
    endloop
  endfacet
  facet normal -0.8825641538810018 -0.4409695995282612 -0.16317575364065692
    outer loop
      vertex -7.51965856552124 -6.4771623611450195 -3.1082241535186768
      vertex -12.123929023742676 3.459974527359009 -5.059563159942627
      vertex -6.712331771850586 -7.4549241065979 -4.832466125488281
    endloop
  endfacet
  facet normal 0.8825643805240875 0.4409683301731483 0.1631779581145657
    outer loop
      vertex 12.502490043640137 -1.411025881767273 -2.5250635147094727
      vertex 7.628811359405518 6.344966888427734 2.8751022815704346
      vertex 7.51965856552124 6.4771623611450195 3.1082241535186768
    endloop
  endfacet
  facet normal 0.8825641190713784 0.44096963339001466 0.16317585040574384
    outer loop
      vertex 7.628811359405518 6.344966888427734 2.8751022815704346
      vertex 12.502490043640137 -1.411025881767273 -2.5250635147094727
      vertex 12.491868019104004 0.45527184009552 -7.51113224029541
    endloop
  endfacet
  facet normal 0.8825641538810018 0.4409695995282612 0.16317575364065692
    outer loop
      vertex 12.123929023742676 -3.459974527359009 5.059563159942627
      vertex 7.51965856552124 6.4771623611450195 3.1082241535186768
      vertex 6.712331771850586 7.4549241065979 4.832466125488281
    endloop
  endfacet
  facet normal 0.8825641126734575 0.44096962470326967 0.1631759084851993
    outer loop
      vertex 7.51965856552124 6.4771623611450195 3.1082241535186768
      vertex 12.512228965759277 -3.122209072113037 2.046595335006714
      vertex 12.502490043640137 -1.411025881767273 -2.5250635147094727
    endloop
  endfacet
  facet normal 0.8825641081138469 0.44096961743098356 0.1631759527993685
    outer loop
      vertex 7.51965856552124 6.4771623611450195 3.1082241535186768
      vertex 12.123929023742676 -3.459974527359009 5.059563159942627
      vertex 12.512228965759277 -3.122209072113037 2.046595335006714
    endloop
  endfacet
  facet normal -0.615817445715527 -0.3202949153063958 -0.7198472343360589
    outer loop
      vertex -4.7736496925354 -10 -5.358534336090088
      vertex 0.6432046294212341 -9.983287811279297 -10
      vertex 0.6323514580726624 -10 -9.98327922821045
    endloop
  endfacet
  facet normal -0.6158166156872967 -0.3202986579397649 -0.719846279121751
    outer loop
      vertex -6.712331771850586 -7.4549241065979 -4.832466125488281
      vertex 0.6432046294212341 -9.983287811279297 -10
      vertex -4.7736496925354 -10 -5.358534336090088
    endloop
  endfacet
  facet normal -0.6158166142471352 -0.32029858389524957 -0.7198463133002022
    outer loop
      vertex 0.6432046294212341 -9.983287811279297 -10
      vertex -6.712331771850586 -7.4549241065979 -4.832466125488281
      vertex -5.439393520355225 1.7113158702850342 -10
    endloop
  endfacet
  facet normal -0.615816625051485 -0.32029857852991944 -0.7198463064445852
    outer loop
      vertex -12.123929023742676 3.459974527359009 -5.059563159942627
      vertex -5.439393520355225 1.7113158702850342 -10
      vertex -6.712331771850586 -7.4549241065979 -4.832466125488281
    endloop
  endfacet
  facet normal -0.6158166245010037 -0.3202985918888607 -0.719846300971397
    outer loop
      vertex -5.439393520355225 1.7113158702850342 -10
      vertex -12.123929023742676 3.459974527359009 -5.059563159942627
      vertex -9.384993553161621 5.5738396644592285 -8.343250274658203
    endloop
  endfacet
  facet normal 0.615816625051485 0.32029857852991944 0.7198463064445852
    outer loop
      vertex 5.439393520355225 -1.7113158702850342 10
      vertex 12.123929023742676 -3.459974527359009 5.059563159942627
      vertex 6.712331771850586 7.4549241065979 4.832466125488281
    endloop
  endfacet
  facet normal 0.6158166245010037 0.3202985918888607 0.719846300971397
    outer loop
      vertex 12.123929023742676 -3.459974527359009 5.059563159942627
      vertex 5.439393520355225 -1.7113158702850342 10
      vertex 9.384993553161621 -5.5738396644592285 8.343250274658203
    endloop
  endfacet
  facet normal 0.6158166156872967 0.3202986579397649 0.719846279121751
    outer loop
      vertex -0.6432046294212341 9.983287811279297 10
      vertex 6.712331771850586 7.4549241065979 4.832466125488281
      vertex 4.7736496925354 10 5.358534336090088
    endloop
  endfacet
  facet normal 0.615817445715527 0.3202949153063958 0.7198472343360589
    outer loop
      vertex -0.6432046294212341 9.983287811279297 10
      vertex 4.7736496925354 10 5.358534336090088
      vertex -0.6323514580726624 10 9.98327922821045
    endloop
  endfacet
  facet normal 0.6158166142471352 0.32029858389524957 0.7198463133002022
    outer loop
      vertex 6.712331771850586 7.4549241065979 4.832466125488281
      vertex -0.6432046294212341 9.983287811279297 10
      vertex 5.439393520355225 -1.7113158702850342 10
    endloop
  endfacet
  facet normal -0.6683526652374944 0.6961752424094294 0.26200142504595275
    outer loop
      vertex -3.2844111919403076 10 3.218006134033203
      vertex -0.6432046294212341 9.983287811279297 10
      vertex -0.6323514580726624 10 9.98327922821045
    endloop
  endfacet
  facet normal -0.668355684620334 0.696171904240558 0.2620025927004537
    outer loop
      vertex -0.6432046294212341 9.983287811279297 10
      vertex -3.2844111919403076 10 3.218006134033203
      vertex -12.141748428344727 -1.0558205842971802 10
    endloop
  endfacet
  facet normal -0.6683557333371549 0.6961718900941717 0.26200250601485175
    outer loop
      vertex -12.141748428344727 -1.0558205842971802 10
      vertex -3.2844111919403076 10 3.218006134033203
      vertex -12.491868019104004 -0.45527184009552 7.51113224029541
    endloop
  endfacet
  facet normal -0.6683556518929054 0.6961718965914077 0.2620026965111845
    outer loop
      vertex -6.270354270935059 7.77448034286499 1.514482855796814
      vertex -12.491868019104004 -0.45527184009552 7.51113224029541
      vertex -3.2844111919403076 10 3.218006134033203
    endloop
  endfacet
  facet normal -0.6683556712223501 0.696171889331423 0.2620026664933748
    outer loop
      vertex -12.491868019104004 -0.45527184009552 7.51113224029541
      vertex -6.270354270935059 7.77448034286499 1.514482855796814
      vertex -12.502490043640137 1.411025881767273 2.5250635147094727
    endloop
  endfacet
  facet normal -0.6683556776200673 0.6961718919150586 0.26200264330809453
    outer loop
      vertex -12.502490043640137 1.411025881767273 2.5250635147094727
      vertex -6.270354270935059 7.77448034286499 1.514482855796814
      vertex -12.512228965759277 3.122209072113037 -2.046595335006714
    endloop
  endfacet
  facet normal 0.6683556776200673 -0.6961718919150586 -0.26200264330809453
    outer loop
      vertex 6.270354270935059 -7.77448034286499 -1.514482855796814
      vertex 12.502490043640137 -1.411025881767273 -2.5250635147094727
      vertex 12.512228965759277 -3.122209072113037 2.046595335006714
    endloop
  endfacet
  facet normal 0.6683556518929054 -0.6961718965914077 -0.2620026965111845
    outer loop
      vertex 12.491868019104004 0.45527184009552 -7.51113224029541
      vertex 6.270354270935059 -7.77448034286499 -1.514482855796814
      vertex 3.2844111919403076 -10 -3.218006134033203
    endloop
  endfacet
  facet normal 0.6683556712223501 -0.696171889331423 -0.2620026664933748
    outer loop
      vertex 6.270354270935059 -7.77448034286499 -1.514482855796814
      vertex 12.491868019104004 0.45527184009552 -7.51113224029541
      vertex 12.502490043640137 -1.411025881767273 -2.5250635147094727
    endloop
  endfacet
  facet normal 0.6683526652374944 -0.6961752424094294 -0.26200142504595275
    outer loop
      vertex 0.6432046294212341 -9.983287811279297 -10
      vertex 3.2844111919403076 -10 -3.218006134033203
      vertex 0.6323514580726624 -10 -9.98327922821045
    endloop
  endfacet
  facet normal 0.6683556846203341 -0.6961719042405581 -0.2620025927004536
    outer loop
      vertex 12.141748428344727 1.0558205842971802 -10
      vertex 3.2844111919403076 -10 -3.218006134033203
      vertex 0.6432046294212341 -9.983287811279297 -10
    endloop
  endfacet
  facet normal 0.6683557333371549 -0.6961718900941717 -0.26200250601485175
    outer loop
      vertex 3.2844111919403076 -10 -3.218006134033203
      vertex 12.141748428344727 1.0558205842971802 -10
      vertex 12.491868019104004 0.45527184009552 -7.51113224029541
    endloop
  endfacet
  facet normal 0.7983237464639871 0.6013349302999381 0.032794777524357846
    outer loop
      vertex 12.491868019104004 0.45527184009552 -7.51113224029541
      vertex 9.284698486328125 4.795640468597412 -9.02526569366455
      vertex 7.628811359405518 6.344966888427734 2.8751022815704346
    endloop
  endfacet
  facet normal 0.798323699722305 0.6013349792945469 0.032795016976937666
    outer loop
      vertex 9.284698486328125 4.795640468597412 -9.02526569366455
      vertex 12.491868019104004 0.45527184009552 -7.51113224029541
      vertex 11.056206703186035 2.4969706535339355 -10
    endloop
  endfacet
  facet normal 0.7983237904883497 0.6013348666880434 0.03279487224531731
    outer loop
      vertex 11.056206703186035 2.4969706535339355 -10
      vertex 12.491868019104004 0.45527184009552 -7.51113224029541
      vertex 12.141748428344727 1.0558205842971802 -10
    endloop
  endfacet
  facet normal 0.7983236058715907 0.6013351354994103 0.032794437364998305
    outer loop
      vertex 7.51965856552124 6.4771623611450195 3.1082241535186768
      vertex 4.7736496925354 10 5.358534336090088
      vertex 6.712331771850586 7.4549241065979 4.832466125488281
    endloop
  endfacet
  facet normal 0.7983243017306034 0.6013340748152776 0.03279694699813816
    outer loop
      vertex 7.628811359405518 6.344966888427734 2.8751022815704346
      vertex 4.7736496925354 10 5.358534336090088
      vertex 7.51965856552124 6.4771623611450195 3.1082241535186768
    endloop
  endfacet
  facet normal 0.7983236655796374 0.6013350364363582 0.03279480034357868
    outer loop
      vertex 4.7736496925354 10 5.358534336090088
      vertex 7.628811359405518 6.344966888427734 2.8751022815704346
      vertex 5.2738728523254395 10 -6.818395614624023
    endloop
  endfacet
  facet normal 0.7983237118363762 0.6013349768644524 0.03279476664376595
    outer loop
      vertex 5.2738728523254395 10 -6.818395614624023
      vertex 7.628811359405518 6.344966888427734 2.8751022815704346
      vertex 9.284698486328125 4.795640468597412 -9.02526569366455
    endloop
  endfacet
  facet normal -0.7983237904883497 -0.6013348666880434 -0.03279487224531731
    outer loop
      vertex -12.491868019104004 -0.45527184009552 7.51113224029541
      vertex -11.056206703186035 -2.4969706535339355 10
      vertex -12.141748428344727 -1.0558205842971802 10
    endloop
  endfacet
  facet normal -0.798323699722305 -0.6013349792945469 -0.032795016976937666
    outer loop
      vertex -12.491868019104004 -0.45527184009552 7.51113224029541
      vertex -9.284698486328125 -4.795640468597412 9.02526569366455
      vertex -11.056206703186035 -2.4969706535339355 10
    endloop
  endfacet
  facet normal -0.7983237464639871 -0.6013349302999381 -0.032794777524357846
    outer loop
      vertex -9.284698486328125 -4.795640468597412 9.02526569366455
      vertex -12.491868019104004 -0.45527184009552 7.51113224029541
      vertex -7.628811359405518 -6.344966888427734 -2.8751022815704346
    endloop
  endfacet
  facet normal -0.6019284398501258 0.798460817671187 0.011936328725911228
    outer loop
      vertex -3.4800527095794678 10 -6.647857666015625
      vertex -6.270354270935059 7.77448034286499 1.514482855796814
      vertex -3.2844111919403076 10 3.218006134033203
    endloop
  endfacet
  facet normal -0.6019283914501208 0.7984608537636034 0.01193635511233692
    outer loop
      vertex -6.270354270935059 7.77448034286499 1.514482855796814
      vertex -3.4800527095794678 10 -6.647857666015625
      vertex -4.736518859863281 9.058192253112793 -7.008606910705566
    endloop
  endfacet
  facet normal 0.6019283914501208 -0.7984608537636034 -0.01193635511233692
    outer loop
      vertex 3.4800527095794678 -10 6.647857666015625
      vertex 6.270354270935059 -7.77448034286499 -1.514482855796814
      vertex 4.736518859863281 -9.058192253112793 7.008606910705566
    endloop
  endfacet
  facet normal 0.6019284398501258 -0.798460817671187 -0.011936328725911228
    outer loop
      vertex 6.270354270935059 -7.77448034286499 -1.514482855796814
      vertex 3.4800527095794678 -10 6.647857666015625
      vertex 3.2844111919403076 -10 -3.218006134033203
    endloop
  endfacet
  facet normal 0.6019285182627365 -0.7984607593588894 -0.011936275216834793
    outer loop
      vertex 4.736518859863281 -9.058192253112793 7.008606910705566
      vertex 12.123929023742676 -3.459974527359009 5.059563159942627
      vertex 9.384993553161621 -5.5738396644592285 8.343250274658203
    endloop
  endfacet
  facet normal 0.6019285103700621 -0.798460764635109 -0.011936320287064027
    outer loop
      vertex 6.270354270935059 -7.77448034286499 -1.514482855796814
      vertex 12.123929023742676 -3.459974527359009 5.059563159942627
      vertex 4.736518859863281 -9.058192253112793 7.008606910705566
    endloop
  endfacet
  facet normal 0.6019284916673256 -0.7984607791254882 -0.011936294124075396
    outer loop
      vertex 12.123929023742676 -3.459974527359009 5.059563159942627
      vertex 6.270354270935059 -7.77448034286499 -1.514482855796814
      vertex 12.512228965759277 -3.122209072113037 2.046595335006714
    endloop
  endfacet
  facet normal -0.6019284916673256 0.7984607791254882 0.011936294124075396
    outer loop
      vertex -6.270354270935059 7.77448034286499 1.514482855796814
      vertex -12.123929023742676 3.459974527359009 -5.059563159942627
      vertex -12.512228965759277 3.122209072113037 -2.046595335006714
    endloop
  endfacet
  facet normal -0.6019285103700621 0.798460764635109 0.011936320287064027
    outer loop
      vertex -4.736518859863281 9.058192253112793 -7.008606910705566
      vertex -12.123929023742676 3.459974527359009 -5.059563159942627
      vertex -6.270354270935059 7.77448034286499 1.514482855796814
    endloop
  endfacet
  facet normal -0.6019285182627365 0.7984607593588894 0.011936275216834793
    outer loop
      vertex -12.123929023742676 3.459974527359009 -5.059563159942627
      vertex -4.736518859863281 9.058192253112793 -7.008606910705566
      vertex -9.384993553161621 5.5738396644592285 -8.343250274658203
    endloop
  endfacet
  facet normal -0.7983243017306034 -0.6013340748152776 -0.03279694699813816
    outer loop
      vertex -4.7736496925354 -10 -5.358534336090088
      vertex -7.628811359405518 -6.344966888427734 -2.8751022815704346
      vertex -7.51965856552124 -6.4771623611450195 -3.1082241535186768
    endloop
  endfacet
  facet normal -0.7983236058715907 -0.6013351354994103 -0.032794437364998305
    outer loop
      vertex -4.7736496925354 -10 -5.358534336090088
      vertex -7.51965856552124 -6.4771623611450195 -3.1082241535186768
      vertex -6.712331771850586 -7.4549241065979 -4.832466125488281
    endloop
  endfacet
  facet normal -0.7983236655796374 -0.6013350364363582 -0.03279480034357868
    outer loop
      vertex -7.628811359405518 -6.344966888427734 -2.8751022815704346
      vertex -4.7736496925354 -10 -5.358534336090088
      vertex -5.2738728523254395 -10 6.818395614624023
    endloop
  endfacet
  facet normal -0.7983237118363762 -0.6013349768644524 -0.03279476664376595
    outer loop
      vertex -7.628811359405518 -6.344966888427734 -2.8751022815704346
      vertex -5.2738728523254395 -10 6.818395614624023
      vertex -9.284698486328125 -4.795640468597412 9.02526569366455
    endloop
  endfacet
endsolid OpenSCAD_Model
